<svg width="2500" height="635" viewBox="0 0 512 130" xmlns="http://www.w3.org/2000/svg" preserveAspectRatio="xMidYMid"><path d="M94.387 14.642l1.866-1.902 2.418-2.466-2.984-1.74A62.46 62.46 0 0 0 64.107 0C28.937 0 .447 29.056.447 64.873c0 35.817 28.49 64.874 63.66 64.874s63.659-29.057 63.659-64.874a65.835 65.835 0 0 0-3.974-22.608l-1.462-4.007-2.986 3.046-1.985 2.024-1.162 1.185.538 1.57a57.886 57.886 0 0 1 3.11 18.79c0 31.438-24.967 56.903-55.739 56.903-30.771 0-55.738-25.465-55.738-56.903S33.335 7.971 64.106 7.971a54.58 54.58 0 0 1 27.033 7.128l.617.35H93.596l.791-.807zm-3.841-3.766l1.92 1.883v-2.69 2.69l1.328-2.34a59.96 59.96 0 0 0-29.688-7.828C30.34 2.59 2.988 30.487 2.988 64.873c0 34.386 27.352 62.283 61.118 62.283 33.767 0 61.119-27.897 61.119-62.283a63.265 63.265 0 0 0-3.4-20.533l-.624 2.755 1.985-2.025-4.448-.96a60.456 60.456 0 0 1 3.647 20.763c0 32.87-26.104 59.494-58.278 59.494-32.175 0-58.28-26.625-58.28-59.494S31.933 5.38 64.108 5.38a57.08 57.08 0 0 1 28.87 7.8l1.355-2.323-1.921-1.883-1.865 1.902z" fill="#7ED321"/><path d="M49.5 80.123l.364-.372 72.218-73.657 2.792-2.847 5.582 5.694-2.79 2.847-72.22 73.657-.363.371L49.5 91.51l-2.791-2.847-20.152-20.552-2.791-2.847 5.583-5.694 2.79 2.847L49.5 80.123z" fill="#7ED321"/><path d="M149.744 64.112c0-4.782.84-9.546 2.522-14.29 1.681-4.745 4.128-8.986 7.342-12.722 3.213-3.736 7.173-6.781 11.88-9.135 4.708-2.354 10.051-3.53 16.029-3.53 7.098 0 13.15 1.606 18.157 4.819s8.743 7.397 11.209 12.553l-6.277 3.811c-1.27-2.615-2.802-4.82-4.595-6.613-1.794-1.793-3.736-3.25-5.829-4.371a24.862 24.862 0 0 0-6.5-2.41 31.181 31.181 0 0 0-6.614-.728c-4.782 0-9.004.971-12.665 2.914-3.662 1.942-6.744 4.483-9.247 7.622-2.503 3.138-4.39 6.669-5.66 10.591-1.27 3.923-1.906 7.902-1.906 11.937 0 4.409.766 8.63 2.298 12.666 1.532 4.035 3.624 7.603 6.277 10.704a30.186 30.186 0 0 0 9.415 7.397c3.624 1.831 7.565 2.747 11.825 2.747 2.241 0 4.539-.28 6.893-.841a26.568 26.568 0 0 0 6.837-2.69 28.78 28.78 0 0 0 6.108-4.596c1.869-1.83 3.438-4.053 4.708-6.669l6.5 3.363a24.324 24.324 0 0 1-5.38 7.902 35.385 35.385 0 0 1-7.733 5.772 38.536 38.536 0 0 1-9.023 3.587c-3.175.822-6.295 1.233-9.359 1.233-5.455 0-10.46-1.196-15.019-3.587-4.558-2.39-8.481-5.51-11.769-9.359-3.288-3.848-5.847-8.22-7.678-13.114-1.83-4.894-2.746-9.882-2.746-14.963zm95.944 41.471c-2.989 0-5.716-.467-8.182-1.4-2.466-.935-4.576-2.224-6.333-3.868a17.657 17.657 0 0 1-4.09-5.716 16.527 16.527 0 0 1-1.458-6.837c0-2.69.598-5.137 1.794-7.342 1.195-2.204 2.877-4.09 5.043-5.66 2.167-1.57 4.764-2.783 7.79-3.643 3.026-.86 6.37-1.289 10.032-1.289 2.914 0 5.903.262 8.966.785 3.064.523 5.792 1.27 8.183 2.242v-5.268c0-5.156-1.476-9.247-4.428-12.274-2.951-3.026-6.93-4.539-11.937-4.539-3.138 0-6.258.598-9.359 1.793-3.1 1.196-6.258 2.915-9.47 5.156l-2.69-5.043c3.81-2.541 7.509-4.447 11.095-5.717 3.587-1.27 7.323-1.905 11.209-1.905 7.098 0 12.74 2.055 16.925 6.164 4.184 4.11 6.276 9.789 6.276 17.037V94.6c0 2.092.897 3.138 2.69 3.138v6.725c-.597.075-1.158.131-1.681.168-.523.038-.971.057-1.345.057-1.494 0-2.858-.449-4.091-1.345-1.233-.897-1.924-2.242-2.074-4.036l-.224-4.595c-2.54 3.437-5.884 6.109-10.031 8.014-4.147 1.905-8.35 2.858-12.61 2.858zm1.906-5.828c3.362 0 6.706-.729 10.031-2.186 3.326-1.457 5.96-3.456 7.902-5.996a11.82 11.82 0 0 0 1.345-2.186c.374-.785.56-1.513.56-2.186v-9.527a46.37 46.37 0 0 0-7.957-2.241c-2.765-.524-5.455-.785-8.07-.785-5.455 0-9.883 1.102-13.282 3.306-3.4 2.205-5.1 5.25-5.1 9.135 0 1.57.299 3.101.896 4.596.598 1.494 1.514 2.84 2.746 4.035 1.233 1.196 2.747 2.167 4.54 2.914 1.793.747 3.923 1.12 6.389 1.12zm40.238-24.659c0-4.11.71-7.995 2.13-11.656 1.42-3.662 3.418-6.856 5.996-9.584 2.578-2.727 5.66-4.875 9.247-6.444 3.587-1.57 7.547-2.354 11.88-2.354 5.53 0 10.35 1.252 14.46 3.755 4.11 2.503 7.21 5.884 9.303 10.143l-7.398 2.354c-1.644-2.99-3.923-5.324-6.837-7.005-2.914-1.682-6.165-2.522-9.751-2.522-2.99 0-5.773.597-8.35 1.793a21.3 21.3 0 0 0-6.726 4.876c-1.905 2.055-3.4 4.502-4.483 7.341-1.084 2.84-1.625 5.94-1.625 9.303 0 3.288.56 6.39 1.681 9.303 1.12 2.914 2.653 5.436 4.595 7.566a21.876 21.876 0 0 0 6.782 5.044c2.577 1.233 5.324 1.85 8.238 1.85 1.868 0 3.717-.262 5.548-.785a21.447 21.447 0 0 0 5.1-2.186c1.569-.934 2.914-1.999 4.035-3.194 1.12-1.196 1.905-2.466 2.354-3.811l7.397 2.241c-.822 2.093-2.017 4.017-3.587 5.773-1.569 1.756-3.418 3.287-5.548 4.595-2.13 1.308-4.483 2.317-7.061 3.026a30.054 30.054 0 0 1-8.014 1.065c-4.26 0-8.182-.803-11.769-2.41-3.587-1.606-6.688-3.81-9.303-6.613-2.615-2.802-4.651-6.033-6.108-9.695-1.458-3.661-2.186-7.584-2.186-11.769zm114.55 29.366h-7.622V71.846c0-6.65-1.14-11.62-3.418-14.907-2.28-3.288-5.624-4.932-10.032-4.932-2.167 0-4.315.43-6.445 1.289a23.873 23.873 0 0 0-5.996 3.53 24.252 24.252 0 0 0-4.876 5.269 22.3 22.3 0 0 0-3.082 6.613v35.754h-7.622V22.641h7.622v36.651c2.39-4.408 5.641-7.883 9.751-10.423 4.11-2.541 8.518-3.811 13.226-3.811 3.362 0 6.22.616 8.574 1.85a15.19 15.19 0 0 1 5.717 5.155c1.457 2.205 2.522 4.857 3.194 7.958.673 3.101 1.009 6.52 1.009 10.256v34.185zm41.359 1.121c-4.26 0-8.182-.803-11.769-2.41-3.587-1.606-6.688-3.81-9.303-6.613-2.615-2.802-4.651-6.033-6.109-9.695-1.457-3.661-2.185-7.584-2.185-11.769 0-4.11.728-7.976 2.185-11.6 1.458-3.624 3.494-6.8 6.109-9.528 2.615-2.727 5.697-4.894 9.247-6.5 3.55-1.607 7.454-2.41 11.713-2.41 4.259 0 8.163.803 11.713 2.41 3.549 1.606 6.594 3.792 9.134 6.557 2.541 2.764 4.52 5.94 5.94 9.527 1.42 3.586 2.13 7.397 2.13 11.432 0 .598-.018 1.196-.056 1.794-.037.597-.093 1.008-.168 1.233h-49.877c.224 3.138.953 6.033 2.185 8.686 1.233 2.653 2.803 4.95 4.708 6.893a20.69 20.69 0 0 0 6.613 4.54c2.503 1.083 5.175 1.625 8.014 1.625 1.943 0 3.848-.262 5.716-.785a22.66 22.66 0 0 0 5.156-2.13 18.052 18.052 0 0 0 4.203-3.306c1.233-1.308 2.186-2.746 2.858-4.315l6.613 1.793a19.42 19.42 0 0 1-3.81 5.885c-1.645 1.756-3.55 3.287-5.717 4.595-2.167 1.308-4.558 2.317-7.173 3.026a30.675 30.675 0 0 1-8.07 1.065zm21.52-33.4c-.224-3.14-.953-5.997-2.186-8.575-1.233-2.578-2.802-4.801-4.707-6.67-1.906-1.868-4.129-3.325-6.67-4.37-2.54-1.047-5.23-1.57-8.07-1.57-2.839 0-5.529.523-8.07 1.57-2.54 1.045-4.763 2.502-6.668 4.37-1.906 1.869-3.438 4.11-4.596 6.726-1.158 2.615-1.85 5.455-2.073 8.518h43.04zm46.403 29.477c-.449.224-1.102.523-1.962.897a36.3 36.3 0 0 1-2.97 1.12c-1.12.374-2.39.71-3.81 1.01-1.42.299-2.915.448-4.484.448-1.644 0-3.213-.224-4.708-.673-1.494-.448-2.802-1.14-3.923-2.073-1.12-.934-2.017-2.111-2.69-3.53-.672-1.42-1.008-3.064-1.008-4.933V52.12h-8.07v-6.052h8.07V26.34h7.621v19.727h13.45v6.052h-13.45v39.678c.15 2.167.897 3.755 2.242 4.763 1.345 1.01 2.951 1.514 4.82 1.514 2.166 0 4.072-.356 5.716-1.065 1.644-.71 2.69-1.214 3.138-1.513l2.018 6.164z" fill="#5E5E5E"/></svg>