<svg xmlns="http://www.w3.org/2000/svg" width="2500" height="1340" viewBox="0 0 294 157.593"><path d="M293.557 116.319a3.75 3.75 0 0 1-3.746 3.744 3.705 3.705 0 0 1-2.645-1.101 3.704 3.704 0 0 1-1.098-2.645c0-1.002.389-1.941 1.098-2.646.704-.709 1.643-1.096 2.645-1.096s1.937.387 2.646 1.096a3.734 3.734 0 0 1 1.1 2.648m-3.746-4.191a4.191 4.191 0 0 0-4.188 4.189c0 1.124.437 2.176 1.228 2.961a4.153 4.153 0 0 0 2.963 1.229c1.119 0 2.17-.434 2.961-1.229a4.126 4.126 0 0 0 1.229-2.961 4.153 4.153 0 0 0-1.229-2.963 4.177 4.177 0 0 0-2.964-1.226"/><path d="M289.145 114.289v1.516s1.576.104 1.576-.749c0-.991-1.576-.777-1.576-.767m0 2.474v2.41h-1.02v-5.739c1.257 0 3.479-.329 3.479 1.595 0 1.229-.914 1.549-.914 1.549l1.227 2.596h-1.014l-1.174-2.409-.584-.002zM221.531 96.162V78.525s-.252-8.009-8.285-8.009c-5.034 0-8.288 4.45-8.288 8.009 0 5.665 5.19 8.004 8.288 8.004 1.854 0 3.098-.32 5.857-2.262 0 6.959-.082 11.023 0 11.004-1.842.486-2.513.873-5.857.873-10.212 0-18.232-8.074-18.232-17.62 0-12.132 10.883-17.62 18.232-17.62 9.204 0 18.23 7.103 18.23 17.62 0 6.472.017 6.312.017 8.091v9.557l-9.962-.01zM148.223 79.937V61.791l10.047-4.367v24.55c0 19.254-31.977 19.254-31.977.324V71.405l10.044-4.441v13.067c-.001 9.065 11.886 8.969 11.886-.094"/><path d="M193.427 96.561s-5.079.313-8.366-1.455c-6.031-3.237-5.363-12.696-5.363-12.696V63.966h-6.526v-9.715h6.526v-5.985l10.048-4.527v10.838h6.528v9.549h-6.528v19.008s.169 4.523 3.683 4.523l-.002 8.904zM160.947 61.773h10.044v34.363h-10.044zM160.947 59.109l10.044-.067v-7.056l-10.044 4.371z"/><g><path d="M252.425 59.43v10.196c-7.366 0-7.036 4.366-7.036 8.412v18.124h-10.045V72.213c0-12.458 10.218-12.783 17.081-12.783M233.564 25.797c-.317-.685-1.619-.779-3.062-.276l-.408-.89.425-.198-.354-12.346-9.15-8.297-.429.198-.411-.89c1.322-.771 2.094-1.821 1.784-2.504-.367-.784-2.019-.792-3.694-.021-1.683.778-2.748 2.04-2.391 2.822.312.684 1.613.779 3.057.276l.416.89-7.649 3.522-.408-.894c1.317-.766 2.099-1.817 1.78-2.5-.362-.786-2.016-.795-3.695-.016-1.682.77-2.747 2.031-2.391 2.818.317.684 1.619.774 3.062.271l.411.889-7.36 3.396-.408-.89c1.321-.775 2.098-1.825 1.778-2.509-.36-.782-2.015-.791-3.694-.02-1.681.778-2.744 2.039-2.39 2.821.317.685 1.619.779 3.062.276l.412.89-.91.416-2.781 7.798L95.325 67.702c-4.87-4.321-13.149-5.24-20.792-1.714-9.66 4.446-14.629 14.263-11.102 21.921 3.527 7.662 14.217 10.266 23.877 5.816 6.959-3.209 11.465-9.204 12.129-15.169l5.092-2.365c.354-.139 3.411-1.224 6.896 2.266 2.035 4.56 3.848 9.476 2.689 12.564-.21.562-.853 2.267-4.259 3.782-2.278 1.014-4.264 1.463-6.781 2.031-3.736.84-8.392 1.891-15.572 5.197-6.241 2.873-9.751 8.413-13.471 14.284-4.977 7.853-10.617 16.75-24.557 23.168-3.716 1.71-7.14 1.944-10.472.714-10.242-3.781-18.144-20.941-20.734-26.576-5.29-11.49-11.91-27.877-8.322-37.592 1.1-2.974 3.151-5.116 6.27-6.558 14.144-6.513 24.22-6.023 33.101-5.591 6.506.31 12.648.606 18.684-2.171 7.18-3.304 10.25-5.805 12.717-7.811 1.635-1.331 2.818-2.291 5.017-3.304 2.938-1.355 5.797-1.507 8.479-.457 4.062 1.59 6.871 5.445 8.145 8.528l8.268-3.424c-2.558-6.191-7.473-11.213-13.149-13.438-4.968-1.945-10.32-1.719-15.486.663-3.226 1.484-5.104 3.011-6.917 4.486-2.191 1.78-4.667 3.795-10.818 6.628-4.045 1.863-8.659 1.636-14.501 1.356-9.426-.457-21.15-1.021-37.278 6.406C7.164 63.793 3.49 67.689 1.554 72.93c-4.688 12.688 2.126 30.411 8.585 44.438 5.17 11.229 13.463 26.688 25.76 31.223 5.594 2.068 11.42 1.738 17.323-.977 16.33-7.521 23.004-18.053 28.367-26.511 3.247-5.125 5.817-9.174 9.657-10.94 6.323-2.918 10.291-3.812 13.792-4.599 2.76-.626 5.368-1.211 8.453-2.583 4.536-2.016 7.568-4.984 9.002-8.82 2.734-7.312-1.034-15.398-4.359-22.53l-.668-1.446 85.224-39.524 7.762 3.016.906-.42.412.89c-1.322.77-2.094 1.821-1.779 2.504.361.784 2.015.791 3.691.021 1.68-.779 2.748-2.04 2.389-2.822-.316-.684-1.615-.778-3.057-.275l-.412-.89 7.356-3.387.412.89c-1.318.766-2.093 1.817-1.779 2.5.362.787 2.015.795 3.691.021 1.681-.775 2.752-2.036 2.389-2.822-.315-.684-1.614-.775-3.06-.271l-.408-.89 7.646-3.519.405.891c-1.317.766-2.096 1.816-1.778 2.5.362.783 2.015.792 3.694.017 1.685-.77 2.757-2.035 2.394-2.818M226.034 148.736s-4.898.284-8.091-1.455c-5.687-3.098-5.176-14.257-5.176-14.257v-19.581h-6.311v-9.797h6.311v-4.173h9.723l-.016 4.499h6.312v9.636h-6.312v21.702s.164 4.527 3.56 4.527v8.899z"/><path d="M145.775 148.041c-8.483 9.685-17.533 9.553-20.928 9.553-17.249 0-27.791-14.645-27.791-27.795 0-11.873 7.947-24.769 23.449-27.334 9.752-1.619 19.23 2.102 25.834 9.521-2.122 1.558-6.925 5.231-6.925 5.231-5.236-4.807-8.911-6.414-14.567-6.414-4.523 0-18.992 3.725-18.992 18.996 0 10.039 7.963 19.066 18.992 18.996 8.272-.045 11.882-4.289 14.139-6.41l6.789 5.656zM198.041 128.625v19.771h9.71v-22.679c0-19.26-30.91-19.26-30.91-.325v23.004h9.714v-20.093c0-8.739 11.486-8.899 11.486.322M283.148 111.828v10.196c-7.119 0-6.793 4.362-6.793 8.408v17.981h-9.711v-23.808c.002-11.344 9.987-12.777 16.504-12.777M240.206 123.414s-3.918 3.545-2.052 8.305l10.353-10.356c0-.002-3.823-1.963-8.301 2.051m2.814 16.298c-.069.045 2.291.449 2.967.449 5.142 0 7.683-3.642 7.683-3.642s8.445.024 9.651.004c0 0-2.231 5.815-6.252 8.408-15.481 9.981-25.274-2.386-27.198-5.623-2.896-4.896-4.47-19.004 6.506-25.099 16.511-9.16 25.714 6.766 25.714 6.766l-19.071 18.737z"/><path d="M152.059 123.414s-3.924 3.541-2.057 8.305l10.355-10.354s-3.822-1.961-8.298 2.049m23.113 13.111s-2.232 5.816-6.253 8.408c-15.481 9.986-25.274-2.381-27.198-5.623-2.9-4.895-4.474-19.004 6.505-25.098 16.512-9.162 25.715 6.761 25.715 6.761l-19.069 18.739c-.065.045 2.29.449 2.966.449 5.146 0 7.68-3.642 7.68-3.642l9.654.006z"/></g></svg>