<svg xmlns="http://www.w3.org/2000/svg" width="2500" height="2500" viewBox="0 0 192.756 192.756"><path fill-rule="evenodd" clip-rule="evenodd" fill="#fff" d="M0 0h192.756v192.756H0V0z"/><path d="M18.342 75.426h4.242v2.779h.115c1.259-1.504 4.011-3.242 8.252-3.242 6.992 0 10.431 4.631 10.431 9.839 0 5.441-3.095 10.65-10.431 10.65-4.242 0-6.65-1.388-8.024-3.126h-.115v10.767h-4.47V75.426zm11.692 2.432c-4.929 0-7.222 3.703-7.222 7.408 0 3.242 2.063 7.293 7.106 7.293 4.814 0 6.763-4.4 6.763-7.41 0-3.587-1.834-7.291-6.647-7.291z" fill-rule="evenodd" clip-rule="evenodd"/><path d="M18.342 75.426h4.242v2.779h.115c1.259-1.504 4.011-3.242 8.252-3.242 6.992 0 10.431 4.631 10.431 9.839 0 5.441-3.095 10.65-10.431 10.65-4.242 0-6.65-1.388-8.024-3.126h-.115v10.767h-4.47V75.426zm11.692 2.432c-4.929 0-7.222 3.703-7.222 7.408 0 3.242 2.063 7.293 7.106 7.293 4.814 0 6.763-4.4 6.763-7.41 0-3.587-1.834-7.291-6.647-7.291z" fill="none" stroke="#000" stroke-width="2.042" stroke-linejoin="round" stroke-miterlimit="2.613"/><path d="M45.852 75.426h4.24v3.009h.115c1.146-2.083 3.667-3.473 6.304-3.473 1.262 0 1.949.116 2.865.233v3.24a8.684 8.684 0 0 0-2.406-.347c-4.011 0-6.647 3.126-6.647 7.987v8.913h-4.47V75.426h-.001z" fill-rule="evenodd" clip-rule="evenodd"/><path d="M45.852 75.426h4.24v3.009h.115c1.146-2.083 3.667-3.473 6.304-3.473 1.262 0 1.949.116 2.865.233v3.24a8.684 8.684 0 0 0-2.406-.347c-4.011 0-6.647 3.126-6.647 7.987v8.913h-4.47V75.426h-.001z" fill="none" stroke="#000" stroke-width="2.042" stroke-linejoin="round" stroke-miterlimit="2.613"/><path d="M73.132 74.963c7.335 0 12.265 4.284 12.265 10.187 0 5.672-5.044 10.303-12.265 10.303-7.337 0-12.379-4.63-12.379-10.303-.001-5.903 4.927-10.187 12.379-10.187zm0 17.596c5.271 0 7.564-3.82 7.564-7.41 0-3.704-2.75-7.291-7.564-7.291-4.816 0-7.565 3.587-7.565 7.291-.001 3.59 2.292 7.41 7.565 7.41z" fill-rule="evenodd" clip-rule="evenodd"/><path d="M73.132 74.963c7.335 0 12.265 4.284 12.265 10.187 0 5.672-5.044 10.303-12.265 10.303-7.337 0-12.379-4.63-12.379-10.303-.001-5.903 4.927-10.187 12.379-10.187zm0 17.596c5.271 0 7.564-3.82 7.564-7.41 0-3.704-2.75-7.291-7.564-7.291-4.816 0-7.565 3.587-7.565 7.291-.001 3.59 2.292 7.41 7.565 7.41z" fill="none" stroke="#000" stroke-width="2.042" stroke-linejoin="round" stroke-miterlimit="2.613"/><path d="M91.585 78.321H87.23v-2.895h4.355v-1.852c0-4.746 1.49-7.872 8.024-7.872 1.146 0 2.178.116 3.094.231l-.229 2.895a11.42 11.42 0 0 0-2.178-.232c-3.783 0-4.357 2.084-4.357 4.747v2.083h6.419v2.895H95.94v16.667h-4.355V78.321z" fill-rule="evenodd" clip-rule="evenodd"/><path d="M91.585 78.321H87.23v-2.895h4.355v-1.852c0-4.746 1.49-7.872 8.024-7.872 1.146 0 2.178.116 3.094.231l-.229 2.895a11.42 11.42 0 0 0-2.178-.232c-3.783 0-4.357 2.084-4.357 4.747v2.083h6.419v2.895H95.94v16.667h-4.355V78.321z" fill="none" stroke="#000" stroke-width="2.042" stroke-linejoin="round" stroke-miterlimit="2.613"/><path d="M106.258 75.426h4.469v19.562h-4.469V75.426zm-.344-10.071h5.041v4.051h-5.041v-4.051z" fill-rule="evenodd" clip-rule="evenodd"/><path d="M106.258 75.426h4.469v19.562h-4.469V75.426zm-.344-10.07h5.041v4.051h-5.041v-4.051z" fill="none" stroke="#000" stroke-width="2.042" stroke-linejoin="round" stroke-miterlimit="2.613"/><path fill-rule="evenodd" clip-rule="evenodd" d="M115.541 66.167h4.471v28.824h-4.471V66.167z"/><path fill="none" stroke="#000" stroke-width="2.042" stroke-linejoin="round" stroke-miterlimit="2.613" d="M115.541 66.167h4.471v28.824h-4.471V66.167z"/><path d="M55.938 107.724h4.24v3.124h.115c1.146-2.083 3.668-3.588 6.304-3.588 1.262 0 1.949.115 2.98.348v3.24c-.916-.347-1.718-.347-2.521-.347-4.011 0-6.647 3.009-6.647 7.871v8.914h-4.47v-19.562h-.001z" fill-rule="evenodd" clip-rule="evenodd"/><path d="M55.938 107.724h4.24v3.124h.115c1.146-2.083 3.668-3.588 6.304-3.588 1.262 0 1.949.115 2.98.348v3.24c-.916-.347-1.718-.347-2.521-.347-4.011 0-6.647 3.01-6.647 7.871v8.914h-4.47v-19.562h-.001z" fill="none" stroke="#000" stroke-width="2.042" stroke-linejoin="round" stroke-miterlimit="2.613"/><path d="M153.252 107.607h4.125v3.01h.115c1.145-1.969 3.781-3.474 6.305-3.474 1.375 0 1.947.116 2.98.231v3.242a9.416 9.416 0 0 0-2.523-.348c-4.012 0-6.531 3.124-6.531 7.987v8.912h-4.471v-19.56z" fill-rule="evenodd" clip-rule="evenodd"/><path d="M153.252 107.607h4.125v3.01h.115c1.145-1.969 3.781-3.474 6.305-3.474 1.375 0 1.947.116 2.98.231v3.242a9.416 9.416 0 0 0-2.523-.348c-4.012 0-6.531 3.124-6.531 7.987v8.912h-4.471v-19.56z" fill="none" stroke="#000" stroke-width="2.042" stroke-linejoin="round" stroke-miterlimit="2.613"/><path d="M91.813 126.476c-1.719.578-3.667 1.272-7.563 1.272-8.598 0-12.609-4.168-12.609-10.534 0-5.787 4.584-9.954 11.347-9.954 8.138 0 10.774 4.746 10.774 11.112H76.456c0 3.82 3.668 6.482 7.907 6.482 2.98 0 6.419-1.158 7.451-1.969v3.591h-.001zm-2.865-10.767c0-3.01-2.177-5.439-6.076-5.439-4.354 0-6.073 2.894-6.417 5.439h12.493z" fill-rule="evenodd" clip-rule="evenodd"/><path d="M91.813 126.476c-1.719.578-3.667 1.272-7.563 1.272-8.598 0-12.609-4.168-12.609-10.534 0-5.787 4.584-9.954 11.347-9.954 8.138 0 10.774 4.746 10.774 11.112H76.456c0 3.82 3.667 6.482 7.907 6.482 2.98 0 6.419-1.158 7.451-1.969v3.591h-.001zm-2.865-10.767c0-3.01-2.177-5.439-6.076-5.439-4.354 0-6.073 2.894-6.417 5.439h12.493z" fill="none" stroke="#000" stroke-width="2.042" stroke-linejoin="round" stroke-miterlimit="2.613"/><path d="M93.303 132.495c.575 0 .918.116 1.836.116 2.062 0 3.093-1.621 3.093-4.167v-20.837h4.471v20.257c0 2.893-.113 7.871-6.763 7.871-1.031 0-2.178-.114-2.75-.23l.113-3.01zm4.701-33.339h5.045v4.051h-5.045v-4.051z" fill-rule="evenodd" clip-rule="evenodd"/><path d="M93.303 132.495c.575 0 .918.116 1.836.116 2.062 0 3.093-1.621 3.093-4.167v-20.837h4.471v20.257c0 2.893-.113 7.871-6.763 7.871-1.031 0-2.178-.114-2.75-.23l.113-3.01zm4.701-33.339h5.045v4.051h-5.045v-4.051z" fill="none" stroke="#000" stroke-width="2.042" stroke-linejoin="round" stroke-miterlimit="2.613"/><path d="M107.516 123.35c1.721.927 4.242 1.389 5.617 1.389 1.949 0 4.471-.694 4.471-2.777 0-3.589-10.43-3.242-10.43-8.798 0-4.051 3.666-6.02 8.482-6.02 2.178 0 3.896.348 5.617.811l-.346 3.126c-1.031-.463-3.668-1.043-4.814-1.043-2.178 0-4.24.811-4.24 2.432 0 3.937 10.545 2.779 10.545 9.028 0 4.284-4.125 6.137-8.482 6.137-2.293 0-4.586-.117-6.646-1.044l.226-3.241z" fill-rule="evenodd" clip-rule="evenodd"/><path d="M107.516 123.35c1.721.927 4.242 1.389 5.617 1.389 1.949 0 4.471-.694 4.471-2.777 0-3.589-10.43-3.242-10.43-8.798 0-4.051 3.666-6.02 8.482-6.02 2.178 0 3.896.348 5.617.811l-.346 3.126c-1.031-.463-3.668-1.043-4.814-1.043-2.178 0-4.24.811-4.24 2.432 0 3.937 10.545 2.779 10.545 9.028 0 4.284-4.125 6.137-8.482 6.137-2.293 0-4.586-.117-6.646-1.044l.226-3.241z" fill="none" stroke="#000" stroke-width="2.042" stroke-linejoin="round" stroke-miterlimit="2.613"/><path d="M145.801 126.359c-1.721.58-3.666 1.274-7.68 1.274-8.598 0-12.494-4.168-12.494-10.534 0-5.788 4.471-9.956 11.348-9.956 8.023 0 10.66 4.747 10.66 11.113h-17.309c0 3.818 3.783 6.481 8.025 6.481 2.979 0 6.303-1.272 7.449-1.967v3.589h.001zm-2.865-10.881c0-2.893-2.18-5.44-6.074-5.44-4.357 0-6.191 3.01-6.535 5.44h12.609z" fill-rule="evenodd" clip-rule="evenodd"/><path d="M145.801 126.359c-1.721.58-3.666 1.274-7.68 1.274-8.598 0-12.494-4.168-12.494-10.534 0-5.788 4.471-9.956 11.348-9.956 8.023 0 10.66 4.747 10.66 11.113h-17.309c0 3.818 3.783 6.481 8.025 6.481 2.979 0 6.303-1.272 7.449-1.967v3.589h.001zm-2.865-10.881c0-2.893-2.18-5.44-6.074-5.44-4.357 0-6.191 3.01-6.535 5.44h12.609z" fill="none" stroke="#000" stroke-width="2.042" stroke-linejoin="round" stroke-miterlimit="2.613"/><path d="M158.293 98.114c11.234 0 20.289-9.259 20.289-20.489 0-11.344-9.055-20.604-20.289-20.604-11.232 0-20.285 9.259-20.285 20.604 0 11.23 9.053 20.489 20.285 20.489z" fill="none" stroke="#000" stroke-width="1.021" stroke-miterlimit="2.613"/><path fill-rule="evenodd" clip-rule="evenodd" d="M148.207 72.764v22.688-22.688z"/><path fill="none" stroke="#000" stroke-width="1.021" stroke-miterlimit="2.613" d="M148.207 72.764v22.688"/><path fill-rule="evenodd" clip-rule="evenodd" d="M148.207 59.8v6.367V59.8z"/><path fill="none" stroke="#000" stroke-width="1.021" stroke-miterlimit="2.613" d="M148.207 59.8v6.367"/><path fill-rule="evenodd" clip-rule="evenodd" d="M158.293 57.021v41.093-41.093z"/><path fill="none" stroke="#000" stroke-width="1.021" stroke-miterlimit="2.613" d="M158.293 57.021v41.093"/><path fill-rule="evenodd" clip-rule="evenodd" d="M168.381 59.684v19.679-19.679z"/><path fill="none" stroke="#000" stroke-width="1.021" stroke-miterlimit="2.613" d="M168.381 59.684v19.679"/><path fill-rule="evenodd" clip-rule="evenodd" d="M168.381 83.297V95.8 83.297z"/><path fill="none" stroke="#000" stroke-width="1.021" stroke-miterlimit="2.613" d="M168.381 83.297V95.8"/><path fill-rule="evenodd" clip-rule="evenodd" d="M140.756 67.324h6.305-6.305z"/><path fill="none" stroke="#000" stroke-width="1.021" stroke-miterlimit="2.613" d="M140.756 67.324h6.305"/><path fill-rule="evenodd" clip-rule="evenodd" d="M157.377 67.324h18.453-18.453z"/><path fill="none" stroke="#000" stroke-width="1.021" stroke-miterlimit="2.613" d="M157.377 67.324h18.453"/><path fill-rule="evenodd" clip-rule="evenodd" d="M140.756 87.697h35.074-35.074z"/><path fill="none" stroke="#000" stroke-width="1.021" stroke-miterlimit="2.613" d="M140.756 87.697h35.074"/><path fill-rule="evenodd" clip-rule="evenodd" d="M145.342 77.625h33.24-33.24z"/><path fill="none" stroke="#000" stroke-width="1.021" stroke-miterlimit="2.613" d="M145.342 77.625h33.24"/><path fill-rule="evenodd" clip-rule="evenodd" d="M137.893 77.625h5.502-5.502z"/><path fill="none" stroke="#000" stroke-width="1.021" stroke-miterlimit="2.613" d="M137.893 77.625h5.502"/><path d="M162.65 63.388c.229 0 .457 0 .688-.116h.115v.233h-.115v.116c-.23-.116-.344-.116-.574 0 0 0-.113.114 0 .114.115.117 0 .233 0 .348 0 0-.113.116-.113.232-.115 0-.23 0-.344.115 0 .117-.115 0-.23 0l.115.117c-.115 0-.115 0-.229-.117l.113-.115c-.229 0-.113-.232-.344-.116-.115 0-.115-.116-.229-.116l-.115-.115c.115-.116.229-.233.344-.463.115 0 .344.116.344-.117l.115.117c.115-.117.115-.117.115-.233.114.116.344-.001.344.116zM143.395 75.659c.113.114 0 .23.113.23v.116c-.113 0-.113.115-.113 0v-.346zM166.203 70.218v.116c-.229 0-.344.114-.459.347-.113 0-.113.116-.229.116h-.229c0-.116 0-.232-.115-.232l.115-.231c.23.231.573-.116.917-.116zM144.195 77.741c.23.231 0 .348 0 .464-.115 0 0-.232 0-.347v-.117zM143.852 79.13c0 .117-.115.233 0 .233h.115s.229.115 0 .115c0 .116.113.116 0 .232-.115 0-.115-.232-.23-.116-.113 0 0-.116-.113-.116v-.115-.233c.112 0 .228.117.228 0z" fill-rule="evenodd" clip-rule="evenodd"/><path d="M143.852 79.71c-.115 0 0 .117-.115.117h-.229c0-.117.115-.117.115-.117.113 0 .229-.116.229 0zM143.852 81.331c-.115 0 0-.116 0-.116h.115l-.115.116zM144.08 83.645c-.113.116.23.116 0 .233 0-.117-.228-.117 0-.233zM156.117 80.288s-.113-.114-.113 0c-.115.116-.346.116-.459.116h-.115l.229-.23c.112 0 .345 0 .458.114zM156.004 80.635c0 .116-.115.116-.232.116 0-.116-.227-.23 0-.23.117 0 .117.114.232.114zM145.57 87.581c.115 0 .115 0 .115.116-.115 0-.115.231-.229.347-.23.231 0 .347-.115.578.115.117.115.233 0 .233s0 .23-.229.23c0 0-.115-.116-.23 0-.113-.116 0-.347-.113-.578.113 0 0-.117 0-.117.229-.232.113-.463.229-.694-.115-.116 0-.232 0-.232h.115c.113-.114 0-.114 0-.114.229.001.344.231.457.231zM153.48 87.117v.117s0-.117.115-.117v.117c-.115 0-.229.23-.344 0 .116 0 .001-.347.229-.117zM152.221 88.855l-.115.114c-.115-.114 0-.23-.115-.23.114-.231.114.116.23.116zM161.389 87.003c-.229-.233-.115-.463-.229-.697-.115-.114-.344-.23-.23-.347-.113-.114-.113-.347-.229-.347s-.229 0-.229-.231l-.115-.233v-.114c0-.117.115 0 .229-.117h.23c0-.116.113-.347-.115-.231-.115-.232-.115-.347-.115-.579-.229-.117-.229-.464-.344-.578 0 0 0 .114-.115.114 0-.114.115-.347 0-.462-.111 0 0 .115-.111.115-.117 0-.117 0-.117-.115v.115c0 .117.117 0 .117 0 0 .233.111.463.111.58-.111 0-.111-.233-.111-.347-.117.114-.117.347 0 .461v.233c.111.116.111.116 0 .23-.117-.114 0-.23-.117-.23-.115 0-.229 0-.229.116 0 .114.229.114.346.23v.231c-.117 0-.232 0-.232-.115-.113.115-.227.115-.227.231h.227v.231c.115 0 .232 0 .344.117 0-.117.115-.117.115-.117 0 .117-.115.117-.115.233s-.111-.116-.111-.116c-.117 0-.232-.117-.346-.117v-.114c.113 0 0-.117-.113-.117-.117.117-.23 0-.346 0-.113 0 0 .117-.113.117.113 0 .113.114.113.114-.113 0-.113.117-.229.117h-.115l-.115.116c-.115-.116.115-.347.115-.464-.115-.116 0-.116.115-.116-.115-.231.115 0 .115-.115 0-.116.113 0 .113 0v-.116c-.113 0 0-.23-.113-.347.113 0 .113-.116.113-.116.229 0 .229.232.346.347 0 0 .113-.114 0-.114-.117-.232-.346-.349-.459-.463-.23-.233-.461-.463-.689-.58-.229-.115-.229-.231-.342-.231-.115.116-.229.231-.461.231h.117-.23s-.115.233-.229.117c-.117.116-.344.23-.461.116-.111.23-.227.114-.342.23-.115.117-.229 0-.229.117-.115.114-.344.114-.461.231l-.113.116c-.113 0-.457.116-.688 0 0-.116-.113-.233 0-.347 0-.117-.113-.117-.229-.117s-.115.231-.229.231c0-.114-.115-.114-.115-.114v.231c.115.116-.115.116-.115.232-.229 0-.229-.232-.459-.116v.462h.115c.115.115.229.348.344.348-.229.231.115.114.115.231h.115c.113 0 .229 0 .229.116.115.231-.115 0-.229.116h.113l.115.115c.344.347-.344.116-.229.463.113 0 .229 0 .344.116 0 0 .229-.116.229 0v.694c.115.117-.115.348 0 .464-.115.23.344.114.227.347.117 0 .232.114.346.114.113.117.113.233.113.348h.117c0-.115-.117-.115-.117-.115.117 0 .117-.116.232 0-.115.231.229.115.342.231.115 0 .115-.116.23-.116 0 .116 0 .116.115.232v.23c.111 0 .111.233.229.233 0 .114-.117.114-.229.114 0 .116-.115 0-.115 0l-.115.116c0 .116-.115 0-.115 0 0 .231-.229.231-.113.347.113.116.229 0 .344 0 .115-.231.227.116.459.116.111 0 0 .231.111.231h.117c-.117-.116 0-.231.113-.231l-.113-.116c0-.116-.117-.116-.117-.116.23-.231.23.116.346.116.113 0 .23.116.23.231.115 0 .229 0 .229.116h.115c.113.116.113 0 .113 0h.229c-.115.116.117.116.117.232h.342l.344.23c.115 0 .115-.116.115-.116.113 0 .23-.114.344-.23.113 0 .113-.116.229-.116.229.116.344-.116.459.116v-.112h.115c.113 0 .344 0 .344-.231l.113-.232c0-.115 0-.231.115-.347-.115-.114.115-.23 0-.348.115-.114.115-.463.115-.694v-.463s0-.114-.115-.114c-.115-.116 0-.116.115-.233-.115-.114-.23 0-.344-.114 0-.117.113 0 .229 0v-.117c.115 0 .115.117.229.117 0 0 0 .114.115.114h.115c.001-.115-.114-.001-.114-.115z" fill-rule="evenodd" clip-rule="evenodd"/><path d="M155.771 88.392c-.113.117 0 .348-.113.348l.113.116c.117 0 .117.114.232.114.229-.348-.115-.461-.232-.694v.116zM155.201 91.285s.111-.116 0-.116v-.114l-.115-.233c-.115 0-.115-.231-.115-.231-.113-.116-.113-.23-.229-.23 0-.117-.115-.117-.115-.117-.113-.116-.113-.116-.229-.116-.115.116-.115-.114-.344-.23-.115 0 0-.232-.115-.232-.115-.231-.459-.231-.572-.347-.115.116-.23 0-.346 0-.113.116-.113.116-.229.116-.115.116-.115.231-.229.231-.115.116.113.116.229.116 0 0 .115-.116.229 0 0 0-.113 0-.113.116s-.23-.116-.23.116c0 0 .115 0 .115.114 0 0 .115.116.229 0 .23.116.346 0 .574.116-.115 0-.115 0-.115.117 0 0 0 .114.115.114s.229.116.344.116c-.115.116-.115.231-.115.231h.115c0 .116-.115.116-.115.116 0 .117.115 0 .23.117h.113c-.113.114-.113.347-.229.463.115 0 .229 0 .229-.116.115 0 .23.116.23.116.115.114.229.114.344.23 0 .117.115.117.115.231-.115 0-.115-.114-.23-.114 0-.117-.229-.117-.229-.233-.115 0-.115-.114-.23-.114 0 .114-.113.23-.229.23 0 .117.115.117.229.231.23 0 .459.233.689.117.113-.348.344-.23.572-.23.001-.234-.228-.348-.228-.581zM165.057 88.159c0 .116-.113.116-.113.116-.115 0-.115-.116-.115-.116s.114-.115.228 0zM165.4 88.275c.115.233.23-.116.23 0-.115.116-.23.233-.344.233-.115-.117-.115-.117-.23-.117h-.113c.113-.116.229 0 .229-.232.115.116.115 0 .228.116zM164.943 88.508c0 .114-.115-.117-.115 0v-.117c0 .001.115.001.115.117zM160.016 89.896c.111.116 0 .23.111.23.115.116 0 .116 0 .233-.111.114-.229.23-.229.347 0 0 .117 0 .229.115 0-.115.115-.115.115-.231h.115c0 .116 0 .347-.23.231 0 0 0 .116-.111.116l-.117.117h-.342s.113 0 .113.114h-.23c-.113 0 .23-.114 0-.114 0-.117-.229-.233-.113-.348 0 0 0-.116-.115-.116h.228c-.113-.116-.229-.116-.229 0v-.116c.115-.114.229-.231.346-.231 0-.116.113-.116.227-.23.114 0 .114-.233.232-.117zM157.492 91.055c0 .114 0 .114.113.114.117-.114.117.116.117.116.229.116.115.463.457.463v.117l.229-.233s-.115-.114-.115-.23c.115 0 .115.116.232.23 0 .116-.117.233 0 .233.111.23-.117.461.227.461v.117c-.115 0-.115 0-.227.116.111 0 0 .115 0 .115-.117 0-.117-.115-.232-.231 0-.117-.227-.117-.227-.231-.115-.116-.115-.347-.344-.347-.117-.117-.23-.348-.346-.464.115-.347-.23-.347-.23-.58.231-.114.118.234.346.234z" fill-rule="evenodd" clip-rule="evenodd"/><path d="M159.67 89.896c.113.116 0 .23 0 .347 0-.23-.23.117-.23-.116 0-.114.117 0 .117-.114-.117-.116-.346.114-.23-.116l.343-.001zM158.867 91.748c-.115 0 0 .117.115.117.115.114.229.23.229.347 0 .114.115 0 .115.114h-.459c0-.114-.459 0-.23-.23 0-.117.115-.117.23-.117v.117h.115c0-.23-.23-.23-.23-.348h.115zM158.408 91.865h-.115c0-.117-.113 0-.113-.117 0 0 .113 0 .228.117zM162.076 88.622c-.113-.114-.113.117-.113.117-.346.116-.23.463-.459.694.113.116 0 .231 0 .347s-.115.232-.115.347c0 0 0 .233-.115.116v.117c-.113.23-.229.461-.457.461-.115 0-.23.233-.344.347-.115.116-.115.232-.115.349h-.115c0 .114-.115.114 0 .23.115-.116.115 0 .115 0l.115-.116V91.978h-.115l-.115-.114c0 .114-.115.23 0 .23-.115.23-.227.347-.227.463 0 0 0-.116-.117-.116-.115 0-.115 0-.229-.117.113.117 0 .233.113.233.115.115.232.231.344.347 0 .117 0 .347.115.578h-.115c0 .116 0 .233.115.347.344 0 .344-.347.459-.578 0-.23.115-.463.229-.579 0-.231.23-.462.23-.695.113-.114 0-.231 0-.347.113-.114.113-.23.113-.23 0-.232.23-.463.344-.58.23-.115.115-.347.23-.579 0-.347.229-.81.229-1.157 0-.114.115-.229 0-.462zM170.789 90.013c0 .114.115.23.229.348.115 0 .23.114.344 0 .113.114.344 0 .459.114h.115c.229 0 .459.116.572.232l.23.578c-.23.463-.574 0-.803 0-.346-.116-.688-.116-.803.116-.344.23-.459.578-.803.811-.115.114-.229-.233-.344 0-.115-.116 0-.233-.115-.233h.115c-.115-.114-.229 0-.344-.114.115 0 .229-.117.115-.117-.115-.23.229-.23.113-.347l-.113-.116c.113-.116.229-.23.344-.23 0 0 0 .114.113.114v-.114l-.113-.117c.113 0 .113-.116.229 0 0 .117 0 .117.115.231 0-.114.229-.114.344-.231.115.117.115.117 0 .231 0 .116-.115.116 0 .116.115-.116.229-.23.459-.23 0-.117-.23-.117-.344 0-.115-.117 0-.117 0-.117-.115-.116-.115-.231 0-.347.113-.116-.115-.116-.115-.23 0-.117-.115 0-.23 0 0-.117.115-.233.115-.348h.116zM169.299 91.401h.115c.113.116.229.116.229.23l-.115.233c-.229-.233-.572 0-.572-.348l.115-.116c-.001.118.113.118.228.001zM167.924 93.948c0-.117.113-.117.113-.231a.635.635 0 0 0-.344-.58l-.115-.114c-.113-.117 0-.233 0-.349h-.113c0-.231-.23 0-.23-.231-.113 0 .115-.231 0-.347l-.113.116-.344-.347h-.23c.23.114-.113.347.115.461 0 .117-.115 0-.229.117-.115 0-.115 0-.23-.117 0 .117-.115.117-.115.233h.115c0 .115-.115.115 0 .231-.115 0-.344-.116-.459-.116h-.229c0-.115-.115-.115-.115-.231.115-.231-.229-.117-.229-.231 0-.116 0-.116-.115-.116l-.229-.23c.115-.117 0-.233 0-.233l-.344-.114c0-.232-.23-.232-.344-.349-.23 0-.459-.231-.688 0h-.23c0 .116 0 0 0 0-.115 0-.115.116-.115.116l-.113.116v-.116c-.115 0-.115.116-.23.232-.229 0-.229.23-.229.348v.114s0 .117.115.117c0 0 .113 0 0 .116l.113-.116c.115 0 0 .116 0 .116s.115 0 .115.114v.117c0 .116.115.231.115.347-.115 0-.115 0-.23-.116 0 .116.115.116.115.232v.117c-.115-.117-.229 0-.229-.233h-.23l-.113-.116c0 .116 0 .116.113.116.115.233-.113.116-.229.233-.115-.117 0-.233-.115-.349.115-.115.115 0 .23-.115l-.23-.116v.231c-.113.232.23.349.23.579.229.347.688.347.916.464.23.114.344.231.574.231 0 .232.344.232.572.347.115.233.229.463.574.579.229.115.457.578.801.578-.113-.116-.344-.116-.344-.23 0-.117.115-.233.115-.233.115 0 .229-.115.229-.115h.115l.229-.116c0-.116.115 0 .115-.116 0 0 .115.116.23 0 .113-.114.229.116.229.116 0-.23.115 0 .229-.116.115 0 .115.116.115.116.115 0 0-.116.115-.116.229 0 0 .116.113.232.115-.116.344 0 .459 0 0 0 .115-.116.115 0v-.116c0-.116.115-.116.115-.116-.115-.114.113-.114 0-.23h.113c-.113-.116-.344-.116-.344-.347h.115l-.115-.233c.119-.002.119.115.234.115z" fill-rule="evenodd" clip-rule="evenodd"/><path d="M170.102 92.674c-.115-.231-.344-.348-.344-.578-.115 0-.23-.23-.344-.117-.115-.114-.344 0-.459-.114 0-.233-.115-.233-.115-.464h-.115c-.113 0-.229.116-.229 0v.23h-.115l.115.116c-.115-.116-.229-.116-.229-.116.113-.114-.115-.114-.115-.23.115-.116 0-.116-.115-.232-.113.116-.113-.114-.229-.114 0 .114 0 .114.115.23-.115 0-.115.116-.23.116v-.116l-.229-.116c-.115 0-.115 0-.23.116v.116c-.113-.116-.113 0-.229 0 0 .116.229.116.229.116.115.114.115.23.115.23-.115.117 0 .231 0 .348v.347h.229c.115 0 .115.231.115.347 0 0-.115.116 0 .233 0 .114.115.114.23.114 0 .116.113.233.229.347-.115.116.115.347 0 .464l.229.116c-.113.116-.113.231-.229.347 0 .117-.115.347-.115.463.23.231.459.578.344.809.115.117.23.233.344.117 0-.464-.113-.926 0-1.272 0-.348.459-.58.574-.811 0-.117.115-.347.229-.464.115-.116.344-.116.344-.347.115 0 .115-.116.23-.116v-.115zM160.473 79.94c-.115-.114 0-.23-.115-.347l.115.347c-.115.233-.23.116-.346.233 0-.117-.229-.233-.111-.464l.111.117v-.116h.115c-.115 0-.115-.116-.227-.116-.117 0-.117-.231-.232-.347-.113-.117 0-.347-.113-.578l-.23.23c0 .23-.113.347 0 .463 0 .115.117.115.117 0 .227.115.227.231.342.347-.115.23 0 .347-.115.578h-.227c-.117 0-.23.116-.117.232-.229.23 0 .461-.113.578.113.116.113.347.23.347.113-.114.227.233.459.116 0-.23.227-.463.111-.694.115-.233 0-.463.23-.694 0-.115.229-.115.116-.232zM146.488 89.896v-.116.116zM146.717 71.839c.115.114 0 .23 0 .347.115-.116.115-.116.115-.232-.115-.23.229-.347.229-.578-.229-.116-.229.231-.344.231 0 .116.115.116 0 .232zM149.812 68.482c0-.117 0 0-.115 0-.113-.117-.229-.117-.457 0 0 0-.23 0-.23.115h.115c0 .232.229.232.344.347l.115-.23s.113 0 .113.116c.115 0 .115-.116.115-.116l-.115-.116.115-.116zM146.488 69.987s.115-.116.229-.116c-.113 0-.113 0-.113-.117.113 0 0-.114 0-.23.229 0 0 .23.113.23.115 0 .115-.114.115 0v.117s0 .116.115.116l-.115.115c0 .116 0 .232.115.232.229 0 .344 0 .459-.116.113.116.344-.116.457-.116v-.231c.115-.117.344-.231.344-.347.23-.117 0-.347.23-.347v-.233c.113 0 0 .116.113.116.115-.116 0-.23 0-.23-.229-.232-.229-.464-.229-.694 0-.116.115-.233.115-.233.113 0 .113 0 .113.117l.115-.117v.233c0-.116.115-.233.115-.347.229-.233 0-.58.229-.811-.113-.116.115-.116 0-.232 0 .116-.229.116-.113.232-.115.114-.23.114-.23.114h-.229c0 .117-.115.348-.23.464-.113.116-.229 0-.229.116-.115 0-.229 0-.229.117h-.115c-.115 0-.344-.117-.459 0h-.115c0 .231.115.461 0 .461v.116s.115 0 0 0c0 .117 0 0-.113 0l-.115.117c.115 0 .115.115.229.115.115 0 .115 0 .115.116s-.229.23-.344.23c-.115-.23-.229 0-.344 0-.115.116 0 .233 0 .35-.115-.116-.229.114-.344.114 0 .117-.115.117 0 .233.115 0 .115-.116.229-.233 0 .117.115.117.115.233v.114c.001-.001-.114.116.001.232zM146.947 71.028c-.115-.117.113-.347 0-.463 0 0 .113 0 0-.117-.115-.114-.23 0-.344 0-.115.117.113.117.113.233.116.116.116.23.231.347z" fill-rule="evenodd" clip-rule="evenodd"/><path d="M161.504 73.344s0-.116 0 0l-.344-.348c.113-.232-.115-.232-.23-.463-.113.116-.229-.117-.344-.117-.229.233-.57.117-.688.117-.229 0-.342.23-.572.116-.115 0-.229 0-.344.114-.115 0-.23-.114-.346-.114-.344 0-.457-.347-.686-.464-.113-.116-.113-.347-.113-.463-.115 0-.115-.116-.232-.116-.113 0 0 .116 0 .232-.113 0-.113.114-.229.114 0 .116-.23.116-.113.232-.117 0-.117.117-.117.117-.111.231.117.461-.111.694.111-.347-.115-.58 0-.811h.111v-.232c.117-.114.117-.23.346-.23-.115-.116 0-.116 0-.116 0-.115.113 0 .113-.115.117 0 .346-.116.346-.232v-.461-.349c-.229.117-.346 0-.459.117-.229-.117-.346.116-.457.116-.115 0-.232 0-.232-.116-.111 0-.227.232-.342.232-.115-.116-.115-.232-.115-.232h-.113v-.117c.113-.114.229-.23.344-.23s.227.116.344.23c0 0 0-.114.115-.114.111-.232.229.114.342 0 .115.114.229 0 .461.114.113-.23-.115-.347-.232-.578 0-.347-.229-.811-.113-1.274l-.115.116c0-.116.115-.116.115-.116v-.115s-.115-.233 0-.233h-.115v-.347h.115c0-.114 0-.347.113-.463 0-.115 0-.115.117-.115v-.116h-.346c-.113 0-.23-.117-.342-.117-.232-.23-.459-.23-.459-.461 0-.116-.115-.116-.23-.233 0 0-.113 0-.113-.117-.229-.114-.229-.23-.344-.347-.117 0-.23.233-.459.347v-.114.114s-.117 0-.117-.114c.117 0 .232.114.232 0 .113-.116.227-.348.344-.348.115.115.115.115.229.115v.117a1.6 1.6 0 0 0 .459.347c0 .117.227.117.115.233.229.114.344.347.455.461.23 0 .346 0 .576-.114 0 .114.115 0 .115.114.229-.23.342-.461.342-.811 0 0 0-.114.113-.114v-.116-.117c.115-.115.115-.115.115-.231v-.116c0-.115 0-.115.117-.115-.117-.233.111-.347.111-.463l.115-.117c.115-.23.574-.23.574-.578v-.347c.113-.347-.115-.696 0-.926-.115-.116-.115-.231-.115-.348v-.23c0-.117 0-.233.115-.233-.115-.114 0-.23 0-.347 0 .117.113 0 .113 0l-.113-.463c-.115 0-.115-.114-.115-.23 0-.117-.229-.231-.229-.348 0-.116-.23-.23-.23-.347v-.233-.114-.464c.346-.346.459-.694.805-1.041 0 0 .227 0 .227-.116.115-.117.344-.117.459-.231-.227 0-.459-.232-.686-.117-.346.348-.689.579-1.031.811-.117.117-.232.23-.346.348-.113.116-.342.116-.457.23l-.117.116v-.116l-.342.233c-.229-.117-.344.114-.461.114-.227 0-.342-.114-.457 0-.113 0-.229-.114-.342-.114-.459 0-.574.578-.803.811 0 .114-.115.114-.115.23-.115.231-.459.231-.459.578 0 0-.113 0-.113.117 0 .116-.115.347-.23.463-.115.23-.229.346-.344.578-.459.58-.688 1.39-1.262 1.737v.115c-.229-.115-.344.233-.457.347h-.344v.116c-.23-.116-.459 0-.574.117-.344-.117-.572.116-.803 0-.229 0-.459-.117-.916-.233-.115 0-.115 0-.23-.114-.113 0-.113.23-.229.23-.229.117-.459.347-.688.347-.23 0-.574.233-.803-.114-.229.114-.344-.349-.688-.116-.23.23-.344.578-.574.81-.113.115-.229 0-.344.115l-.459.696c-.229.114-.457.578-.572.925-.115.116-.229.347-.344.58-.344.347-.229.924-.344 1.388.115.116 0 .23.115.347 0 0 0-.231.113-.117v-.113-.116-.58c.23 0 .23.116.344.233 0 .23-.113.463.115.694.115.116 0 .463.344.347.115.116.344.116.344.23.115.117.23.233.23.349l.113.114v.348c.115.116.23.116.344.116 0-.116-.229 0-.113-.116 0-.23.229-.114.344-.114v-.234c.113-.114 0-.23-.115-.346 0-.117 0-.231.115-.231 0-.116.113-.232 0-.347v.115h-.115c0-.115-.115-.231-.115-.231-.113-.117-.113.116-.229 0l.115-.117h-.23c-.113 0-.113.117-.229 0 0-.114.115 0 .115-.114.113-.116.113-.233.229-.347-.115-.116-.115-.233-.229-.35 0 0 .113 0 .113-.114.115 0 .23-.116.344-.116v-.116h.115c.229.116.229-.115.344-.231.115-.116.229-.23.115-.346.113-.117 0-.231.113-.348 0-.232.23-.232.23-.347 0-.116 0-.347.115-.233.113-.114.344 0 .457.117.115-.117.23-.117.23-.231.113 0 .457-.116.688-.232 0 0-.115.116 0 .116s.115-.116.115-.23c0-.35.457.114.457-.233.115 0 .23-.117.344 0 0 0-.113 0 0 .117.115 0 .115-.117.23-.233h.229c.23-.23.115.117.344.117h.115v.117c.115 0 0 .116.115.116 0 .114.229.23.344.23 0 0 .113 0 .113-.116 0-.114.115-.114.115-.114s.115 0 .115-.116c.113 0 .229 0 .344-.117.115.117.229 0 .344-.117h.229s.23.117.23-.114c.113.114.344 0 .457.114.23.117.115-.23.346-.114.113-.116.229-.116.344-.233h-.115.228c0 .117.115.117.115.117h.229c.23 0 .23-.348.23-.348.115-.116 0-.116 0-.231.229.231.459.231.572.462.115.117.23.117.23.233-.115-.116-.23.23-.344.114-.115.117-.23 0-.344-.114-.115.114-.346.114-.574.114-.115 0-.344.117-.229.35v.114c-.115 0-.115.116-.23.116-.113.116 0 .23-.113.347-.115 0-.23-.117-.23 0l-.115.463c-.113 0 0-.232-.113-.232 0-.115-.115-.115 0-.231h.113v-.117c0-.114.115-.114.115-.114 0-.232-.229-.232-.344-.347-.229-.116-.459-.116-.688-.116h-.115l-.229.116c-.115.114-.344 0-.459.114-.115 0-.115.116-.115.232h-.229c0 .347-.344.231-.344.578-.229 0-.115.233-.115.464 0 0 .23.116.23.23-.115.116-.115.58-.344.694.229.116.113.35.113.463h.344c.115.233-.113.464-.113.58-.23 0-.23.231-.344.347-.115 0 0 .114 0 .231.113.116.113-.117.229-.117s.115 0 .115-.114c.229.114.344-.232.457-.116v.116-.116h.23c-.115.116-.115.347-.115.463v.116c0 .114 0 .231-.115.348 0 .114.115.461-.344.578v-.116c0-.231.23-.115.23-.231v-.116c0-.114 0-.23-.115-.23s-.229.117-.344 0c-.115-.117-.115.117-.229.117-.23-.117 0-.348-.23-.58 0 .232 0 .463-.229.58.113.114.229 0 .344 0v.114c-.115 0-.115.116-.23.116l-.113-.116c-.115 0-.115.116-.115.116 0 .116.115.231 0 .348-.115 0-.115.116-.115.116-.344 0 0-.232-.113-.348-.23-.232.113-.346 0-.463.113-.117.229-.231.344-.231 0-.116-.115-.232 0-.232.113.116.113-.231.229-.347.115 0 .23-.116.344-.231-.113-.233-.344-.347-.344-.58-.229 0 0-.23-.229-.347-.115 0-.115-.23-.344-.116h-.115c0 .116.115.116.115.233h-.115c-.115-.233-.344-.233-.459-.233.115.116 0 .233-.113.35h.113s.115 0 .115.114h-.229c-.115-.114.229-.347.113-.463-.113 0-.113.233-.229.233-.115.116-.23.116-.344.116v.114c0 .117 0 .117-.115.117l-.115.463c.115-.116.23.115.344 0h.23c0 .115-.115.115-.115.231-.115 0-.115-.116-.115-.116s-.113 0-.113.116l-.115-.116v.116c-.115.116-.115-.116-.229-.116-.344.116-.23.463-.459.696-.115.231-.344.114-.459.114v.117c0 .117.115.117.115.23-.115.232.344.348.229.694-.113 0 0 .116 0 .232l-.803.23-.113-.23c.113-.116 0-.232-.115-.347 0-.116.115-.116 0-.232v-.231l-.344.348c-.229-.116-.459-.231-.688-.348-.23-.23-.459 0-.688-.116-.115.116 0 .348-.115.348-.115-.115.115-.231-.115-.348.115-.114.23 0 .23 0 0-.348-.23-.114-.344-.23-.23 0-.115-.231-.115-.347-.115 0-.23-.116-.23-.116 0-.117 0-.231.115-.231 0-.116.115-.232.115-.347v-.233l-.115-.114c0 .114-.115.347-.115.347a2.856 2.856 0 0 0-.572 1.736.359.359 0 0 0 0 .463c0 .464-.113.925-.113 1.273h.113s-.113-.115 0-.115c0-.116-.113-.233 0-.233v-.347c.115 0 .115.116.115.116h.113c0 .116.115.231 0 .348.115.116 0 .231.115.347s.229.347.459.232c.115 0 .115-.232.229-.232v.116s0 .116-.113.116c0 .114-.115.114-.23.114 0 .117.115.117.23.233 0 .114.113.114.113.23 0 0 0 .116-.113.116-.115 0 0 .115-.115.115 0 0-.115.117-.115 0 0-.115-.229 0-.229-.115.113-.116 0-.232.113-.116 0-.116.115-.116.115-.116h-.229c-.115-.114-.23-.114-.344-.114v-.116s-.115.116-.229 0c0 0 .113-.117 0-.117.113-.114.113-.23.113-.347h-.113c0 .463-.115.81-.115 1.274.115.578-.23 1.388-.23 1.968 0 .347-.113.694 0 1.042.115.694.346 1.388.23 2.198l.115-.116c0-.114.113-.23.113-.347.115-.116-.113-.231 0-.347-.113-.117 0-.231-.113-.463 0-.114.113-.231 0-.348-.115 0 0-.23-.115-.347.115-.23-.23-.348 0-.578 0-.116-.115-.232 0-.232-.115-.231.115-.461.115-.694.113.116.229.346.457.232 0-.116.115-.232.115-.349 0-.115-.115 0-.23-.115 0-.116-.113.115-.229-.116h.115l-.115-.116c0-.115.115 0 .229 0 .115-.115 0-.348.115-.461l.115.114c-.115.233.229.117.229.348 0 .116-.115.116-.115.116v.348c-.113.116-.113.232-.113.346.113.117.229.233.459.348 0 .116-.115.347 0 .463l.113.117v.577h.23v.811s-.23 0-.23.116c0 .231-.344.231-.344.347-.115 0-.229.117-.229 0v.117c0 .114-.115.114-.115.114-.115 0 0 .116 0 .116.115 0 .229.117.344.117h.115v.23c-.23 0-.344-.23-.574-.23-.113 0-.113-.117-.113-.233l-.115.116c-.113.117 0 .348-.113.464v-.347c0 .23 0 .577-.115.808 0 .117-.115.117 0 .233-.115 0-.115.116-.115.116-.115.347-.115.694-.344 1.042 0 .231-.23.463-.342.694.342.231.686.348.916.578.229.116.342.347.572.58 0 .116 0 .116.113.116 0-.116-.113-.232 0-.232 0-.231-.229-.231-.229-.464 0 0-.115 0-.115-.114v-.116s-.113 0-.113-.117v-.231-.116l.113-.114h.115s.115 0 .115-.116l.113.116c.115 0 .115-.116.23-.232v.116l-.23.23s-.113 0-.113.116c0 .231.344.348.344.578.229.116.229.347.344.347.115.117.115.349.115.463.344-.114.572.347.801 0 .115 0 .115.116.115.116 0 .116.115.116.115.116h.115c0 .115.113.115.113.115v.233c.115 0 .115.114.115.114-.115 0-.115 0 0 .117-.115 0 0 .116 0 .116.115.231 0 .347.115.578 0 .116 0 .232-.115.347V86.891h.115s0 .117-.115.117c0 0 0 .114.115.114 0 .117-.115.233 0 .348v.116c.113.116.113.23.113.347-.113.116-.113.116-.113.231 0 .232.113.463-.115.696 0 0 .115.114 0 .114.115.232-.115.463.115.58.113 0 .113.115.229 0v.115c-.115.232 0 .463-.115.696-.113.114 0 .114-.113.23.229.116 0 .347.229.464 0 0 .115.114.115 0 .229 0 .113-.117.229-.117.115.117.229.231.344.117.115 0 .115.114.115 0h.229c.115 0 .23-.117.23-.117.113.347.457 0 .688.117v-.117c.113-.116.229 0 .344 0h.115c-.115.117-.23 0-.346.117.23.114.459.347.689.463.113.114.113.114.229 0v.23c.115 0 .229.117.229 0h.115v.117c.115.114 0 .23 0 .347.115.114.229.114.229 0 .23 0 .346.231.459.114 0-.23.115-.23.344-.347.115 0 .115.233.344.117.115 0 .344-.117.344-.23v-.117c.115 0 .23 0 .23-.116h.115c.113 0 .229 0 .229-.114 0 0-.115-.116 0-.116h.115c.113.116.229 0 .229.116 0 .114 0 .114.115.114 0 .116-.115.116-.115.233.115.23.344 0 .459.114v.117c.113 0 .113.23.229.116.115-.116.23-.116.115-.233-.115-.114.115-.231-.115-.347-.115 0-.229 0-.229-.114.113 0 .344.114.459 0 .113-.232.113.114.344.114.113 0 .229 0 .229-.114-.115-.116.115-.349 0-.463-.115 0-.115 0-.115.114 0-.231-.229-.347-.229-.462 0-.116-.229-.116-.344-.116 0 0 0-.116-.115-.116 0-.114-.115 0-.229-.114-.115-.117-.23-.233-.459-.233 0-.114-.115-.347-.115-.347-.113 0-.113 0-.229-.116v.116c-.115 0-.229.116-.344.116 0 .116-.115.116-.115.116-.229 0-.459 0-.572-.116 0-.116 0-.232.113-.232.115.116.23-.115.344-.115.23.231.23-.116.459-.116.23-.231-.229-.347-.113-.463a.247.247 0 0 1-.23-.23c-.115 0-.229.116-.229 0 0 0-.115-.117-.115-.231h.229c0-.117 0 0 0 0v.114c.115 0 .23.233.346.117-.23-.117-.115-.231-.23-.348l.23-.116c0-.231.344 0 .344-.347h.344v.231c.229 0 .229-.348.457-.231v-.231c-.113 0-.113.114-.229.114-.115-.114-.115-.114 0-.23v.116c.115 0 .115-.116 0-.116h.115c.113.116.113 0 .229 0 0-.116 0-.23.115-.23-.115-.233-.23-.233-.344-.347-.115-.117-.115 0-.23 0v-.117h.115v-.116-.23c0-.117-.115-.233 0-.348-.115-.116-.229-.116-.344-.116 0-.116.115-.116.115-.23 0-.116.113-.232 0-.232 0-.231-.23-.347-.344-.347v-.231c.113.114.344.231.457.231.115 0 .23-.117.344-.231 0-.117.115-.117.115-.117v-.116c-.229 0-.115-.231-.229-.347-.115 0-.23 0-.23-.114v.114c-.113-.114-.229.116-.229.116 0-.116 0-.116-.115-.23h.115v-.116-.116h.115c0 .232.113 0 .229.116.115 0 .115 0 .115-.116.113-.117.344.116.572.116 0-.233-.113-.347 0-.464h.115c.115 0 .115-.116.115-.116.113-.114.113-.23.113-.347.23 0 .23-.115.459-.231v-.126h-.573c0-.114-.115-.114-.115-.23-.115-.116-.115-.23-.115-.23-.344.114-.229-.349-.344-.349-.229.116-.229-.115-.459 0v-.231h.459c.115.116.115.116.23 0h.113c-.113 0-.113.116-.113.116 0 .115.229.115.229.231h.115c.229 0 .229.233.344.233.344-.233.688-.233 1.031-.349.115.116.227-.115.344 0 0-.115 0-.115-.117-.231-.227 0 .117-.117.117-.231v.114l.229-.114c0-.117.113 0 .23-.117-.117 0-.344-.116-.344-.116-.115-.114-.115 0-.115 0-.117-.114 0-.23 0-.23.229-.116.115-.233.229-.347v-.233h-.229s.115-.114 0-.114l-.117.114h-.227v-.114h-.115v-.347c.115.114.115.114.115 0h.344v-.117c.115 0 .115 0 .229-.116h.23c.229 0 .115.116.229.233l.115-.117c-.115.117 0 .231.113.348.115.116.23.23.23.116v-.116c0-.116 0 0 .115 0v-.116c-.115-.114-.115-.231-.115-.348h.115s.111-.114.111-.23c.461 0 .117-.347.344-.58-.111-.114-.111-.578-.111-.809h.111c0-.232-.111-.58-.111-.811 0-.232-.344-.463-.115-.58-.117-.346.227-.463.344-.578.113-.116.113-.232.229-.347h.23c-.117-.233.115-.233 0-.347 0-.117.115-.117.115-.117h.113s.115 0 0-.116h-.113v-.23s.113 0 .113.116h.342c0-.116.115 0 .115 0 0 .114 0 .114.117.23.111 0 0 0 .111-.116v.116s.115 0 .115.117c-.227 0-.227.23-.344.347 0 0-.115 0-.115.115.115 0 .115-.115.115-.115.117.115.117.231.117.347h-.232c-.113 0-.113-.116 0-.116v-.116h-.227c.113.232-.115.116-.229.232 0 0-.115-.116-.115 0 0 .115.115.115.115.115 0 .117 0 .233.113.233 0 .116.115.116.229.116.113-.116.113-.116.113-.232.115 0 .232.116.344.232.115 0 .115-.116.23-.116 0 .116-.115.23-.115.347h-.115c0-.117-.111 0-.111 0 .111.117.111.463.227.578.115-.114.23-.114.23-.114 0-.116.115-.232 0-.347.115-.117 0-.233-.115-.347 0-.116.115-.232.23-.349.113 0 .113-.231.113-.231.115-.116.229-.116.229-.231.117.231.23 0 .344.115.115.232 0 .347 0 .464-.113 0-.113 0-.227-.117v.117c0 .116.113.232.227.346 0 .117 0 .117.115.233.229 0 .229-.347.344-.463 0-.233 0-.348.115-.58 0-.115.115-.231.229-.231.115 0 .115-.117.23-.117 0-.114.113-.23.113-.347l.23-.23c.113-.117.113-.233.229-.347 0-.116 0-.348.115-.58v-.347c.113-.23.229-.114.229-.23-.107-.119.008-.35-.22-.35zm-17.078 8.218c-.115.231.113.348 0 .579 0 .116 0 .232-.115.349-.115 0 0 .114-.115.114-.115.116-.229 0-.229 0-.23-.114 0-.347-.115-.463.115-.115 0-.115 0-.231.115-.231 0-.464.115-.694 0-.116.113-.116.113-.233h.115s-.115-.114 0-.114.23.231.459.231v.116c-.115.115 0 .346-.228.346zM173.426 83.645c.115-.114 0-.114 0-.23 0 0-.117-.231-.23-.348h.113c-.113-.116 0-.116-.113-.23l-.113-.116h.113l-.113-.116v.116l-.115-.116c0-.114 0-.114.115-.231-.115 0-.232 0-.232-.116.117-.116.232-.464.117-.695v-.347h-.117c0-.233 0-.58-.111-.694 0-.116-.115-.232-.115-.347v-.235-.114h-.115c.115-.117.23-.349.23-.464v-.116c0-.117.229-.231.344-.347.113-.116.113-.23.227-.347h-.113c-.113-.231-.346-.231-.457-.463-.23-.23-.689-.116-.918-.23l-.459-.348h-.344c-.344.114-.803.23-.916.462-.344.232-.803.58-1.031.811-.115 0-.23.116-.346.232-.229.114-.344.231-.572.231v.116c.115.115 0 .231.115.347.113-.116.113.23.229.23.344.116.115.464.344.58.23.23-.115.347-.115.578-.229-.231-.229.116-.344.116l-.113.116-.115.347c.115.114-.115.231 0 .231s.229.116.229.231c0 0 0 .116-.113.116 0 0 0-.231-.115-.116-.115.116 0 .349-.115.58-.113-.116 0-.116-.229-.23 0 0 0-.233-.115-.233 0-.116-.115-.231-.115-.231v.115c0 .116-.113 0-.229.116-.115-.116-.344.116-.572 0 0-.116.113-.116.113-.116.115-.115.23-.115.344-.115.115-.116.344.115.344-.116 0-.117-.113-.117-.113-.231-.115 0 0-.117 0 0 .229-.117 0-.233 0-.347v-.349c0-.114-.115-.231-.115-.347-.115-.114-.115-.23-.115-.23-.229 0-.229-.23-.229-.23l-.115-.117.115-.116h.229c0-.114 0-.23.115-.114-.115 0 0 .114 0 .23h.115s.229 0 .113-.116c0-.23 0-.347.115-.463.115 0 .115.116.115.116l.115-.116-.115-.231c-.23-.117-.23.116-.344.231-.115 0-.344 0-.344.116-.115 0-.344-.116-.459-.116s-.115-.115-.115-.115c-.113 0-.229.115-.344.115-.344-.115-.688-.115-1.031-.231-.115-.231-.459-.117-.574-.347 0 0 0-.116-.113-.116.113.116.113.232.113.347.115 0 .115.233.23.117.229.231.459.116.688.231.229-.115.344.116.572.232.115.23-.113.464-.113.811 0 0 0 .114-.115.114 0 .116-.115 0-.229 0-.115 0-.23.233-.344.233-.115 0-.115-.117-.115-.117-.115-.116-.115-.116-.229-.116v.116c.113 0 .113.117.229.231-.115.233-.115.58-.459.811 0 0-.115 0-.115.117v-.117h-.113v.117l-.115.116c-.115 0-.115-.116-.229-.116-.115-.231-.115.116-.23.116 0 0-.113-.116-.113-.233h.113l-.113-.114c-.115.114-.344 0-.574.231-.115 0-.229.116-.344 0-.229-.231-.459-.117-.688-.231-.115.114-.344.114-.459.114l.344.233c.115-.116.23.115.344 0 .23 0 .23.231.344.347l.344.347v-.116c.115 0 .23.116.23.116 0 .116-.115.116-.115.116l-.115-.116c0 .116-.113.116-.113.116-.23-.116-.574 0-.803-.232v.116c.115.116.229.116.344.116.229 0 .459.23.688.347 0 .348.459.809.344 1.042-.113.116-.229 0-.344.116-.229-.232-.115.114-.229.114l.229.116c.115 0 .115-.116.23-.116l.113.116c.23.116.23.695.344.811 0 .116 0 .231-.113.231l.113.232c.115 0 0 .114 0 .114-.113.116-.457.232-.457.463-.115 0-.115-.117-.115-.117.115-.114-.115 0-.115-.114 0 .114-.115.231-.115.348.115 0 .346.114.23.23.115 0 .229.116.344.233h.115c.113.114.229.347.344.461-.115.232 0 .232.113.232 0 0 .115-.116.115 0v.231c-.115 0-.229-.117-.344-.231 0 .114.115.347 0 .347.115.115.115.231.229.231.115-.116.115 0 .23.116h.229l-.115-.116s-.113-.116 0-.116l.115.116v-.231s.115-.116.115 0h.459c.113 0 .229.115.229.115.115 0 .115.116.229.116h.23c.113.116.229.116.344.233.115-.117.229.114.344.114.115.117.344.233.344.348.115-.114-.229-.23-.115-.348h-.113c0-.114.113-.463.344-.463l.113.116c.115.116.115.116 0 .233.23.114-.113.114-.113.231.113.23.229 0 .344.116h.229v.114h.115s.115.116 0 .116c0 .116 0 .116-.115 0v.116-.116l-.229.116c0 .115-.115.115-.115 0-.115 0-.115-.116-.115 0-.229.115.115.231.115.347 0 0 .115 0 .115.115h-.115v.116c.115 0 .229.116.229 0 0 0-.113 0-.113-.116h.113c.23.116.115.349.346.463 0 0 0 .116-.115.116-.115-.116-.344-.23-.459-.347-.115.116-.229-.116-.344 0 .115 0 .229.116.229.116.344.114.574.348.689.462.113.232.344.232.457.347l.115-.115h-.115c.115-.116.23 0 .344 0 0 .115.115.231.23.348h.115c0 .114 0 .114.113.114.23 0 .344 0 .459-.114-.115-.117.115 0 .115-.233h.113c.115 0 .23 0 .344-.115-.113-.116-.229-.232-.229-.347v-.117l-.115-.116-.113-.347c.113-.116.113.116.229 0 .229.232 0-.116.229-.116-.113-.115.115-.231 0-.347-.113 0-.113-.115-.229-.115 0 0-.115-.116-.115 0-.113.115-.229 0-.344 0-.113 0-.229.115-.229 0v-.116c0-.116-.115-.23-.115-.347.23 0 .459-.117.459-.117v.117c0 .116-.115.23 0 .347 0 .116.115 0 .115 0v-.464c.229-.114.113-.347.344-.347 0-.231.229-.116.344-.231.113-.116.229-.116.344-.116.229-.117.229 0 .344 0s.229.116.229.116c0-.233.229-.233.344-.233 0-.114 0-.114.115-.114 0-.232.229-.116.229-.232-.113-.23 0-.348 0-.578l-.113-.116c-.115-.23-.346-.464-.461-.694-.113.116-.342-.116-.457 0-.113-.116-.344-.23-.572-.347 0 0 0-.116-.115-.116 0-.231-.115-.578 0-.811.115-.115.344-.347.344-.578h.115s.115 0 .115-.116c.113-.231.457-.348.57-.348v-.116c.23-.114.346-.114.461-.114h.229c0 .114.115 0 .115 0 .115 0 .115-.116.115-.116v-.117c.113-.461.344-.578.455-.578l-.342.694c0 .116 0 .116-.113.347.113 0 0 .117 0 .117.113.114.113.231.113.231.115.116.459.116.459.232.115-.116.229-.232.229-.349.113 0 .23 0 .346-.114-.011.001-.011-.115-.126-.231zm-6.535-3.818c0 .114-.113.114-.113.114v-.114c-.115 0-.115-.117-.115-.117v-.116c.115.116.115.116.115.233h.113zm6.304 3.934c-.113 0 0 .231-.113.231-.115.117-.232 0-.344 0h.229c.115 0 0-.231.115-.231.113 0 .227-.116.227-.116s0 .116-.114.116z" fill-rule="evenodd" clip-rule="evenodd"/><path d="M167.693 81.445v.233c0 .114.23.114.23.231 0 0 .113 0 .113-.117.115-.114.115-.347.115-.461l-.115-.232c-.113.116 0 .232-.113.347-.114-.115-.114.116-.23-.001z" fill-rule="evenodd" clip-rule="evenodd"/></svg>