<svg height="500" viewBox="22.4 19.2 854.6 143.8" width="2500" xmlns="http://www.w3.org/2000/svg"><path d="m222.5 22c-13.2 1.3-30.7 8.2-40.8 16.3-8.6 6.7-18 18.2-21.5 26.2-4.3 9.5-5.4 15.1-5.5 27-.1 14.3 1.9 22 8.6 33.3 14.1 23.7 39.8 37.6 69.7 37.7 25 0 45.6-8.6 61.8-25.9 9.7-10.4 15-21.6 17.2-36.8 1.1-7.2 1-9.8-.4-18.2-.9-5.3-2-10.5-2.5-11.4s-1.9-3.9-3.2-6.5c-4.3-8.8-5-9.8-11.7-16.9-18-19.1-42.5-27.6-71.7-24.8zm22.7 25.6c17.6 4.4 31.5 16.2 37.1 31.4 2.3 6.1 2.3 19.9 0 26-3.9 10.6-13.6 21.6-22.6 25.8-12.7 6-11.4 5.7-26.7 5.7l-14.5-.1-7.8-3.7c-19.4-9.1-31.4-29.4-27.8-46.9 2.4-12 8.1-21.1 17.4-28.1 13.5-10.2 29.9-13.9 44.9-10.1zm367.3-25.6c-12.2 1.2-32.6 9-38.2 14.6-.8.7-1.7 1.4-2.1 1.4-1.1 0-10.4 9.1-13.8 13.5-4.1 5.2-8.4 13.4-11.4 21.3-2 5.5-2.3 8.2-2.3 19 .1 11 .4 13.7 2.6 20 4.1 11.6 8.3 18 18.1 27.7 12 11.8 22.7 17.4 41.1 21.6 7.7 1.8 26.2 1.8 34 .1 24.2-5.5 43.6-19.1 53.9-37.6 5.9-10.8 6.1-10.6-10.4-10.6h-14.1l-7.7 7.9c-5.5 5.6-9.4 8.6-13.7 10.6-3.3 1.4-7.1 3.2-8.4 3.8-1.5.8-7.8 1.2-17 1.2l-14.6-.1-7.8-3.7c-8.8-4.1-19.8-14.1-23.4-21.2-2.4-4.7-5.3-15.4-5.3-19.7 0-3.5 2.5-12.8 4.7-17.8 7.1-15.6 27.8-28 46.8-28 15.1 0 32.6 8.5 41.8 20.2l3.7 4.8h14c17.6 0 17.4.2 10.7-11.7-3.6-6.3-7.6-11.3-12.8-16.1-18.4-16.7-41.3-23.8-68.4-21.2zm174.5 0c-4.1.4-10.2 1.5-13.4 2.4-9.2 2.5-23.4 9.9-30.6 15.8-5.8 4.9-13.4 13.7-15.3 17.8-.4.8-1.5 2.8-2.5 4.5-6.8 11-8.8 34-4.3 48.2 5.9 18.7 18.7 33.4 37 42.4 11 5.5 11.2 5.5 20.1 7.6 9.2 2.1 28.1 2.3 36.5.4 27.8-6.2 49.4-23.4 57.8-46.1 2.1-5.7 4.7-18.4 4.7-22.9 0-13.3-8-33.3-17.5-43.9-6.5-7.2-17.1-15.1-24-18.1-2.7-1.2-5.8-2.6-6.7-3.1-1.7-.9-4.6-1.8-13.3-3.8-5.9-1.4-19.9-2-28.5-1.2zm22 25.5c9.5 2.3 18.6 7.2 25.6 14 10 9.7 13.8 19.1 13.2 32.4-.2 7.1-.8 9.7-3.4 15.1-5.4 11.3-14.8 19.8-27.8 25.3-7.2 3-30.5 3.2-38.1.3-19.7-7.6-33.5-26.6-32.3-44.4 2-28.6 32.9-49.6 62.8-42.7zm-784.8-24.3c-1.8 1.8-1.6 21.2.2 22.7 1 .8 8.5 1.1 25.1 1.1 13-.1 24 .2 24.3.5.4.4.9 25.9 1.2 56.8l.5 56.2h23l.3-55.4c.1-38.9.5-55.8 1.3-56.8.9-1 6.1-1.3 24.1-1.3 13.9 0 23.7-.4 24.9-1 1.7-1 1.9-2.2 1.9-11.9 0-10.4-.1-10.9-2.2-11.5-1.3-.3-29.5-.6-62.9-.6-45.7 0-60.8.3-61.7 1.2zm308-.4c-1 .7-1.2 15.1-1.2 68.7 0 37.3.4 68.3.8 68.7.5.5 5.8.7 11.8.6l10.9-.3.3-23.6.2-23.7 4.4-3.8c6.1-5.3 14.6-11.9 17.4-13.3 1.9-1 2.5-.8 4.5 1.1 2.5 2.7 19.8 21.5 27.8 30.2 3 3.3 6.1 6.7 6.9 7.5.8.9 5.5 6.1 10.5 11.6 14.2 15.9 11.7 14.5 26.1 14.5 9.3 0 12.4-.3 12.4-1.3 0-1.2-1-2.3-19.4-22.2-5.6-6.1-12.2-13.2-14.7-16-2.4-2.7-4.8-5.5-5.4-6.1-1.3-1.5-20.6-22.3-22.5-24.4-4.7-5-6.9-8.2-6.3-9.6.3-.8 4-4 8.2-7.2 4.2-3.1 8.3-6.3 9.1-6.9.8-.7 10.5-8.2 21.6-16.5 11-8.4 21.4-16.4 23.1-17.8 1.8-1.4 4.8-3.8 6.7-5.4 2-1.5 3.6-3.2 3.6-3.7 0-1.4-36.7-1.1-39.2.2-2.1 1.1-19.9 14.5-26.8 20.1-1.9 1.6-3.9 3.2-4.5 3.6-.5.4-10.1 7.7-21.2 16.1s-20.7 15-21.3 14.6-1-10.1-1-27.9v-27.4l-2.2-.6c-3.4-.9-19.1-.7-20.6.2zm160.6.3c-1.7.9-1.8 5.3-1.8 68.2 0 37 .4 67.7.8 68.4.6 1 13.6 1.8 22 1.4 1-.1 1.2-14.3 1-69.3l-.3-69.3-10-.2c-5.6-.2-10.8.2-11.7.8z" fill="#c22d2d"/></svg>