<?xml version="1.0" encoding="UTF-8" standalone="no"?>
<!-- Created with Inkscape (http://www.inkscape.org/) -->

<svg
   xmlns:dc="http://purl.org/dc/elements/1.1/"
   xmlns:cc="http://creativecommons.org/ns#"
   xmlns:rdf="http://www.w3.org/1999/02/22-rdf-syntax-ns#"
   xmlns:svg="http://www.w3.org/2000/svg"
   xmlns="http://www.w3.org/2000/svg"
   xmlns:sodipodi="http://sodipodi.sourceforge.net/DTD/sodipodi-0.dtd"
   xmlns:inkscape="http://www.inkscape.org/namespaces/inkscape"
   width="215.46164mm"
   height="213.5094mm"
   viewBox="0 0 215.46164 213.5094"
   version="1.1"
   id="svg5527"
   inkscape:version="0.91 r13725"
   sodipodi:docname="wallet-cash.svg">
  <defs
     id="defs5521" />
  <sodipodi:namedview
     id="base"
     pagecolor="#ffffff"
     bordercolor="#666666"
     borderopacity="1.0"
     inkscape:pageopacity="0.0"
     inkscape:pageshadow="2"
     inkscape:zoom="0.75785828"
     inkscape:cx="119.59579"
     inkscape:cy="373.00035"
     inkscape:document-units="mm"
     inkscape:current-layer="layer1"
     showgrid="false"
     inkscape:snap-global="false"
     inkscape:window-width="1916"
     inkscape:window-height="1035"
     inkscape:window-x="4"
     inkscape:window-y="1"
     inkscape:window-maximized="1"
     fit-margin-top="0"
     fit-margin-left="0"
     fit-margin-right="0"
     fit-margin-bottom="0" />
  <metadata
     id="metadata5524">
    <rdf:RDF>
      <cc:Work
         rdf:about="">
        <dc:format>image/svg+xml</dc:format>
        <dc:type
           rdf:resource="http://purl.org/dc/dcmitype/StillImage" />
        <dc:title></dc:title>
      </cc:Work>
    </rdf:RDF>
  </metadata>
  <g
     inkscape:label="Layer 1"
     inkscape:groupmode="layer"
     id="layer1"
     transform="translate(-14.353408,-5.7314915)">
    <g
       id="g10139">
      <g
         inkscape:export-ydpi="323.01001"
         inkscape:export-xdpi="323.01001"
         transform="matrix(0.09067338,0.03279326,-0.03367499,0.08829923,116.16868,-387.32774)"
         id="g6047">
        <rect
           y="3964.5227"
           x="1632.0381"
           height="888.01355"
           width="571.4823"
           id="rect6035"
           style="opacity:1;fill:#eef4d7;fill-opacity:1;stroke:#1d1f51;stroke-width:12;stroke-linecap:round;stroke-linejoin:round;stroke-miterlimit:4;stroke-dasharray:none;stroke-dashoffset:139.54022217;stroke-opacity:1;paint-order:fill markers stroke" />
        <rect
           style="opacity:1;fill:#eef4d7;fill-opacity:1;stroke:none;stroke-width:15.18700886;stroke-linecap:round;stroke-linejoin:round;stroke-miterlimit:4;stroke-dasharray:none;stroke-dashoffset:139.54022217;stroke-opacity:1;paint-order:fill markers stroke"
           id="rect6037"
           width="494.81445"
           height="807.93927"
           x="1670.3719"
           y="4006.0544" />
        <path
           sodipodi:nodetypes="ccccccccccccccccccc"
           inkscape:connector-curvature="0"
           id="path6039"
           d="m 1670.3719,4006.0552 0,169.3829 0,469.1726 0,169.3826 494.8155,0 0,-169.3826 0,-469.1726 0,-169.3829 -169.3583,0 z m 158.0906,33.7412 178.6343,0 c 18.3766,48.1435 72.2536,85.453 121.1963,101.5808 l 0,540.2841 c -48.9427,16.1278 -102.8197,53.4373 -121.1963,101.5804 l -178.6343,0 c -18.3767,-48.1431 -70.1394,-85.4526 -119.082,-101.5804 l 0,-540.2841 c 48.9426,-16.1278 100.7053,-53.4373 119.082,-101.5808 z"
           style="opacity:1;fill:#71c837;fill-opacity:1;stroke:none;stroke-width:8;stroke-linecap:round;stroke-linejoin:round;stroke-miterlimit:4;stroke-dasharray:none;stroke-dashoffset:139.54022217;stroke-opacity:1;paint-order:fill markers stroke" />
        <circle
           r="112.07307"
           cy="4410.0244"
           cx="1917.7798"
           id="circle6041"
           style="opacity:1;fill:#71c837;fill-opacity:1;stroke:none;stroke-width:8;stroke-linecap:round;stroke-linejoin:round;stroke-miterlimit:4;stroke-dasharray:none;stroke-dashoffset:139.54022217;stroke-opacity:1;paint-order:fill markers stroke" />
      </g>
      <g
         inkscape:export-ydpi="323.01001"
         inkscape:export-xdpi="323.01001"
         id="g6057"
         transform="matrix(0.07084785,0.06412596,-0.06585015,0.06899281,329.31569,-337.58301)">
        <rect
           style="opacity:1;fill:#eef4d7;fill-opacity:1;stroke:#1d1f51;stroke-width:12;stroke-linecap:round;stroke-linejoin:round;stroke-miterlimit:4;stroke-dasharray:none;stroke-dashoffset:139.54022217;stroke-opacity:1;paint-order:fill markers stroke"
           id="rect6049"
           width="571.4823"
           height="888.01355"
           x="1632.0381"
           y="3964.5227" />
        <rect
           y="4006.0544"
           x="1670.3719"
           height="807.93927"
           width="494.81445"
           id="rect6051"
           style="opacity:1;fill:#eef4d7;fill-opacity:1;stroke:none;stroke-width:15.18700886;stroke-linecap:round;stroke-linejoin:round;stroke-miterlimit:4;stroke-dasharray:none;stroke-dashoffset:139.54022217;stroke-opacity:1;paint-order:fill markers stroke" />
        <path
           style="opacity:1;fill:#71c837;fill-opacity:1;stroke:none;stroke-width:8;stroke-linecap:round;stroke-linejoin:round;stroke-miterlimit:4;stroke-dasharray:none;stroke-dashoffset:139.54022217;stroke-opacity:1;paint-order:fill markers stroke"
           d="m 1670.3719,4006.0552 0,169.3829 0,469.1726 0,169.3826 494.8155,0 0,-169.3826 0,-469.1726 0,-169.3829 -169.3583,0 z m 158.0906,33.7412 178.6343,0 c 18.3766,48.1435 72.2536,85.453 121.1963,101.5808 l 0,540.2841 c -48.9427,16.1278 -102.8197,53.4373 -121.1963,101.5804 l -178.6343,0 c -18.3767,-48.1431 -70.1394,-85.4526 -119.082,-101.5804 l 0,-540.2841 c 48.9426,-16.1278 100.7053,-53.4373 119.082,-101.5808 z"
           id="path6053"
           inkscape:connector-curvature="0"
           sodipodi:nodetypes="ccccccccccccccccccc" />
        <circle
           style="opacity:1;fill:#71c837;fill-opacity:1;stroke:none;stroke-width:8;stroke-linecap:round;stroke-linejoin:round;stroke-miterlimit:4;stroke-dasharray:none;stroke-dashoffset:139.54022217;stroke-opacity:1;paint-order:fill markers stroke"
           id="circle6055"
           cx="1917.7798"
           cy="4410.0244"
           r="112.07307" />
      </g>
      <g
         inkscape:export-ydpi="323.01001"
         inkscape:export-xdpi="323.01001"
         transform="matrix(0.0630685,0,0,0.06141714,154.76871,-230.66565)"
         id="g6033">
        <circle
           r="266.58041"
           cy="5346.5718"
           cx="871.47382"
           id="circle6000"
           style="opacity:1;fill:#febd01;fill-opacity:1;stroke:#1d1f51;stroke-width:11.86872196;stroke-linecap:round;stroke-linejoin:round;stroke-miterlimit:4;stroke-dasharray:none;stroke-dashoffset:139.54022217;stroke-opacity:1;paint-order:fill markers stroke" />
        <path
           inkscape:connector-curvature="0"
           id="path6002"
           d="m 661.71049,5301.726 a 214.60552,214.60552 0 0 0 -11.32909,68.1985 214.60552,214.60552 0 0 0 214.60545,214.6059 214.60552,214.60552 0 0 0 209.76335,-169.7602 214.60552,214.60552 0 0 1 -203.27649,146.4075 214.60552,214.60552 0 0 1 -214.60545,-214.6059 214.60552,214.60552 0 0 1 4.84223,-44.8458 z"
           style="opacity:0.37099998;fill:#936d01;fill-opacity:1;stroke:none;stroke-width:11.8685503;stroke-linecap:round;stroke-linejoin:round;stroke-miterlimit:4;stroke-dasharray:none;stroke-dashoffset:139.54022217;stroke-opacity:1;paint-order:fill markers stroke" />
        <circle
           style="opacity:1;fill:#febd01;fill-opacity:1;stroke:#1d1f51;stroke-width:11.8685503;stroke-linecap:round;stroke-linejoin:round;stroke-miterlimit:4;stroke-dasharray:none;stroke-dashoffset:139.54022217;stroke-opacity:1;paint-order:fill markers stroke"
           id="circle6004"
           cx="871.47382"
           cy="5346.5718"
           r="214.60553" />
        <text
           xml:space="preserve"
           style="font-style:normal;font-weight:normal;font-size:327.55618286px;line-height:1.25;font-family:sans-serif;letter-spacing:0px;word-spacing:0px;opacity:0.52399998;fill:#e2a801;fill-opacity:1;stroke:none;stroke-width:15.25274658;stroke-miterlimit:4;stroke-dasharray:none;stroke-opacity:1"
           x="755.80029"
           y="5443.979"
           id="text6008"><tspan
             sodipodi:role="line"
             id="tspan6006"
             x="755.80029"
             y="5443.979"
             style="fill:#e2a801;fill-opacity:1;stroke:none;stroke-width:15.25274658;stroke-miterlimit:4;stroke-dasharray:none;stroke-opacity:1">$</tspan></text>
        <text
           id="text6012"
           y="5434.8052"
           x="764.97424"
           style="font-style:normal;font-weight:normal;font-size:327.55618286px;line-height:1.25;font-family:sans-serif;letter-spacing:0px;word-spacing:0px;fill:#fff6d5;fill-opacity:1;stroke:none;stroke-width:15.25274658;stroke-miterlimit:4;stroke-dasharray:none;stroke-opacity:1"
           xml:space="preserve"><tspan
             style="fill:#fff6d5;fill-opacity:1;stroke:none;stroke-width:15.25274658;stroke-miterlimit:4;stroke-dasharray:none;stroke-opacity:1"
             y="5434.8052"
             x="764.97424"
             id="tspan6010"
             sodipodi:role="line">$</tspan></text>
        <path
           inkscape:connector-curvature="0"
           id="path6014"
           d="m 871.47371,5131.9665 a 214.60552,214.60552 0 0 0 -209.52252,168.8161 214.60552,214.60552 0 0 1 199.1434,-135.0844 214.60552,214.60552 0 0 1 214.60541,214.6057 214.60552,214.60552 0 0 1 -5.0829,45.7887 214.60552,214.60552 0 0 0 15.462,-79.5208 214.60552,214.60552 0 0 0 -214.60539,-214.6053 z"
           style="opacity:0.33300003;fill:#fff6d5;fill-opacity:1;stroke:none;stroke-width:11.8685503;stroke-linecap:round;stroke-linejoin:round;stroke-miterlimit:4;stroke-dasharray:none;stroke-dashoffset:139.54022217;stroke-opacity:1;paint-order:fill markers stroke" />
        <circle
           r="214.60553"
           cy="5346.5718"
           cx="871.47382"
           id="circle6016"
           style="opacity:1;fill:none;fill-opacity:1;stroke:#1d1f51;stroke-width:6.27642632;stroke-linecap:round;stroke-linejoin:round;stroke-miterlimit:4;stroke-dasharray:none;stroke-dashoffset:139.54022217;stroke-opacity:1;paint-order:fill markers stroke" />
        <path
           inkscape:connector-curvature="0"
           id="path6018"
           d="m 871.47374,5079.9915 a 266.5804,266.5804 0 0 0 -258.1245,201.3154 266.5804,266.5804 0 0 1 251.28551,-178.5187 266.5804,266.5804 0 0 1 266.58065,266.5806 266.5804,266.5804 0 0 1 -8.4554,65.2648 266.5804,266.5804 0 0 0 15.2944,-88.0622 266.5804,266.5804 0 0 0 -266.58066,-266.5799 z"
           style="opacity:1;fill:#fed048;fill-opacity:1;stroke:none;stroke-width:11.86872196;stroke-linecap:round;stroke-linejoin:round;stroke-miterlimit:4;stroke-dasharray:none;stroke-dashoffset:139.54022217;stroke-opacity:1;paint-order:fill markers stroke" />
        <circle
           style="opacity:1;fill:none;fill-opacity:1;stroke:#1d1f51;stroke-width:11.86872196;stroke-linecap:round;stroke-linejoin:round;stroke-miterlimit:4;stroke-dasharray:none;stroke-dashoffset:139.54022217;stroke-opacity:1;paint-order:fill markers stroke"
           id="circle6020"
           cx="871.47382"
           cy="5346.5718"
           r="266.58041" />
      </g>
      <g
         inkscape:export-ydpi="323.01001"
         inkscape:export-xdpi="323.01001"
         transform="matrix(0.0947366,-0.01899933,0.01951018,0.09225605,-157.00443,-317.58916)"
         id="g6067">
        <rect
           y="3964.5227"
           x="1632.0381"
           height="888.01355"
           width="571.4823"
           id="rect6059"
           style="opacity:1;fill:#eef4d7;fill-opacity:1;stroke:#1d1f51;stroke-width:12;stroke-linecap:round;stroke-linejoin:round;stroke-miterlimit:4;stroke-dasharray:none;stroke-dashoffset:139.54022217;stroke-opacity:1;paint-order:fill markers stroke" />
        <rect
           style="opacity:1;fill:#eef4d7;fill-opacity:1;stroke:none;stroke-width:15.18700886;stroke-linecap:round;stroke-linejoin:round;stroke-miterlimit:4;stroke-dasharray:none;stroke-dashoffset:139.54022217;stroke-opacity:1;paint-order:fill markers stroke"
           id="rect6061"
           width="494.81445"
           height="807.93927"
           x="1670.3719"
           y="4006.0544" />
        <path
           sodipodi:nodetypes="ccccccccccccccccccc"
           inkscape:connector-curvature="0"
           id="path6063"
           d="m 1670.3719,4006.0552 0,169.3829 0,469.1726 0,169.3826 494.8155,0 0,-169.3826 0,-469.1726 0,-169.3829 -169.3583,0 z m 158.0906,33.7412 178.6343,0 c 18.3766,48.1435 72.2536,85.453 121.1963,101.5808 l 0,540.2841 c -48.9427,16.1278 -102.8197,53.4373 -121.1963,101.5804 l -178.6343,0 c -18.3767,-48.1431 -70.1394,-85.4526 -119.082,-101.5804 l 0,-540.2841 c 48.9426,-16.1278 100.7053,-53.4373 119.082,-101.5808 z"
           style="opacity:1;fill:#71c837;fill-opacity:1;stroke:none;stroke-width:8;stroke-linecap:round;stroke-linejoin:round;stroke-miterlimit:4;stroke-dasharray:none;stroke-dashoffset:139.54022217;stroke-opacity:1;paint-order:fill markers stroke" />
        <circle
           r="112.07307"
           cy="4410.0244"
           cx="1917.7798"
           id="circle6065"
           style="opacity:1;fill:#71c837;fill-opacity:1;stroke:none;stroke-width:8;stroke-linecap:round;stroke-linejoin:round;stroke-miterlimit:4;stroke-dasharray:none;stroke-dashoffset:139.54022217;stroke-opacity:1;paint-order:fill markers stroke" />
      </g>
      <g
         inkscape:export-ydpi="323.01001"
         inkscape:export-xdpi="323.01001"
         transform="matrix(0.04218694,-0.0115171,0.01182676,0.04108234,153.43114,-373.08777)"
         id="g5913">
        <rect
           style="opacity:1;fill:#3796c8;fill-opacity:1;stroke:#1d1f51;stroke-width:38.89856339;stroke-linecap:round;stroke-linejoin:round;stroke-miterlimit:4;stroke-dasharray:none;stroke-dashoffset:139.54022217;stroke-opacity:1;paint-order:fill markers stroke"
           id="rect4569"
           width="2733.7698"
           height="3251.7473"
           x="-9884.0273"
           y="6587.0225"
           rx="100.34936"
           ry="100.34936"
           transform="matrix(0.90594422,-0.42339705,0.42339705,0.90594422,0,0)" />
        <rect
           ry="90.337616"
           rx="90.337616"
           y="6749.2344"
           x="-9747.6543"
           height="2927.3245"
           width="2461.0249"
           id="rect4700"
           style="opacity:1;fill:none;fill-opacity:1;stroke:#1d1f51;stroke-width:25.93237686;stroke-linecap:round;stroke-linejoin:round;stroke-miterlimit:4;stroke-dasharray:77.79713058, 77.79713058;stroke-dashoffset:0;stroke-opacity:1;paint-order:fill markers stroke"
           transform="matrix(0.90594422,-0.42339705,0.42339705,0.90594422,0,0)" />
        <path
           style="opacity:0.24100001;fill:#241f1c;fill-opacity:1;stroke:#241c1c;stroke-width:30.47597885;stroke-linecap:round;stroke-linejoin:round;stroke-miterlimit:4;stroke-dasharray:none;stroke-dashoffset:139.54022217;stroke-opacity:1;paint-order:fill markers stroke"
           d="m -4066.7774,10582 c -196.5914,91.879 -280.8918,324.11 -189.0137,520.703 91.8781,196.59 324.11,280.886 520.7014,189.011 l 489.1916,-228.626 229.7434,-107.373 213.7943,-99.918 -331.6881,-709.714 -213.794,99.918 -229.7437,107.373 z"
           id="path4811"
           inkscape:connector-curvature="0" />
        <rect
           style="opacity:0.228;fill:none;fill-opacity:1;stroke:#241c1c;stroke-width:31.43938255;stroke-linecap:round;stroke-linejoin:round;stroke-miterlimit:4;stroke-dasharray:94.31815013, 94.31815013;stroke-dashoffset:0;stroke-opacity:1;paint-order:fill markers stroke"
           id="rect4809"
           width="2461.0249"
           height="2927.3245"
           x="-9747.6543"
           y="6776.3237"
           rx="90.337616"
           ry="90.337616"
           transform="matrix(0.90594422,-0.42339705,0.42339705,0.90594422,0,0)" />
        <path
           style="opacity:1;fill:#5aa8d2;fill-opacity:1;stroke:#1d1f51;stroke-width:38.89856339;stroke-linecap:round;stroke-linejoin:round;stroke-miterlimit:4;stroke-dasharray:none;stroke-dashoffset:139.54022217;stroke-opacity:1;paint-order:fill markers stroke"
           d="m -3123.7942,10036.629 c 63.8277,-29.828 139.2296,-2.46 169.0603,61.369 l 111.9977,239.641 111.9977,239.645 c 29.8307,63.829 2.4594,139.231 -61.3683,169.059 l -239.6514,112.002 -229.7424,107.373 -489.1932,228.627 c -196.5915,91.875 -428.8217,7.575 -520.6998,-189.015 -91.8781,-196.593 -7.5791,-428.821 189.0123,-520.699 l 489.1933,-228.627 229.7423,-107.373 z"
           id="rect4571"
           inkscape:connector-curvature="0" />
        <ellipse
           cy="8188.5605"
           cx="-8116.3779"
           id="circle4807"
           style="opacity:0.344;fill:#241f1c;fill-opacity:1;stroke:#241c1c;stroke-width:18.04813957;stroke-linecap:round;stroke-linejoin:round;stroke-miterlimit:4;stroke-dasharray:none;stroke-dashoffset:139.54022217;stroke-opacity:1;paint-order:fill markers stroke"
           rx="198.96324"
           ry="196.70566"
           transform="matrix(0.90594422,-0.42339705,0.42339705,0.90594422,0,0)" />
        <circle
           style="opacity:1;fill:#c8c4b7;fill-opacity:1;stroke:#1d1f51;stroke-width:19.03329086;stroke-linecap:round;stroke-linejoin:round;stroke-miterlimit:4;stroke-dasharray:none;stroke-dashoffset:139.54022217;stroke-opacity:1;paint-order:fill markers stroke"
           id="path4579"
           cx="-8106.2192"
           cy="8144.5366"
           r="208.62978"
           transform="matrix(0.90594422,-0.42339705,0.42339705,0.90594422,0,0)" />
        <circle
           r="153.46024"
           cy="8144.5366"
           cx="-8106.2192"
           id="circle4702"
           style="opacity:1;fill:#e3e2db;fill-opacity:1;stroke:#1d1f51;stroke-width:14.00017452;stroke-linecap:round;stroke-linejoin:round;stroke-miterlimit:4;stroke-dasharray:none;stroke-dashoffset:139.54022217;stroke-opacity:1;paint-order:fill markers stroke"
           transform="matrix(0.90594422,-0.42339705,0.42339705,0.90594422,0,0)" />
        <path
           inkscape:connector-curvature="0"
           id="path4714"
           d="m -3145.6056,10139.788 c 56.7209,-26.509 121.3937,-7.18 145.0045,43.343 l 88.6456,189.673 88.6456,189.676 c 23.6108,50.519 -3.0461,112.533 -59.7673,139.043 l -212.9671,99.531 -204.162,95.415 -434.7236,203.171 c -174.7022,81.648 -373.8884,22.11 -446.6093,-133.491 -72.7209,-155.6 9.3788,-346.595 184.0806,-428.244 l 434.7239,-203.17 204.1617,-95.415 z"
           style="opacity:1;fill:none;fill-opacity:1;stroke:#1d1f51;stroke-width:25.55924034;stroke-linecap:round;stroke-linejoin:round;stroke-miterlimit:4;stroke-dasharray:102.23696747, 102.23696747;stroke-dashoffset:0;stroke-opacity:1;paint-order:fill markers stroke" />
        <path
           style="opacity:0.303;fill:#241f1c;fill-opacity:1;stroke:#241c1c;stroke-width:30.47597885;stroke-linecap:round;stroke-linejoin:round;stroke-miterlimit:4;stroke-dasharray:none;stroke-dashoffset:139.54022217;stroke-opacity:1;paint-order:fill markers stroke"
           d="m -6122.9028,10157.954 c -12.2598,26.017 -13.2456,57.09 -0.061,85.301 l 1291.8038,2764.077 c 23.5382,50.364 83.0342,71.959 133.3991,48.422 l 2294.8221,-1072.495 c 50.3643,-23.536 71.9614,-83.035 48.4232,-133.399 l -4.4146,-9.446 c -9.6044,12.513 -22.2899,22.992 -37.6428,30.169 l -2309.8996,1079.542 c -50.6955,23.693 -110.4567,2.224 -133.9942,-48.14 z"
           id="rect4818"
           inkscape:connector-curvature="0" />
        <path
           style="opacity:0.269;fill:#f4d7d7;fill-opacity:1;stroke:none;stroke-width:32.5581398;stroke-linecap:round;stroke-linejoin:round;stroke-miterlimit:4;stroke-dasharray:none;stroke-dashoffset:0;stroke-opacity:1;paint-order:fill markers stroke"
           d="m -6041.7169,10164.372 2332.4824,-1066.4007 c -36.2975,-15.339 -70.1169,-44.7528 -114.9844,-11.42 l -2189.3157,999.4917 c -27.8465,30.854 -40.1417,57.71 -28.1823,78.329 z"
           id="path4821"
           inkscape:connector-curvature="0"
           sodipodi:nodetypes="ccccc" />
        <path
           style="opacity:0.18399999;fill:#241c1c;fill-opacity:1;stroke:#241c1c;stroke-width:14.00017452;stroke-linecap:round;stroke-linejoin:round;stroke-miterlimit:4;stroke-dasharray:none;stroke-dashoffset:139.54022217;stroke-opacity:1;paint-order:fill markers stroke"
           d="m -3766.6131,10727.536 a 153.46024,153.46024 0 0 1 -81.3975,184.531 153.46024,153.46024 0 0 1 -193.7777,-55.926 153.46024,153.46024 0 0 0 7.3511,19.479 153.46024,153.46024 0 0 0 204,74.049 153.46024,153.46024 0 0 0 74.0541,-204 153.46024,153.46024 0 0 0 -10.23,-18.133 z"
           id="circle4825"
           inkscape:connector-curvature="0" />
        <path
           id="path4828"
           d="m -3765.9619,10768.778 a 137.55162,137.55162 0 0 0 -173.6908,-50.13 137.55162,137.55162 0 0 0 -72.9604,165.4 137.55162,137.55162 0 0 1 -9.1658,-16.254 137.55162,137.55162 0 0 1 66.3749,-182.849 137.55162,137.55162 0 0 1 182.8543,66.374 137.55162,137.55162 0 0 1 6.5878,17.459 z"
           style="opacity:0.58499995;fill:#ffffff;fill-opacity:1;stroke:none;stroke-width:12.54883099;stroke-linecap:round;stroke-linejoin:round;stroke-miterlimit:4;stroke-dasharray:none;stroke-dashoffset:139.54022217;stroke-opacity:1;paint-order:fill markers stroke"
           inkscape:connector-curvature="0" />
        <ellipse
           style="opacity:0.58499995;fill:#ffffff;fill-opacity:1;stroke:none;stroke-width:29.8640461;stroke-linecap:round;stroke-linejoin:round;stroke-miterlimit:4;stroke-dasharray:none;stroke-dashoffset:0;stroke-opacity:1;paint-order:fill markers stroke"
           id="path4830"
           cx="-5248.0215"
           cy="10051.982"
           rx="21.750267"
           ry="13.568974"
           transform="matrix(0.99204129,-0.12591295,0.12591295,0.99204129,0,0)" />
      </g>
      <g
         inkscape:export-ydpi="323.01001"
         inkscape:export-xdpi="323.01001"
         id="g6091"
         transform="matrix(0.0630685,0,0,0.06141714,134.66546,-261.19897)">
        <circle
           style="opacity:1;fill:#febd01;fill-opacity:1;stroke:#1d1f51;stroke-width:11.86872196;stroke-linecap:round;stroke-linejoin:round;stroke-miterlimit:4;stroke-dasharray:none;stroke-dashoffset:139.54022217;stroke-opacity:1;paint-order:fill markers stroke"
           id="circle6069"
           cx="871.47382"
           cy="5346.5718"
           r="266.58041" />
        <path
           style="opacity:0.37099998;fill:#936d01;fill-opacity:1;stroke:none;stroke-width:11.8685503;stroke-linecap:round;stroke-linejoin:round;stroke-miterlimit:4;stroke-dasharray:none;stroke-dashoffset:139.54022217;stroke-opacity:1;paint-order:fill markers stroke"
           d="m 661.71049,5301.726 a 214.60552,214.60552 0 0 0 -11.32909,68.1985 214.60552,214.60552 0 0 0 214.60545,214.6059 214.60552,214.60552 0 0 0 209.76335,-169.7602 214.60552,214.60552 0 0 1 -203.27649,146.4075 214.60552,214.60552 0 0 1 -214.60545,-214.6059 214.60552,214.60552 0 0 1 4.84223,-44.8458 z"
           id="path6071"
           inkscape:connector-curvature="0" />
        <circle
           r="214.60553"
           cy="5346.5718"
           cx="871.47382"
           id="circle6073"
           style="opacity:1;fill:#febd01;fill-opacity:1;stroke:#1d1f51;stroke-width:11.8685503;stroke-linecap:round;stroke-linejoin:round;stroke-miterlimit:4;stroke-dasharray:none;stroke-dashoffset:139.54022217;stroke-opacity:1;paint-order:fill markers stroke" />
        <text
           id="text6077"
           y="5443.979"
           x="755.80029"
           style="font-style:normal;font-weight:normal;font-size:327.55618286px;line-height:1.25;font-family:sans-serif;letter-spacing:0px;word-spacing:0px;opacity:0.52399998;fill:#e2a801;fill-opacity:1;stroke:none;stroke-width:15.25274658;stroke-miterlimit:4;stroke-dasharray:none;stroke-opacity:1"
           xml:space="preserve"><tspan
             style="fill:#e2a801;fill-opacity:1;stroke:none;stroke-width:15.25274658;stroke-miterlimit:4;stroke-dasharray:none;stroke-opacity:1"
             y="5443.979"
             x="755.80029"
             id="tspan6075"
             sodipodi:role="line">$</tspan></text>
        <text
           xml:space="preserve"
           style="font-style:normal;font-weight:normal;font-size:327.55618286px;line-height:1.25;font-family:sans-serif;letter-spacing:0px;word-spacing:0px;fill:#fff6d5;fill-opacity:1;stroke:none;stroke-width:15.25274658;stroke-miterlimit:4;stroke-dasharray:none;stroke-opacity:1"
           x="764.97424"
           y="5434.8052"
           id="text6081"><tspan
             sodipodi:role="line"
             id="tspan6079"
             x="764.97424"
             y="5434.8052"
             style="fill:#fff6d5;fill-opacity:1;stroke:none;stroke-width:15.25274658;stroke-miterlimit:4;stroke-dasharray:none;stroke-opacity:1">$</tspan></text>
        <path
           style="opacity:0.33300003;fill:#fff6d5;fill-opacity:1;stroke:none;stroke-width:11.8685503;stroke-linecap:round;stroke-linejoin:round;stroke-miterlimit:4;stroke-dasharray:none;stroke-dashoffset:139.54022217;stroke-opacity:1;paint-order:fill markers stroke"
           d="m 871.47371,5131.9665 a 214.60552,214.60552 0 0 0 -209.52252,168.8161 214.60552,214.60552 0 0 1 199.1434,-135.0844 214.60552,214.60552 0 0 1 214.60541,214.6057 214.60552,214.60552 0 0 1 -5.0829,45.7887 214.60552,214.60552 0 0 0 15.462,-79.5208 214.60552,214.60552 0 0 0 -214.60539,-214.6053 z"
           id="path6083"
           inkscape:connector-curvature="0" />
        <circle
           style="opacity:1;fill:none;fill-opacity:1;stroke:#1d1f51;stroke-width:6.27642632;stroke-linecap:round;stroke-linejoin:round;stroke-miterlimit:4;stroke-dasharray:none;stroke-dashoffset:139.54022217;stroke-opacity:1;paint-order:fill markers stroke"
           id="circle6085"
           cx="871.47382"
           cy="5346.5718"
           r="214.60553" />
        <path
           style="opacity:1;fill:#fed048;fill-opacity:1;stroke:none;stroke-width:11.86872196;stroke-linecap:round;stroke-linejoin:round;stroke-miterlimit:4;stroke-dasharray:none;stroke-dashoffset:139.54022217;stroke-opacity:1;paint-order:fill markers stroke"
           d="m 871.47374,5079.9915 a 266.5804,266.5804 0 0 0 -258.1245,201.3154 266.5804,266.5804 0 0 1 251.28551,-178.5187 266.5804,266.5804 0 0 1 266.58065,266.5806 266.5804,266.5804 0 0 1 -8.4554,65.2648 266.5804,266.5804 0 0 0 15.2944,-88.0622 266.5804,266.5804 0 0 0 -266.58066,-266.5799 z"
           id="path6087"
           inkscape:connector-curvature="0" />
        <circle
           r="266.58041"
           cy="5346.5718"
           cx="871.47382"
           id="circle6089"
           style="opacity:1;fill:none;fill-opacity:1;stroke:#1d1f51;stroke-width:11.86872196;stroke-linecap:round;stroke-linejoin:round;stroke-miterlimit:4;stroke-dasharray:none;stroke-dashoffset:139.54022217;stroke-opacity:1;paint-order:fill markers stroke" />
      </g>
      <g
         inkscape:export-ydpi="323.01001"
         inkscape:export-xdpi="323.01001"
         transform="matrix(0.0630685,0,0,0.06141714,157.66541,-258.72737)"
         id="g6115">
        <circle
           r="266.58041"
           cy="5346.5718"
           cx="871.47382"
           id="circle6093"
           style="opacity:1;fill:#febd01;fill-opacity:1;stroke:#1d1f51;stroke-width:11.86872196;stroke-linecap:round;stroke-linejoin:round;stroke-miterlimit:4;stroke-dasharray:none;stroke-dashoffset:139.54022217;stroke-opacity:1;paint-order:fill markers stroke" />
        <path
           inkscape:connector-curvature="0"
           id="path6095"
           d="m 661.71049,5301.726 a 214.60552,214.60552 0 0 0 -11.32909,68.1985 214.60552,214.60552 0 0 0 214.60545,214.6059 214.60552,214.60552 0 0 0 209.76335,-169.7602 214.60552,214.60552 0 0 1 -203.27649,146.4075 214.60552,214.60552 0 0 1 -214.60545,-214.6059 214.60552,214.60552 0 0 1 4.84223,-44.8458 z"
           style="opacity:0.37099998;fill:#936d01;fill-opacity:1;stroke:none;stroke-width:11.8685503;stroke-linecap:round;stroke-linejoin:round;stroke-miterlimit:4;stroke-dasharray:none;stroke-dashoffset:139.54022217;stroke-opacity:1;paint-order:fill markers stroke" />
        <circle
           style="opacity:1;fill:#febd01;fill-opacity:1;stroke:#1d1f51;stroke-width:11.8685503;stroke-linecap:round;stroke-linejoin:round;stroke-miterlimit:4;stroke-dasharray:none;stroke-dashoffset:139.54022217;stroke-opacity:1;paint-order:fill markers stroke"
           id="circle6097"
           cx="871.47382"
           cy="5346.5718"
           r="214.60553" />
        <text
           xml:space="preserve"
           style="font-style:normal;font-weight:normal;font-size:327.55618286px;line-height:1.25;font-family:sans-serif;letter-spacing:0px;word-spacing:0px;opacity:0.52399998;fill:#e2a801;fill-opacity:1;stroke:none;stroke-width:15.25274658;stroke-miterlimit:4;stroke-dasharray:none;stroke-opacity:1"
           x="755.80029"
           y="5443.979"
           id="text6101"><tspan
             sodipodi:role="line"
             id="tspan6099"
             x="755.80029"
             y="5443.979"
             style="fill:#e2a801;fill-opacity:1;stroke:none;stroke-width:15.25274658;stroke-miterlimit:4;stroke-dasharray:none;stroke-opacity:1">$</tspan></text>
        <text
           id="text6105"
           y="5434.8052"
           x="764.97424"
           style="font-style:normal;font-weight:normal;font-size:327.55618286px;line-height:1.25;font-family:sans-serif;letter-spacing:0px;word-spacing:0px;fill:#fff6d5;fill-opacity:1;stroke:none;stroke-width:15.25274658;stroke-miterlimit:4;stroke-dasharray:none;stroke-opacity:1"
           xml:space="preserve"><tspan
             style="fill:#fff6d5;fill-opacity:1;stroke:none;stroke-width:15.25274658;stroke-miterlimit:4;stroke-dasharray:none;stroke-opacity:1"
             y="5434.8052"
             x="764.97424"
             id="tspan6103"
             sodipodi:role="line">$</tspan></text>
        <path
           inkscape:connector-curvature="0"
           id="path6107"
           d="m 871.47371,5131.9665 a 214.60552,214.60552 0 0 0 -209.52252,168.8161 214.60552,214.60552 0 0 1 199.1434,-135.0844 214.60552,214.60552 0 0 1 214.60541,214.6057 214.60552,214.60552 0 0 1 -5.0829,45.7887 214.60552,214.60552 0 0 0 15.462,-79.5208 214.60552,214.60552 0 0 0 -214.60539,-214.6053 z"
           style="opacity:0.33300003;fill:#fff6d5;fill-opacity:1;stroke:none;stroke-width:11.8685503;stroke-linecap:round;stroke-linejoin:round;stroke-miterlimit:4;stroke-dasharray:none;stroke-dashoffset:139.54022217;stroke-opacity:1;paint-order:fill markers stroke" />
        <circle
           r="214.60553"
           cy="5346.5718"
           cx="871.47382"
           id="circle6109"
           style="opacity:1;fill:none;fill-opacity:1;stroke:#1d1f51;stroke-width:6.27642632;stroke-linecap:round;stroke-linejoin:round;stroke-miterlimit:4;stroke-dasharray:none;stroke-dashoffset:139.54022217;stroke-opacity:1;paint-order:fill markers stroke" />
        <path
           inkscape:connector-curvature="0"
           id="path6111"
           d="m 871.47374,5079.9915 a 266.5804,266.5804 0 0 0 -258.1245,201.3154 266.5804,266.5804 0 0 1 251.28551,-178.5187 266.5804,266.5804 0 0 1 266.58065,266.5806 266.5804,266.5804 0 0 1 -8.4554,65.2648 266.5804,266.5804 0 0 0 15.2944,-88.0622 266.5804,266.5804 0 0 0 -266.58066,-266.5799 z"
           style="opacity:1;fill:#fed048;fill-opacity:1;stroke:none;stroke-width:11.86872196;stroke-linecap:round;stroke-linejoin:round;stroke-miterlimit:4;stroke-dasharray:none;stroke-dashoffset:139.54022217;stroke-opacity:1;paint-order:fill markers stroke" />
        <circle
           style="opacity:1;fill:none;fill-opacity:1;stroke:#1d1f51;stroke-width:11.86872196;stroke-linecap:round;stroke-linejoin:round;stroke-miterlimit:4;stroke-dasharray:none;stroke-dashoffset:139.54022217;stroke-opacity:1;paint-order:fill markers stroke"
           id="circle6113"
           cx="871.47382"
           cy="5346.5718"
           r="266.58041" />
      </g>
    </g>
  </g>
</svg>
