<svg width="153" height="40" viewBox="0 0 153 40" fill="none" xmlns="http://www.w3.org/2000/svg">
<path d="M66.8386 31.5123H54.6899C54.8143 32.9221 55.2289 34.0001 56.0582 34.8294C56.846 35.6586 57.8825 36.0318 59.1264 36.0318C60.1216 36.0318 60.9094 35.783 61.5313 35.3269C62.1533 34.8708 62.8581 34.0001 63.6874 32.7562L67.0045 34.6221C66.5069 35.4928 65.9679 36.2391 65.3874 36.8611C64.8069 37.483 64.2264 37.9806 63.563 38.3952C62.8996 38.8098 62.1947 39.1001 61.4484 39.2659C60.7021 39.4318 59.8728 39.5562 59.002 39.5562C56.4728 39.5562 54.4411 38.7269 52.9069 37.1098C51.3728 35.4928 50.6265 33.2952 50.6265 30.6001C50.6265 27.905 51.3728 25.7489 52.8655 24.0904C54.3582 22.4733 56.3484 21.644 58.8362 21.644C61.324 21.644 63.3142 22.4318 64.7655 24.0489C66.2167 25.6245 66.9215 27.8221 66.9215 30.6001L66.8386 31.5123ZM62.8167 28.3196C62.2777 26.2465 60.9508 25.1684 58.8777 25.1684C58.4216 25.1684 57.9655 25.2514 57.5508 25.3757C57.1362 25.5416 56.763 25.7489 56.3899 25.9977C56.0582 26.2879 55.7679 26.5782 55.5191 26.9928C55.2703 27.4074 55.1045 27.8221 54.9801 28.3196H62.8167Z" fill="#162239"/>
<path d="M75.7114 29.8952L69.6163 22.1001H74.3016L78.0748 27.0342L81.9309 22.1001H86.7406L80.4796 29.8952L87.7357 39.0586H83.0504L78.0748 32.7147L72.9748 39.0586H68.165L75.7114 29.8952Z" fill="#162239"/>
<path d="M94.2872 9.66089V39.0998H90.3481V9.66089H94.2872Z" fill="#162239"/>
<path d="M111.743 22.0999H115.682V39.0584H111.743V37.2755C110.126 38.7682 108.384 39.556 106.518 39.556C104.155 39.556 102.248 38.7267 100.714 37.0267C99.1794 35.2853 98.4331 33.1292 98.4331 30.5584C98.4331 28.0292 99.1794 25.9146 100.714 24.2146C102.248 22.5146 104.155 21.6853 106.436 21.6853C108.426 21.6853 110.167 22.5146 111.743 24.1316V22.0999ZM102.455 30.517C102.455 32.134 102.911 33.4609 103.782 34.4975C104.694 35.534 105.814 36.0316 107.14 36.0316C108.592 36.0316 109.753 35.534 110.665 34.5389C111.577 33.5023 111.992 32.1755 111.992 30.5999C111.992 29.0243 111.536 27.6975 110.665 26.6609C109.753 25.6658 108.592 25.1268 107.182 25.1268C105.855 25.1268 104.694 25.6243 103.823 26.6609C102.911 27.7389 102.455 29.0243 102.455 30.517Z" fill="#162239"/>
<path d="M124.556 9.66085V24.0901C126.131 22.473 127.914 21.6437 129.905 21.6437C132.185 21.6437 134.092 22.5145 135.626 24.2145C137.161 25.9145 137.907 28.0291 137.907 30.5583C137.907 33.1705 137.161 35.3266 135.626 37.0266C134.092 38.7266 132.185 39.5559 129.863 39.5559C127.914 39.5559 126.131 38.8096 124.597 37.2754V39.0583H120.658V9.61938H124.556V9.66085ZM133.885 30.7242C133.885 29.1071 133.429 27.7803 132.558 26.7437C131.646 25.7071 130.526 25.1681 129.2 25.1681C127.748 25.1681 126.587 25.6657 125.675 26.7023C124.763 27.6974 124.348 28.9827 124.348 30.5998C124.348 32.2583 124.805 33.5852 125.675 34.5388C126.546 35.5339 127.707 36.073 129.158 36.073C130.526 36.073 131.646 35.5754 132.517 34.5388C133.429 33.5022 133.885 32.2583 133.885 30.7242Z" fill="#162239"/>
<path d="M151.88 25.0021L148.646 26.7435C148.149 25.7069 147.485 25.1679 146.739 25.1679C146.366 25.1679 146.076 25.2923 145.827 25.5411C145.578 25.7899 145.454 26.0801 145.454 26.4533C145.454 27.1167 146.2 27.7386 147.734 28.402C149.807 29.3142 151.217 30.102 151.922 30.8898C152.627 31.6362 153 32.6728 153 33.9581C153 35.5752 152.378 36.985 151.175 38.063C150.015 39.0996 148.605 39.6386 146.946 39.6386C144.085 39.6386 142.095 38.2703 140.893 35.4923L144.251 33.9581C144.707 34.7874 145.08 35.285 145.329 35.4923C145.785 35.9484 146.366 36.1557 147.029 36.1557C148.356 36.1557 149.019 35.5337 149.019 34.3313C149.019 33.6264 148.522 33.0045 147.485 32.3825C147.071 32.1752 146.697 32.0094 146.283 31.802C145.868 31.6362 145.495 31.4289 145.08 31.2216C143.961 30.6825 143.132 30.1021 142.675 29.563C142.095 28.8582 141.805 27.946 141.805 26.8264C141.805 25.3338 142.302 24.1313 143.339 23.1777C144.376 22.224 145.619 21.7265 147.112 21.7265C149.227 21.6435 150.802 22.763 151.88 25.0021Z" fill="#162239"/>
<path d="M17.8707 20.1926H2.36341C1.07804 20.1926 0 19.1146 0 17.8292V2.36341C0 1.07804 1.07804 0 2.36341 0H17.8707C19.156 0 20.2341 1.07804 20.2341 2.36341V17.8707C20.2341 19.156 19.156 20.1926 17.8707 20.1926Z" fill="#044AAF"/>
<path d="M36.3638 38.8511H20.8566C19.5712 38.8511 18.4932 37.773 18.4932 36.4877V21.0219C18.4932 19.7365 19.5712 18.6584 20.8566 18.6584H36.3638C37.6492 18.6584 38.7272 19.7365 38.7272 21.0219V36.5291C38.6858 37.8145 37.6492 38.8511 36.3638 38.8511Z" fill="#044AAF"/>
<path d="M22.1827 27.2414L11.651 16.7098C11.1534 16.2122 11.1534 15.3829 11.651 14.8854L14.6364 11.9C15.1339 11.4025 15.9632 11.4025 16.4607 11.9L26.9924 22.4317C27.49 22.9293 27.49 23.7585 26.9924 24.2561L24.0071 27.2414C23.5095 27.739 22.6802 27.739 22.1827 27.2414Z" fill="#044AAF"/>
</svg>
