<svg width="838" height="666" viewBox="0 0 838 666" fill="none" xmlns="http://www.w3.org/2000/svg">
<g opacity="0.2">
<path d="M773.098 184.065L708.196 146.634L773.077 109.204L773.658 109.535L837.979 146.634L773.098 184.065ZM712.801 146.634L773.098 181.412L833.395 146.634L773.098 111.857L712.801 146.634Z" fill="#EAEAEA"/>
<path d="M647.899 184.065L583.018 146.634L647.899 109.204L712.78 146.634L647.899 184.065ZM587.602 146.634L647.899 181.412L708.196 146.634L647.899 111.857L587.602 146.634Z" fill="#EAEAEA"/>
<path d="M710.499 220.169L709.918 219.838L645.597 182.739L710.478 145.308L775.38 182.739L710.499 220.169ZM650.201 182.739L710.499 217.516L770.796 182.739L710.499 147.961L650.201 182.739Z" fill="#EAEAEA"/>
<path d="M773.098 256.294L772.517 255.963L708.196 218.863L773.077 181.433L773.658 181.764L837.979 218.863L773.098 256.294ZM712.801 218.863L773.098 253.641L833.395 218.863L773.098 184.086L712.801 218.863Z" fill="#EAEAEA"/>
<path d="M522.721 184.065L522.14 183.734L457.819 146.634L522.7 109.204L523.281 109.535L587.602 146.634L522.721 184.065ZM462.424 146.634L522.721 181.412L583.018 146.634L522.721 111.857L462.424 146.634Z" fill="#EAEAEA"/>
<path d="M585.299 220.169L520.418 182.739L585.299 145.308L650.18 182.739L585.299 220.169ZM525.002 182.739L585.299 217.516L645.596 182.739L585.299 147.961L525.002 182.739Z" fill="#EAEAEA"/>
<path d="M647.899 256.294L647.318 255.963L582.997 218.863L647.878 181.433L648.459 181.764L712.78 218.863L647.899 256.294ZM587.602 218.863L647.899 253.641L708.196 218.863L647.899 184.086L587.602 218.863Z" fill="#EAEAEA"/>
<path d="M710.499 292.398L709.918 292.067L645.597 254.968L710.478 217.537L711.059 217.869L775.38 254.968L710.499 292.398ZM650.201 254.968L710.499 289.745L770.796 254.968L710.499 220.19L650.201 254.968Z" fill="#EAEAEA"/>
<path d="M773.098 328.503L772.517 328.171L708.196 291.072L773.077 253.641L837.979 291.072L773.098 328.503ZM712.801 291.072L773.098 325.85L833.395 291.072L773.098 256.294L712.801 291.072Z" fill="#EAEAEA"/>
<path d="M397.522 184.065L396.941 183.734L332.62 146.634L397.501 109.204L398.082 109.535L462.403 146.634L397.522 184.065ZM337.224 146.634L397.522 181.412L457.819 146.634L397.522 111.857L337.224 146.634Z" fill="#EAEAEA"/>
<path d="M460.121 220.169L459.54 219.838L395.219 182.739L460.1 145.308L460.681 145.64L525.002 182.739L460.121 220.169ZM399.824 182.739L460.121 217.516L520.418 182.739L460.121 147.961L399.824 182.739Z" fill="#EAEAEA"/>
<path d="M522.721 256.294L522.14 255.963L457.819 218.863L522.7 181.433L587.581 218.863L522.7 256.294H522.721ZM462.424 218.863L522.721 253.641L583.018 218.863L522.721 184.086L462.424 218.863Z" fill="#EAEAEA"/>
<path d="M585.32 292.398L520.439 254.968L585.32 217.537L585.901 217.869L650.222 254.968L585.341 292.398H585.32ZM525.023 254.968L585.32 289.745L645.617 254.968L585.32 220.19L525.023 254.968Z" fill="#EAEAEA"/>
<path d="M647.899 328.503L647.318 328.171L582.997 291.072L647.878 253.641L648.459 253.973L712.78 291.072L647.899 328.503ZM587.602 291.072L647.899 325.85L708.196 291.072L647.899 256.294L587.602 291.072Z" fill="#EAEAEA"/>
<path d="M710.499 364.607L709.918 364.275L645.597 327.176L710.478 289.746L711.059 290.077L775.38 327.176L710.499 364.607ZM650.201 327.176L710.499 361.954L770.796 327.176L710.499 292.398L650.201 327.176Z" fill="#EAEAEA"/>
<path d="M773.098 400.732L772.517 400.4L708.196 363.301L773.077 325.87L773.658 326.202L837.979 363.301L773.098 400.732ZM712.801 363.301L773.098 398.079L833.395 363.301L773.098 328.523L712.801 363.301Z" fill="#EAEAEA"/>
<path d="M272.343 184.065L271.762 183.734L207.441 146.634L272.322 109.204L272.903 109.535L337.224 146.634L272.343 184.065ZM212.046 146.634L272.343 181.412L332.64 146.634L272.343 111.857L212.046 146.634Z" fill="#EAEAEA"/>
<path d="M334.943 220.169L270.041 182.739L334.922 145.308L335.503 145.64L399.824 182.739L334.943 220.169ZM274.646 182.739L334.943 217.516L395.24 182.739L334.943 147.961L274.646 182.739Z" fill="#EAEAEA"/>
<path d="M397.522 256.294L396.941 255.963L332.62 218.863L397.501 181.433L398.082 181.764L462.403 218.863L397.522 256.294ZM337.224 218.863L397.522 253.641L457.819 218.863L397.522 184.086L337.224 218.863Z" fill="#EAEAEA"/>
<path d="M460.121 292.398L459.54 292.067L395.219 254.968L460.1 217.537L460.681 217.869L525.002 254.968L460.121 292.398ZM399.824 254.968L460.121 289.745L520.418 254.968L460.121 220.19L399.824 254.968Z" fill="#EAEAEA"/>
<path d="M522.721 328.503L457.839 291.072L522.721 253.641L587.602 291.072L522.721 328.503ZM462.423 291.072L522.721 325.85L583.018 291.072L522.721 256.294L462.423 291.072Z" fill="#EAEAEA"/>
<path d="M585.32 364.607L584.739 364.275L520.418 327.176L585.299 289.746L585.88 290.077L650.201 327.176L585.32 364.607ZM525.023 327.176L585.32 361.954L645.617 327.176L585.32 292.398L525.023 327.176Z" fill="#EAEAEA"/>
<path d="M647.899 400.732L582.997 363.301L647.878 325.87L648.459 326.202L712.78 363.301L647.899 400.732ZM587.602 363.301L647.899 398.079L708.196 363.301L647.899 328.523L587.602 363.301Z" fill="#EAEAEA"/>
<path d="M710.499 436.836L709.918 436.504L645.597 399.405L710.478 361.975L711.059 362.306L775.38 399.405L710.499 436.836ZM650.201 399.405L710.499 434.183L770.796 399.405L710.499 364.627L650.201 399.405Z" fill="#EAEAEA"/>
<path d="M773.098 472.94L772.517 472.608L708.196 435.509L773.077 398.079L773.658 398.41L837.979 435.509L773.098 472.94ZM712.801 435.509L773.098 470.287L833.395 435.509L773.098 400.732L712.801 435.509Z" fill="#EAEAEA"/>
<path d="M147.144 184.065L146.563 183.734L82.2422 146.634L147.123 109.204L147.704 109.535L212.025 146.634L147.144 184.065ZM86.8469 146.634L147.144 181.412L207.441 146.634L147.144 111.857L86.8469 146.634Z" fill="#EAEAEA"/>
<path d="M209.744 220.169L209.163 219.838L144.842 182.739L209.723 145.308L210.304 145.64L274.625 182.739L209.744 220.169ZM149.447 182.739L209.744 217.516L270.041 182.739L209.744 147.961L149.447 182.739Z" fill="#EAEAEA"/>
<path d="M272.343 256.273L271.762 255.942L207.441 218.843L272.322 181.412L337.224 218.843L272.343 256.273ZM212.046 218.843L272.343 253.62L332.64 218.843L272.343 184.065L212.046 218.843Z" fill="#EAEAEA"/>
<path d="M334.943 292.398L270.041 254.968L334.922 217.537L335.503 217.869L399.824 254.968L334.943 292.398ZM274.646 254.968L334.943 289.745L395.24 254.968L334.943 220.19L274.646 254.968Z" fill="#EAEAEA"/>
<path d="M397.522 328.503L396.941 328.171L332.62 291.072L397.501 253.641L398.082 253.973L462.403 291.072L397.522 328.503ZM337.224 291.072L397.522 325.85L457.819 291.072L397.522 256.294L337.224 291.072Z" fill="#EAEAEA"/>
<path d="M460.121 364.607L395.24 327.176L460.121 289.746L525.002 327.176L460.121 364.607ZM399.824 327.176L460.121 361.954L520.418 327.176L460.121 292.398L399.824 327.176Z" fill="#EAEAEA"/>
<path d="M522.721 400.732L522.14 400.4L457.819 363.301L522.7 325.87L523.281 326.202L587.602 363.301L522.721 400.732ZM462.424 363.301L522.721 398.079L583.018 363.301L522.721 328.523L462.424 363.301Z" fill="#EAEAEA"/>
<path d="M585.32 436.836L584.739 436.504L520.418 399.405L585.299 361.975L650.201 399.405L585.32 436.836ZM525.023 399.405L585.32 434.183L645.617 399.405L585.32 364.627L525.023 399.405Z" fill="#EAEAEA"/>
<path d="M647.899 472.94L582.997 435.509L647.878 398.079L648.459 398.41L712.78 435.509L647.899 472.94ZM587.602 435.509L647.899 470.287L708.196 435.509L647.899 400.732L587.602 435.509Z" fill="#EAEAEA"/>
<path d="M710.499 509.065L709.918 508.734L645.597 471.634L710.478 434.204L711.059 434.535L775.38 471.634L710.499 509.065ZM650.201 471.634L710.499 506.412L770.796 471.634L710.499 436.857L650.201 471.634Z" fill="#EAEAEA"/>
<path d="M773.098 545.169L772.517 544.838L708.196 507.738L773.077 470.308L773.658 470.639L837.979 507.738L773.098 545.169ZM712.801 507.738L773.098 542.516L833.395 507.738L773.098 472.961L712.801 507.738Z" fill="#EAEAEA"/>
<path d="M147.144 256.273L146.563 255.942L82.2422 218.843L147.123 181.412L147.704 181.744L212.025 218.843L147.144 256.273ZM86.8469 218.843L147.144 253.62L207.441 218.843L147.144 184.065L86.8469 218.843Z" fill="#EAEAEA"/>
<path d="M209.744 292.398L209.163 292.067L144.842 254.968L209.723 217.537L210.304 217.869L274.625 254.968L209.744 292.398ZM149.447 254.968L209.744 289.745L270.041 254.968L209.744 220.19L149.447 254.968Z" fill="#EAEAEA"/>
<path d="M272.343 328.503L271.762 328.171L207.441 291.072L272.322 253.641L337.224 291.072L272.343 328.503ZM212.046 291.072L272.343 325.85L332.64 291.072L272.343 256.294L212.046 291.072Z" fill="#EAEAEA"/>
<path d="M334.943 364.607L334.362 364.275L270.041 327.176L334.922 289.746L335.503 290.077L399.824 327.176L334.943 364.607ZM274.646 327.176L334.943 361.954L395.24 327.176L334.943 292.398L274.646 327.176Z" fill="#EAEAEA"/>
<path d="M397.542 400.732L332.64 363.301L397.522 325.87L462.403 363.301L397.522 400.732H397.542ZM337.245 363.301L397.542 398.079L457.839 363.301L397.542 328.523L337.245 363.301Z" fill="#EAEAEA"/>
<path d="M460.121 436.836L395.24 399.405L460.121 361.975L460.702 362.306L525.023 399.405L460.142 436.836H460.121ZM399.824 399.405L460.121 434.183L520.418 399.405L460.121 364.627L399.824 399.405Z" fill="#EAEAEA"/>
<path d="M522.721 472.94L522.14 472.608L457.819 435.509L522.7 398.079L523.281 398.41L587.602 435.509L522.721 472.94ZM462.424 435.509L522.721 470.287L583.018 435.509L522.721 400.732L462.424 435.509Z" fill="#EAEAEA"/>
<path d="M585.32 509.065L584.739 508.734L520.418 471.634L585.299 434.204L650.201 471.634L585.32 509.065ZM525.023 471.634L585.32 506.412L645.617 471.634L585.32 436.857L525.023 471.634Z" fill="#EAEAEA"/>
<path d="M647.919 545.169L647.339 544.838L583.018 507.738L647.899 470.308L648.48 470.639L712.801 507.738L647.919 545.169ZM587.622 507.738L647.919 542.516L708.217 507.738L647.919 472.961L587.622 507.738Z" fill="#EAEAEA"/>
<path d="M710.499 581.273L645.597 543.843L710.478 506.412L711.059 506.744L775.38 543.843L710.499 581.273ZM650.201 543.843L710.499 578.62L770.796 543.843L710.499 509.065L650.201 543.843Z" fill="#EAEAEA"/>
<path d="M773.098 617.378L772.517 617.046L708.196 579.947L773.077 542.516L773.658 542.848L837.979 579.947L773.098 617.378ZM712.801 579.947L773.098 614.725L833.395 579.947L773.098 545.169L712.801 579.947Z" fill="#EAEAEA"/>
<path d="M147.165 328.503L82.2629 291.072L147.144 253.641L147.725 253.973L212.046 291.072L147.165 328.503ZM86.8677 291.072L147.165 325.85L207.462 291.072L147.165 256.294L86.8677 291.072Z" fill="#EAEAEA"/>
<path d="M209.744 364.607L209.163 364.275L144.842 327.176L209.723 289.746L210.304 290.077L274.625 327.176L209.744 364.607ZM149.447 327.176L209.744 361.954L270.041 327.176L209.744 292.398L149.447 327.176Z" fill="#EAEAEA"/>
<path d="M272.343 400.732L271.762 400.4L207.441 363.301L272.322 325.87L272.903 326.202L337.224 363.301L272.343 400.732ZM212.046 363.301L272.343 398.079L332.64 363.301L272.343 328.523L212.046 363.301Z" fill="#EAEAEA"/>
<path d="M334.943 436.836L334.362 436.504L270.041 399.405L334.922 361.975L399.824 399.405L334.943 436.836ZM274.646 399.405L334.943 434.183L395.24 399.405L334.943 364.627L274.646 399.405Z" fill="#EAEAEA"/>
<path d="M397.542 472.94L332.661 435.509L397.542 398.079L462.423 435.509L397.542 472.94ZM337.245 435.509L397.542 470.287L457.839 435.509L397.542 400.732L337.245 435.509Z" fill="#EAEAEA"/>
<path d="M460.121 509.065L395.219 471.634L460.1 434.204L460.681 434.535L525.002 471.634L460.121 509.065ZM399.824 471.634L460.121 506.412L520.418 471.634L460.121 436.857L399.824 471.634Z" fill="#EAEAEA"/>
<path d="M522.721 545.169L522.14 544.838L457.819 507.738L522.7 470.308L523.281 470.639L587.602 507.738L522.721 545.169ZM462.424 507.738L522.721 542.516L583.018 507.738L522.721 472.961L462.424 507.738Z" fill="#EAEAEA"/>
<path d="M585.32 581.273L584.739 580.942L520.418 543.843L585.299 506.412L585.88 506.744L650.201 543.843L585.32 581.273ZM525.023 543.843L585.32 578.62L645.617 543.843L585.32 509.065L525.023 543.843Z" fill="#EAEAEA"/>
<path d="M647.919 617.378L647.339 617.046L583.018 579.947L647.899 542.516L712.801 579.947L647.919 617.378ZM587.622 579.947L647.919 614.725L708.217 579.947L647.919 545.169L587.622 579.947Z" fill="#EAEAEA"/>
<path d="M147.165 400.732L82.2629 363.301L147.144 325.87L147.725 326.202L212.046 363.301L147.165 400.732ZM86.8677 363.301L147.165 398.079L207.462 363.301L147.165 328.523L86.8677 363.301Z" fill="#EAEAEA"/>
<path d="M209.744 436.836L209.163 436.504L144.842 399.405L209.723 361.975L210.304 362.306L274.625 399.405L209.744 436.836ZM149.447 399.405L209.744 434.183L270.041 399.405L209.744 364.627L149.447 399.405Z" fill="#EAEAEA"/>
<path d="M272.343 472.94L271.762 472.608L207.441 435.509L272.322 398.079L272.903 398.41L337.224 435.509L272.343 472.94ZM212.046 435.509L272.343 470.287L332.64 435.509L272.343 400.732L212.046 435.509Z" fill="#EAEAEA"/>
<path d="M334.943 509.044L270.062 471.614L334.943 434.183L399.824 471.614L334.943 509.044ZM274.646 471.614L334.943 506.391L395.24 471.614L334.943 436.836L274.646 471.614Z" fill="#EAEAEA"/>
<path d="M397.542 545.169L396.962 544.838L332.64 507.738L397.522 470.308L462.423 507.738L397.542 545.169ZM337.245 507.738L397.542 542.516L457.839 507.738L397.542 472.961L337.245 507.738Z" fill="#EAEAEA"/>
<path d="M460.121 581.273L395.219 543.843L460.1 506.412L460.681 506.744L525.002 543.843L460.121 581.273ZM399.824 543.843L460.121 578.62L520.418 543.843L460.121 509.065L399.824 543.843Z" fill="#EAEAEA"/>
<path d="M522.721 617.378L522.14 617.046L457.819 579.947L522.7 542.516L523.281 542.848L587.602 579.947L522.721 617.378ZM462.424 579.947L522.721 614.725L583.018 579.947L522.721 545.169L462.424 579.947Z" fill="#EAEAEA"/>
<path d="M147.165 472.94L146.584 472.608L82.2629 435.509L147.144 398.079L147.725 398.41L212.046 435.509L147.165 472.94ZM86.8677 435.509L147.165 470.287L207.462 435.509L147.165 400.732L86.8677 435.509Z" fill="#EAEAEA"/>
<path d="M209.764 509.044L144.863 471.614L209.744 434.183L210.324 434.515L274.646 471.614L209.764 509.044ZM149.467 471.614L209.764 506.391L270.062 471.614L209.764 436.836L149.467 471.614Z" fill="#EAEAEA"/>
<path d="M272.343 545.169L271.762 544.838L207.441 507.738L272.322 470.308L337.204 507.738L272.322 545.169H272.343ZM212.046 507.738L272.343 542.516L332.64 507.738L272.343 472.961L212.046 507.738Z" fill="#EAEAEA"/>
<path d="M334.943 581.273L270.062 543.843L334.943 506.412L335.523 506.744L399.845 543.843L334.963 581.273H334.943ZM274.646 543.843L334.943 578.62L395.24 543.843L334.943 509.065L274.646 543.843Z" fill="#EAEAEA"/>
<path d="M397.542 617.378L396.962 617.046L332.64 579.947L397.522 542.516L462.423 579.947L397.542 617.378ZM337.245 579.947L397.542 614.725L457.839 579.947L397.542 545.169L337.245 579.947Z" fill="#EAEAEA"/>
<path d="M147.165 545.169L146.584 544.838L82.2629 507.738L147.144 470.308L212.046 507.738L147.165 545.169ZM86.8677 507.738L147.165 542.516L207.462 507.738L147.165 472.961L86.8677 507.738Z" fill="#EAEAEA"/>
<path d="M209.764 581.273L209.184 580.942L144.863 543.843L209.744 506.412L210.324 506.744L274.646 543.843L209.764 581.273ZM149.467 543.843L209.764 578.62L270.062 543.843L209.764 509.065L149.467 543.843Z" fill="#EAEAEA"/>
<path d="M272.343 617.378L207.462 579.947L272.343 542.516L337.224 579.947L272.343 617.378ZM212.046 579.947L272.343 614.725L332.64 579.947L272.343 545.169L212.046 579.947Z" fill="#EAEAEA"/>
<path d="M147.165 617.378L146.584 617.046L82.2629 579.947L147.144 542.516L147.725 542.848L212.046 579.947L147.165 617.378ZM86.8677 579.947L147.165 614.725L207.462 579.947L147.165 545.169L86.8677 579.947Z" fill="#EAEAEA"/>
</g>
<path d="M581.068 521.21C581.068 525.065 578.351 529.749 575.011 531.697C571.672 533.625 568.955 532.071 568.955 528.195C568.955 524.319 571.672 519.635 575.011 517.708C578.351 515.78 581.068 517.335 581.068 521.21Z" fill="#F4F4F4"/>
<path d="M600.69 509.894C600.69 513.749 597.973 518.454 594.633 520.381C591.294 522.309 588.577 520.754 588.577 516.878C588.577 513.003 591.294 508.319 594.633 506.391C597.973 504.464 600.69 506.018 600.69 509.894Z" fill="#F4F4F4"/>
<path d="M620.333 498.578C620.333 502.433 617.615 507.137 614.276 509.065C610.936 510.992 608.219 509.438 608.219 505.562C608.219 501.687 610.936 497.003 614.276 495.075C617.615 493.148 620.333 494.702 620.333 498.578Z" fill="#F4F4F4"/>
<path d="M639.955 487.241C639.955 491.096 637.237 495.8 633.898 497.728C630.558 499.655 627.841 498.101 627.841 494.225C627.841 490.35 630.558 485.666 633.898 483.738C637.237 481.811 639.955 483.365 639.955 487.241Z" fill="#F4F4F4"/>
<path d="M298.395 629.357C298.395 633.212 295.678 637.917 292.339 639.844C288.999 641.772 286.282 640.217 286.282 636.342C286.282 632.466 288.999 627.803 292.339 625.854C295.678 623.927 298.395 625.481 298.395 629.357Z" fill="#F4F4F4"/>
<path d="M315.113 619.72C315.113 623.575 312.396 628.259 309.057 630.207C305.717 632.155 303 630.58 303 626.704C303 622.828 305.717 618.144 309.057 616.217C312.396 614.289 315.113 615.844 315.113 619.72Z" fill="#F4F4F4"/>
<path d="M298.395 610.082C298.395 613.937 295.678 618.642 292.339 620.569C288.999 622.497 286.282 620.942 286.282 617.067C286.282 613.191 288.999 608.507 292.339 606.579C295.678 604.652 298.395 606.206 298.395 610.082Z" fill="#F4F4F4"/>
<path d="M315.113 600.445C315.113 604.3 312.396 609.004 309.057 610.932C305.717 612.859 303 611.305 303 607.429C303 603.553 305.717 598.869 309.057 596.942C312.396 595.014 315.113 596.569 315.113 600.445Z" fill="#F4F4F4"/>
<path d="M242.309 146.448L230.195 153.432V139.463L242.309 132.479V146.448Z" fill="#F4F4F4"/>
<path d="M259.11 136.624L246.996 143.608V129.639L259.11 122.655V136.624Z" fill="#F4F4F4"/>
<path d="M242.412 164.562L230.299 171.547V157.578L242.412 150.593V164.562Z" fill="#F4F4F4"/>
<path d="M259.11 154.925L246.996 161.93V147.94L259.11 140.956V154.925Z" fill="#F4F4F4"/>
<path opacity="0.2" d="M736.302 7.87589C734.165 9.09871 732.153 10.8811 730.39 12.9537C730.12 1.30584 721.741 -3.35745 711.432 2.59083C708.134 4.4976 705.022 7.25412 702.326 10.5288C697.742 2.50793 688.242 0.663343 677.228 7.00541C661.734 15.9382 649.185 37.6795 649.185 55.545C649.185 57.0165 649.309 58.4052 649.475 59.7316C647.256 59.1513 644.559 59.628 641.614 61.3068C634.209 65.5763 628.194 75.9806 628.194 84.5196C628.194 93.0586 634.209 96.5405 641.614 92.2503L736.302 37.6173C743.437 33.5136 749.203 23.5031 749.203 15.2957C749.203 7.08831 743.437 3.75147 736.302 7.85516V7.87589Z" fill="#F4F4F4"/>
<path opacity="0.5" d="M753.186 22.736C751.049 23.9588 749.037 25.7412 747.274 27.8138C747.005 16.1659 738.625 11.5027 728.316 17.4509C725.018 19.3577 721.907 22.1142 719.21 25.3889C714.626 17.368 705.126 15.5235 694.112 21.8655C678.618 30.7983 666.069 52.5396 666.069 70.4051C666.069 71.8767 666.194 73.2653 666.359 74.5917C664.14 74.0114 661.444 74.4881 658.498 76.1669C651.093 80.4364 645.078 90.8407 645.078 99.4004C645.078 107.96 651.093 111.421 658.498 107.131L753.186 52.4981C760.3 48.3944 766.087 38.3839 766.087 30.1765C766.087 21.9691 760.321 18.6323 753.186 22.736Z" fill="#F4F4F4"/>
<path d="M770.07 37.5963C767.933 38.8192 765.921 40.6016 764.158 42.6741C763.888 31.0263 755.509 26.363 745.2 32.3113C741.902 34.2181 738.79 36.9746 736.094 40.2492C731.51 32.2284 722.01 30.3838 710.996 36.7259C695.502 45.6586 682.953 67.3999 682.953 85.2655C682.953 86.737 683.077 88.1256 683.243 89.4521C681.024 88.8718 678.327 89.3484 675.382 91.0272C667.977 95.2967 661.962 105.701 661.962 114.261C661.962 122.82 667.977 126.282 675.382 121.991L770.07 67.3585C777.184 63.2548 782.971 53.2443 782.971 45.0369C782.971 36.8295 777.205 33.4927 770.07 37.5963Z" fill="#F4F4F4"/>
<path d="M220.115 454.909C219.617 454.909 219.098 454.784 218.642 454.515C217.729 453.997 217.169 453.023 217.169 451.986V414.494C217.169 413.457 217.729 412.483 218.642 411.965L251.124 393.229C252.037 392.711 253.136 392.711 254.049 393.229C254.961 393.747 255.522 394.721 255.522 395.757V433.25C255.522 434.287 254.961 435.261 254.049 435.779L221.567 454.515C221.11 454.784 220.613 454.909 220.094 454.909H220.115ZM223.039 416.193V446.929L249.672 431.572V400.835L223.039 416.193Z" fill="#F4F4F4"/>
<path opacity="0.2" d="M197.796 637.896L150.94 610.849L197.796 583.823L244.653 610.849L197.796 637.896Z" fill="#7DC3EA"/>
<path d="M197.796 621.149C197.174 621.149 196.572 620.984 196.012 620.673L149.156 593.646C148.057 593.004 147.372 591.843 147.372 590.558C147.372 589.273 148.057 588.113 149.156 587.47L196.012 560.444C197.112 559.801 198.481 559.801 199.58 560.444L246.436 587.47C247.536 588.113 248.22 589.273 248.22 590.558C248.22 591.843 247.536 593.004 246.436 593.646L199.58 620.673C199.02 620.984 198.419 621.149 197.796 621.149ZM158.054 590.558L197.796 613.481L237.538 590.558L197.796 567.636L158.054 590.558Z" fill="#F4F4F4"/>
<path d="M244.652 569.439L197.796 596.465V542.413L244.652 515.365V569.439Z" fill="url(#paint0_radial_46_170)"/>
<path d="M197.796 542.412L150.94 515.365L197.796 488.339L244.653 515.386L197.796 542.412Z" fill="url(#paint1_linear_46_170)"/>
<path d="M197.796 596.465L150.94 569.439V515.365L197.796 542.413V596.465Z" fill="url(#paint2_radial_46_170)"/>
<path d="M180.933 567.263L167.824 559.698V544.589L180.933 552.133V567.263Z" fill="#F4F4F4"/>
<path opacity="0.2" d="M722.446 346.7L675.59 319.673L722.446 292.647L769.303 319.673L722.446 346.7Z" fill="#7DC3EA"/>
<path d="M722.446 329.953C721.824 329.953 721.222 329.787 720.662 329.476L673.806 302.45C672.706 301.808 672.022 300.647 672.022 299.362C672.022 298.077 672.706 296.916 673.806 296.274L720.662 269.247C721.761 268.605 723.13 268.605 724.23 269.247L771.086 296.274C772.185 296.916 772.87 298.077 772.87 299.362C772.87 300.647 772.185 301.808 771.086 302.45L724.23 329.476C723.67 329.787 723.068 329.953 722.446 329.953ZM682.704 299.362L722.446 322.285L762.167 299.362L722.425 276.439L682.704 299.362Z" fill="#F4F4F4"/>
<path d="M769.302 278.243L722.446 305.269V251.216L769.302 224.19V278.243Z" fill="url(#paint3_radial_46_170)"/>
<path d="M722.446 251.216L675.59 224.19L722.446 197.164L769.303 224.19L722.446 251.216Z" fill="url(#paint4_linear_46_170)"/>
<path d="M722.446 305.269L675.59 278.243V224.19L722.446 251.216V305.269Z" fill="url(#paint5_radial_46_170)"/>
<path d="M705.583 276.066L692.474 268.522V253.392L705.583 260.957V276.066Z" fill="#F4F4F4"/>
<path d="M709.358 224.335L722.363 216.625L735.555 224.024L722.55 231.755L709.358 224.335Z" fill="#F4F4F4"/>
<path opacity="0.2" d="M722.446 637.896L675.59 610.849L722.446 583.823L769.303 610.849L722.446 637.896Z" fill="#7DC3EA"/>
<path d="M722.446 621.149C721.824 621.149 721.222 620.984 720.662 620.673L673.806 593.646C672.706 593.004 672.022 591.843 672.022 590.558C672.022 589.273 672.706 588.113 673.806 587.47L720.662 560.444C721.761 559.801 723.13 559.801 724.23 560.444L771.086 587.47C772.185 588.113 772.87 589.273 772.87 590.558C772.87 591.843 772.185 593.004 771.086 593.646L724.23 620.673C723.67 620.984 723.068 621.149 722.446 621.149ZM682.704 590.558L722.446 613.481L762.188 590.558L722.446 567.636L682.704 590.558Z" fill="#F4F4F4"/>
<path d="M769.302 569.439L722.446 596.465V542.413L769.302 515.365V569.439Z" fill="url(#paint6_radial_46_170)"/>
<path d="M722.446 542.412L675.59 515.365L722.446 488.339L769.303 515.386L722.446 542.412Z" fill="url(#paint7_linear_46_170)"/>
<path d="M722.446 596.465L675.59 569.439V515.365L722.446 542.413V596.465Z" fill="url(#paint8_radial_46_170)"/>
<path d="M705.583 567.263L692.474 559.698V544.589L705.583 552.133V567.263Z" fill="#F4F4F4"/>
<path opacity="0.2" d="M197.796 346.7L150.94 319.673L197.796 292.647L244.653 319.673L197.796 346.7Z" fill="#7DC3EA"/>
<path d="M197.796 329.953C197.174 329.953 196.572 329.787 196.012 329.476L149.156 302.45C148.057 301.808 147.372 300.647 147.372 299.362C147.372 298.077 148.057 296.916 149.156 296.274L196.012 269.247C197.112 268.605 198.481 268.605 199.58 269.247L246.436 296.274C247.536 296.916 248.22 298.077 248.22 299.362C248.22 300.647 247.536 301.808 246.436 302.45L199.58 329.476C199.02 329.787 198.419 329.953 197.796 329.953ZM158.054 299.362L197.796 322.285L237.517 299.362L197.776 276.439L158.054 299.362Z" fill="#F4F4F4"/>
<path d="M244.652 278.243L197.796 305.269V251.216L244.652 224.19V278.243Z" fill="url(#paint9_radial_46_170)"/>
<path d="M197.796 251.216L150.94 224.19L197.796 197.164L244.653 224.19L197.796 251.216Z" fill="url(#paint10_linear_46_170)"/>
<path d="M197.796 305.269L150.94 278.243V224.19L197.796 251.216V305.269Z" fill="url(#paint11_radial_46_170)"/>
<path d="M180.933 276.066L167.824 268.522V253.392L180.933 260.957V276.066Z" fill="#F4F4F4"/>
<path d="M696.6 262.424L560.318 341.013L563.874 347.17L700.156 268.581L696.6 262.424Z" fill="#F4F4F4"/>
<path opacity="0.2" d="M449.066 537.625L328.886 468.297C324.489 465.748 325.028 461.313 330.11 458.39L457.487 384.731C462.569 381.788 470.264 381.477 474.661 384.027L594.841 453.354C599.238 455.903 598.699 460.339 593.617 463.261L466.24 536.92C461.158 539.863 453.463 540.174 449.066 537.625Z" fill="#7DC3EA"/>
<path d="M456.553 514.847C453.131 514.847 449.812 514.122 447.302 512.671L327.123 443.344C324.095 441.603 322.373 438.908 322.373 435.965C322.373 432.629 324.551 429.478 328.368 427.281L455.744 353.622C461.905 350.057 471.011 349.746 476.487 352.917L596.666 422.245C599.694 423.986 601.416 426.68 601.416 429.623C601.416 432.96 599.238 436.11 595.422 438.307L468.065 511.967C464.747 513.873 460.577 514.847 456.574 514.847H456.553ZM450.849 506.516C454.147 508.422 460.515 508.091 464.477 505.811L591.833 432.152C593.617 431.116 594.26 430.079 594.26 429.623C594.26 429.354 593.887 428.877 593.078 428.4L472.898 359.073C469.6 357.166 463.232 357.498 459.271 359.778L331.914 433.437C330.131 434.473 329.488 435.509 329.488 435.965C329.488 436.235 329.861 436.712 330.691 437.188L450.87 506.516H450.849Z" fill="#F4F4F4"/>
<path d="M457.736 172.728C457.736 172.728 391.755 179.008 352.014 182.055L457.404 481.976L596.811 401.643C596.811 401.643 596.853 401.623 596.874 401.602L597.123 401.457C598.865 400.338 599.964 397.954 599.964 394.576V101.411C599.964 98.3226 599.031 94.9858 597.537 92.0635L457.715 172.728H457.736Z" fill="url(#paint12_radial_46_170)"/>
<path d="M591.356 84.934L468.75 14.1971C466.613 12.9743 464.663 12.8707 463.17 13.7204L323.203 94.4056L329.799 118.8L364.894 218.677L371.511 222.49L597.579 92.0636C596.002 88.9755 593.804 86.3433 591.356 84.934Z" fill="url(#paint13_linear_46_170)"/>
<path d="M451.492 481.707L328.886 410.97C324.115 408.214 320.257 400.835 320.257 394.493V101.349C320.257 95.0067 324.115 92.0844 328.886 94.8202L451.492 165.557C456.263 168.314 460.121 175.692 460.121 182.034V475.178C460.121 481.52 456.263 484.443 451.492 481.707Z" fill="#5793CE"/>
<path d="M454.127 164.065L331.52 93.3278C328.762 91.7319 326.314 92.0635 324.738 93.8252C325.982 93.6387 327.393 93.9288 328.907 94.7993L451.513 165.536C456.284 168.293 460.142 175.671 460.142 182.013V475.178C460.142 477.852 459.457 479.904 458.296 481.209C460.951 480.795 462.776 478.059 462.776 473.707V180.562C462.776 174.22 458.918 166.821 454.147 164.085L454.127 164.065Z" fill="#F4F4F4"/>
<path d="M443.776 464.049L336.602 402.224C332.433 399.82 329.052 393.374 329.052 387.819V115.566C329.052 110.012 332.433 107.463 336.602 109.867L443.776 171.692C447.945 174.096 451.326 180.542 451.326 186.096V458.349C451.326 463.904 447.945 466.453 443.776 464.049Z" fill="url(#paint14_linear_46_170)"/>
<path d="M443.776 464.049L336.602 402.224C332.433 399.82 329.052 393.374 329.052 387.819V115.566C329.052 110.012 332.433 107.463 336.602 109.867L443.776 171.692C447.945 174.096 451.326 180.542 451.326 186.096V458.349C451.326 463.904 447.945 466.453 443.776 464.049Z" fill="url(#paint15_linear_46_170)"/>
<path d="M443.776 464.049L336.602 402.224C332.433 399.82 329.052 393.374 329.052 387.819V115.566C329.052 110.012 332.433 107.463 336.602 109.867L443.776 171.692C447.945 174.096 451.326 180.542 451.326 186.096V458.349C451.326 463.904 447.945 466.453 443.776 464.049Z" fill="#173D7A"/>
<path d="M447.282 461.997L340.108 400.172C335.938 397.768 332.557 391.322 332.557 385.768V113.494C332.557 111.608 332.952 110.074 333.636 108.955C330.94 108.955 329.052 111.401 329.052 115.567V387.819C329.052 393.374 332.433 399.82 336.602 402.224L443.776 464.049C446.514 465.624 448.92 465.064 450.248 462.888C449.335 462.888 448.34 462.598 447.282 461.976V461.997Z" fill="#396CAA"/>
<path d="M443.776 339.052L403.931 316.067L340.398 352.71L451.306 416.69V353.435C451.306 347.881 447.925 341.435 443.756 339.031L443.776 339.052Z" fill="#173D7A"/>
<path d="M443.776 283.279L403.931 260.294L340.398 296.937L451.306 360.917V297.662C451.306 292.108 447.925 285.662 443.756 283.258L443.776 283.279Z" fill="#173D7A"/>
<path d="M443.776 227.485L403.931 204.5L340.398 241.144L451.306 305.124V241.869C451.306 236.314 447.925 229.869 443.756 227.465L443.776 227.485Z" fill="#173D7A"/>
<path d="M443.776 171.692L403.931 148.707L340.398 185.35L451.306 249.33V186.075C451.306 180.521 447.925 174.075 443.756 171.671L443.776 171.692Z" fill="#173D7A"/>
<path d="M443.776 171.692L355.581 120.81L340.398 129.577L451.306 193.557V186.096C451.306 180.542 447.925 174.096 443.756 171.692H443.776Z" fill="#173D7A"/>
<path d="M451.326 193.557L340.418 129.577V164.831L451.326 228.812V193.557Z" fill="#5793CE"/>
<path d="M451.326 249.351L340.418 185.371V220.625L451.326 284.605V249.351Z" fill="#5793CE"/>
<path d="M451.326 305.145L340.418 241.144V276.419L451.326 340.399V305.145Z" fill="#5793CE"/>
<path d="M451.326 360.938L340.418 296.937V332.212L451.326 396.193V360.938Z" fill="#5793CE"/>
<path d="M451.326 416.711L340.418 352.731V387.985L451.326 451.986V416.711Z" fill="#5793CE"/>
<path d="M441.536 216.252L357.987 168.065C355.623 166.697 353.714 163.049 353.714 159.919V150.469C353.714 147.318 355.623 145.888 357.987 147.235L441.536 195.423C443.901 196.791 445.809 200.438 445.809 203.568V213.019C445.809 216.169 443.901 217.599 441.536 216.252Z" fill="#173D7A"/>
<path opacity="0.3" d="M362.219 166.262C359.854 164.894 357.946 161.246 357.946 158.116V148.665C357.946 148.168 358.008 147.712 358.112 147.318L358.008 147.256C355.644 145.888 353.735 147.339 353.735 150.489V159.94C353.735 163.091 355.644 166.738 358.008 168.085L441.557 216.273C443.549 217.413 445.187 216.563 445.664 214.407L362.219 166.282V166.262Z" fill="#06033E"/>
<path d="M415.318 190.366L365.039 161.37C364.21 160.894 363.546 159.609 363.546 158.51C363.546 157.412 364.21 156.894 365.039 157.37L415.318 186.366C416.148 186.842 416.811 188.127 416.811 189.226C416.811 190.324 416.148 190.842 415.318 190.366Z" fill="#F4F4F4"/>
<path d="M441.536 271.693L357.987 223.506C355.623 222.138 353.714 218.49 353.714 215.361V205.91C353.714 202.76 355.623 201.33 357.987 202.677L441.536 250.864C443.901 252.232 445.809 255.88 445.809 259.009V268.46C445.809 271.61 443.901 273.041 441.536 271.693Z" fill="#173D7A"/>
<path opacity="0.3" d="M362.219 221.703C359.854 220.335 357.946 216.687 357.946 213.558V204.107C357.946 203.609 358.008 203.153 358.112 202.76L358.008 202.698C355.644 201.33 353.735 202.78 353.735 205.931V215.382C353.735 218.532 355.644 222.18 358.008 223.527L441.557 271.714C443.549 272.854 445.187 272.004 445.664 269.849L362.219 221.724V221.703Z" fill="#06033E"/>
<path d="M415.318 245.828L365.039 216.832C364.21 216.356 363.546 215.071 363.546 213.972C363.546 212.874 364.21 212.356 365.039 212.832L415.318 241.828C416.148 242.304 416.811 243.589 416.811 244.688C416.811 245.786 416.148 246.304 415.318 245.828Z" fill="#F4F4F4"/>
<path d="M441.536 327.674L357.987 279.486C355.623 278.118 353.714 274.471 353.714 271.341V261.89C353.714 258.74 355.623 257.31 357.987 258.657L441.536 306.844C443.901 308.212 445.809 311.86 445.809 314.989V324.44C445.809 327.591 443.901 329.021 441.536 327.674Z" fill="#173D7A"/>
<path opacity="0.3" d="M362.219 277.662C359.854 276.295 357.946 272.647 357.946 269.517V260.066C357.946 259.569 358.008 259.113 358.112 258.719L358.008 258.657C355.644 257.289 353.735 258.74 353.735 261.89V271.341C353.735 274.491 355.644 278.139 358.008 279.486L441.557 327.674C443.549 328.814 445.187 327.964 445.664 325.808L362.219 277.683V277.662Z" fill="#06033E"/>
<path d="M415.318 301.787L365.039 272.792C364.21 272.315 363.546 271.03 363.546 269.932C363.546 268.833 364.21 268.315 365.039 268.792L415.318 297.787C416.148 298.264 416.811 299.549 416.811 300.647C416.811 301.746 416.148 302.264 415.318 301.787Z" fill="#D4ECFF"/>
<path d="M441.536 384.151L357.987 335.964C355.623 334.596 353.714 330.948 353.714 327.819V318.368C353.714 315.217 355.623 313.787 357.987 315.135L441.536 363.322C443.901 364.69 445.809 368.337 445.809 371.467V380.918C445.809 384.068 443.901 385.498 441.536 384.151Z" fill="#173D7A"/>
<path opacity="0.3" d="M362.219 334.14C359.854 332.772 357.946 329.124 357.946 325.995V316.544C357.946 316.046 358.008 315.59 358.112 315.197L358.008 315.135C355.644 313.767 353.735 315.217 353.735 318.368V327.819C353.735 330.969 355.644 334.617 358.008 335.964L441.557 384.151C443.549 385.291 445.187 384.441 445.664 382.286L362.219 334.161V334.14Z" fill="#06033E"/>
<path d="M415.318 358.265L365.039 329.269C364.21 328.793 363.546 327.508 363.546 326.409C363.546 325.311 364.21 324.793 365.039 325.269L415.318 354.265C416.148 354.741 416.811 356.026 416.811 357.125C416.811 358.223 416.148 358.741 415.318 358.265Z" fill="#FF2C9C"/>
<path d="M441.536 439.51L357.987 391.322C355.623 389.954 353.714 386.307 353.714 383.177V373.726C353.714 370.576 355.623 369.146 357.987 370.493L441.536 418.68C443.901 420.048 445.809 423.696 445.809 426.825V436.276C445.809 439.427 443.901 440.857 441.536 439.51Z" fill="#173D7A"/>
<path opacity="0.3" d="M362.219 389.498C359.854 388.13 357.946 384.483 357.946 381.353V371.902C357.946 371.405 358.008 370.949 358.112 370.555L358.008 370.493C355.644 369.125 353.735 370.576 353.735 373.726V383.177C353.735 386.327 355.644 389.975 358.008 391.322L441.557 439.51C443.549 440.649 445.187 439.8 445.664 437.644L362.219 389.519V389.498Z" fill="#06033E"/>
<path d="M415.318 413.623L365.039 384.628C364.21 384.151 363.546 382.866 363.546 381.768C363.546 380.669 364.21 380.151 365.039 380.628L415.318 409.623C416.148 410.1 416.811 411.385 416.811 412.483C416.811 413.582 416.148 414.1 415.318 413.623Z" fill="#D4ECFF"/>
<path opacity="0.5" d="M340.418 129.577L349.151 134.613V169.868L340.418 164.832V129.577Z" fill="#173D7A"/>
<path opacity="0.5" d="M340.418 185.371L349.151 190.407V225.662L340.418 220.625V185.371Z" fill="#173D7A"/>
<path opacity="0.5" d="M340.418 241.144L349.151 246.201V281.455L340.418 276.419V241.144Z" fill="#173D7A"/>
<path opacity="0.5" d="M340.418 296.937L349.151 301.974V337.249L340.418 332.212V296.937Z" fill="#173D7A"/>
<path opacity="0.5" d="M340.418 352.731L349.151 357.767V393.042L340.418 387.985V352.731Z" fill="#173D7A"/>
<path d="M425.233 193.847C425.233 194.967 424.445 195.423 423.47 194.863C422.495 194.303 421.707 192.936 421.707 191.796C421.707 190.656 422.495 190.22 423.47 190.78C424.445 191.34 425.233 192.708 425.233 193.847Z" fill="#D4ECFF"/>
<path d="M432.721 198.179C432.721 199.298 431.933 199.754 430.958 199.195C429.983 198.635 429.195 197.267 429.195 196.127C429.195 194.988 429.983 194.552 430.958 195.112C431.933 195.671 432.721 197.039 432.721 198.179Z" fill="#FF2C9C"/>
<path d="M440.229 202.511C440.229 203.63 439.441 204.086 438.466 203.526C437.491 202.967 436.703 201.599 436.703 200.459C436.703 199.319 437.491 198.884 438.466 199.443C439.441 200.003 440.229 201.371 440.229 202.511Z" fill="#D4ECFF"/>
<path d="M425.233 249.62C425.233 250.74 424.445 251.196 423.47 250.636C422.495 250.076 421.707 248.708 421.707 247.569C421.707 246.429 422.495 245.993 423.47 246.553C424.445 247.113 425.233 248.481 425.233 249.62Z" fill="#FF2C9C"/>
<path d="M432.721 253.931C432.721 255.051 431.933 255.507 430.958 254.947C429.983 254.387 429.195 253.02 429.195 251.88C429.195 250.74 429.983 250.304 430.958 250.864C431.933 251.424 432.721 252.792 432.721 253.931Z" fill="#D4ECFF"/>
<path d="M440.229 258.263C440.229 259.382 439.441 259.838 438.466 259.279C437.491 258.719 436.703 257.351 436.703 256.211C436.703 255.071 437.491 254.636 438.466 255.196C439.441 255.755 440.229 257.123 440.229 258.263Z" fill="#F4F4F4"/>
<path d="M425.233 305.808C425.233 306.927 424.445 307.383 423.47 306.823C422.495 306.264 421.707 304.896 421.707 303.756C421.707 302.616 422.495 302.181 423.47 302.741C424.445 303.3 425.233 304.668 425.233 305.808Z" fill="#F4F4F4"/>
<path d="M432.721 310.119C432.721 311.238 431.933 311.694 430.958 311.134C429.983 310.575 429.195 309.207 429.195 308.067C429.195 306.927 429.983 306.492 430.958 307.051C431.933 307.611 432.721 308.979 432.721 310.119Z" fill="#FF2C9C"/>
<path d="M440.229 314.451C440.229 315.57 439.441 316.026 438.466 315.466C437.491 314.906 436.703 313.539 436.703 312.399C436.703 311.259 437.491 310.824 438.466 311.383C439.441 311.943 440.229 313.311 440.229 314.451Z" fill="#F4F4F4"/>
<path d="M425.233 361.166C425.233 362.286 424.445 362.741 423.47 362.182C422.495 361.622 421.707 360.254 421.707 359.114C421.707 357.975 422.495 357.539 423.47 358.099C424.445 358.659 425.233 360.026 425.233 361.166Z" fill="#F4F4F4"/>
<path d="M432.721 365.498C432.721 366.617 431.933 367.073 430.958 366.513C429.983 365.954 429.195 364.586 429.195 363.446C429.195 362.306 429.983 361.871 430.958 362.43C431.933 362.99 432.721 364.358 432.721 365.498Z" fill="#D4ECFF"/>
<path d="M440.229 369.809C440.229 370.928 439.441 371.384 438.466 370.824C437.491 370.265 436.703 368.897 436.703 367.757C436.703 366.617 437.491 366.182 438.466 366.742C439.441 367.301 440.229 368.669 440.229 369.809Z" fill="#D4ECFF"/>
<path d="M425.233 417.292C425.233 418.411 424.445 418.867 423.47 418.307C422.495 417.748 421.707 416.38 421.707 415.24C421.707 414.1 422.495 413.665 423.47 414.224C424.445 414.784 425.233 416.152 425.233 417.292Z" fill="#F4F4F4"/>
<path d="M432.721 421.602C432.721 422.722 431.933 423.178 430.958 422.618C429.983 422.058 429.195 420.69 429.195 419.551C429.195 418.411 429.983 417.975 430.958 418.535C431.933 419.095 432.721 420.462 432.721 421.602Z" fill="#FF2C9C"/>
<path d="M440.229 425.934C440.229 427.053 439.441 427.509 438.466 426.95C437.491 426.39 436.703 425.022 436.703 423.882C436.703 422.742 437.491 422.307 438.466 422.867C439.441 423.426 440.229 424.794 440.229 425.934Z" fill="#D4ECFF"/>
<path d="M478.582 442.079V192.459L479.1 192.169L583.516 131.94V381.56L582.997 381.851L478.582 442.079ZM480.656 193.64V438.494L581.441 380.358V135.505L480.656 193.64Z" fill="#173D7A"/>
<path d="M556.385 244.232L509.57 271.237C506.417 273.061 503.866 271.134 503.866 266.926V240.999C503.866 236.812 506.417 231.941 509.57 230.118L556.385 203.112C559.538 201.288 562.089 203.216 562.089 207.423V233.351C562.089 237.537 559.538 242.408 556.385 244.232Z" fill="#173D7A"/>
<path d="M557.526 202.635C557.796 203.361 557.941 204.231 557.941 205.226V231.154C557.941 235.34 555.39 240.211 552.237 242.014L505.422 269.02C505.028 269.248 504.655 269.414 504.281 269.517C505.132 271.818 507.164 272.605 509.55 271.217L556.365 244.211C559.517 242.387 562.069 237.537 562.069 233.33V207.402C562.069 203.734 560.119 201.806 557.505 202.594L557.526 202.635Z" fill="#5793CE"/>
<path d="M547.84 228.625C548.711 228.128 549.416 228.522 549.416 229.537V235.444C549.416 236.439 548.711 237.662 547.84 238.159C546.968 238.657 546.263 238.263 546.263 237.247V231.34C546.263 230.346 546.968 229.123 547.84 228.625Z" fill="#F4F4F4"/>
<path d="M541.119 233.226C541.99 232.729 542.695 233.123 542.695 234.138V239.299C542.695 240.294 541.99 241.517 541.119 242.014C540.248 242.512 539.542 242.118 539.542 241.102V235.942C539.542 234.947 540.248 233.724 541.119 233.226Z" fill="#D4ECFF"/>
<path d="M534.419 231.34C535.29 230.843 535.996 231.237 535.996 232.252V243.196C535.996 244.19 535.29 245.413 534.419 245.911C533.548 246.408 532.843 246.014 532.843 244.999V234.056C532.843 233.061 533.548 231.838 534.419 231.34Z" fill="#FF2C9C"/>
<path d="M527.699 228.915C528.57 228.418 529.275 228.812 529.275 229.827V247.071C529.275 248.066 528.57 249.289 527.699 249.786C526.828 250.284 526.123 249.89 526.123 248.874V231.63C526.123 230.636 526.828 229.413 527.699 228.915Z" fill="#D4ECFF"/>
<path d="M520.978 234.594C521.849 234.097 522.555 234.491 522.555 235.506V250.947C522.555 251.942 521.849 253.165 520.978 253.662C520.107 254.159 519.402 253.766 519.402 252.75V237.309C519.402 236.315 520.107 235.092 520.978 234.594Z" fill="#D4ECFF"/>
<path d="M514.258 245.517C515.129 245.019 515.834 245.413 515.834 246.429V254.802C515.834 255.797 515.129 257.019 514.258 257.517C513.387 258.014 512.682 257.621 512.682 256.605V248.232C512.682 247.237 513.387 246.014 514.258 245.517Z" fill="#F4F4F4"/>
<path d="M546.305 225.641C546.305 226.615 546.989 227.029 547.84 226.532C548.69 226.035 549.374 224.853 549.374 223.858C549.374 222.864 548.69 222.47 547.84 222.967C546.989 223.465 546.305 224.646 546.305 225.641Z" fill="#FF2C9C"/>
<path d="M548.916 219.818C549.518 218.777 549.515 217.65 548.909 217.301C548.304 216.952 547.326 217.513 546.725 218.553C546.123 219.594 546.126 220.721 546.731 221.07C547.337 221.419 548.315 220.858 548.916 219.818Z" fill="#F4F4F4"/>
<path d="M726.034 86.0947H718.899V224.19H726.034V86.0947Z" fill="#F4F4F4"/>
<path opacity="0.2" d="M452.156 664.28L380.575 622.973C376.178 620.445 376.738 616.009 381.799 613.087L450.912 573.211C455.994 570.289 463.668 569.957 468.045 572.506L539.626 613.813C544.023 616.341 543.463 620.776 538.402 623.699L469.289 663.575C464.207 666.497 456.533 666.829 452.156 664.28Z" fill="#7DC3EA"/>
<path d="M459.644 647.471C456.139 647.471 452.779 646.725 450.124 645.191L378.543 603.885C375.369 602.061 373.544 599.201 373.544 596.071C373.544 592.569 375.805 589.253 379.767 586.952L448.879 547.076C455.268 543.387 464.394 543.076 470.077 546.371L541.658 587.677C544.832 589.501 546.657 592.361 546.657 595.491C546.657 598.994 544.396 602.33 540.435 604.61L471.322 644.487C467.9 646.476 463.668 647.471 459.623 647.471H459.644ZM454.189 638.165C457.342 639.989 463.461 639.658 467.257 637.461L536.369 597.584C538.111 596.589 538.526 595.677 538.526 595.512C538.506 595.47 538.277 595.139 537.593 594.745L466.012 553.439C462.859 551.615 456.761 551.946 452.945 554.143L383.832 594.019C382.09 595.014 381.675 595.926 381.675 596.092C381.696 596.133 381.924 596.486 382.608 596.859L454.189 638.165Z" fill="#F4F4F4"/>
<path d="M542.613 570.185V545.501H487.231L468.086 534.433C463.689 531.905 456.014 532.215 450.953 535.138L433.094 545.438H377.651V570.786C377.526 572.506 378.481 574.164 380.596 575.366L452.177 616.673C456.574 619.201 464.249 618.89 469.31 615.968L538.423 576.092C541.347 574.413 542.758 572.216 542.592 570.185H542.613Z" fill="#396CAA"/>
<path d="M460.121 532.734C456.906 532.817 453.567 533.625 450.932 535.138L433.073 545.439H377.63V570.786C377.505 572.506 378.46 574.164 380.575 575.366L452.156 616.673C454.272 617.896 457.134 618.434 460.121 618.372V532.734Z" fill="url(#paint16_radial_46_170)"/>
<path d="M383.915 545.418H377.651V570.807C377.526 572.527 378.481 574.185 380.596 575.387L383.936 577.315V545.418H383.915Z" fill="#D4ECFF"/>
<path d="M453.276 617.232C457.072 618.849 462.548 618.766 466.987 617.067V588.237H453.276V617.212V617.232Z" fill="#5793CE"/>
<path d="M452.156 591.408L380.575 550.102C376.178 547.573 376.738 543.138 381.799 540.216L450.912 500.339C455.994 497.417 463.668 497.085 468.045 499.635L539.626 540.941C544.023 543.469 543.463 547.905 538.402 550.827L469.289 590.703C464.207 593.626 456.533 593.957 452.156 591.408Z" fill="url(#paint17_linear_46_170)"/>
<path d="M538.422 545.957L469.31 585.833C464.228 588.755 456.553 589.087 452.177 586.537L380.596 545.231C379.621 544.672 378.895 544.008 378.397 543.283C376.883 545.708 377.568 548.34 380.596 550.081L452.177 591.387C456.574 593.916 464.249 593.605 469.31 590.683L538.422 550.806C542.363 548.527 543.566 545.355 541.845 542.868C541.16 543.967 540.019 545.045 538.422 545.957Z" fill="#F4F4F4"/>
<path d="M516.27 576.714C516.27 578.558 514.984 580.797 513.387 581.708C511.79 582.62 510.504 581.874 510.504 580.05C510.504 578.227 511.79 575.967 513.387 575.055C514.984 574.144 516.27 574.89 516.27 576.714Z" fill="#D4ECFF"/>
<path d="M525.583 571.346C525.583 573.19 524.297 575.429 522.7 576.34C521.103 577.252 519.817 576.506 519.817 574.682C519.817 572.859 521.103 570.599 522.7 569.688C524.297 568.776 525.583 569.522 525.583 571.346Z" fill="#D4ECFF"/>
<path d="M534.876 565.978C534.876 567.822 533.59 570.061 531.993 570.973C530.395 571.884 529.109 571.138 529.109 569.315C529.109 567.491 530.395 565.232 531.993 564.32C533.59 563.408 534.876 564.154 534.876 565.978Z" fill="#D4ECFF"/>
<path d="M456.409 565.791L422.91 546.475C420.857 545.293 421.106 543.221 423.491 541.853L455.828 523.2C458.192 521.832 461.802 521.687 463.855 522.868L497.353 542.184C499.407 543.366 499.158 545.438 496.773 546.806L464.436 565.459C462.071 566.827 458.462 566.972 456.409 565.791Z" fill="#5793CE"/>
<path d="M459.603 549.604L454.977 546.931C454.687 546.765 454.728 546.475 455.06 546.288L459.541 543.697C459.873 543.511 460.37 543.49 460.661 543.656L465.286 546.33C465.577 546.495 465.535 546.785 465.203 546.972L460.723 549.563C460.391 549.749 459.893 549.77 459.624 549.604H459.603Z" fill="#D4ECFF"/>
<path d="M422.91 546.475L423.014 546.537C423.18 546.433 423.304 546.309 423.491 546.205L455.828 527.552C458.192 526.184 461.801 526.039 463.855 527.221L497.25 546.495C499.137 545.148 499.241 543.304 497.353 542.205L463.855 522.889C461.801 521.707 458.213 521.853 455.828 523.22L423.491 541.874C421.126 543.242 420.857 545.314 422.91 546.495V546.475Z" fill="#396CAA"/>
<path opacity="0.2" d="M714.501 482.059L642.921 440.753C638.523 438.224 639.083 433.789 644.144 430.867L713.257 390.99C718.339 388.068 726.013 387.736 730.39 390.286L801.971 431.592C806.368 434.121 805.808 438.556 800.747 441.478L731.634 481.355C726.553 484.277 718.878 484.608 714.501 482.059Z" fill="#7DC3EA"/>
<path d="M721.989 465.251C718.484 465.251 715.124 464.505 712.469 462.971L640.888 421.664C637.714 419.841 635.889 416.98 635.889 413.851C635.889 410.348 638.15 407.032 642.112 404.732L711.224 364.855C717.613 361.166 726.739 360.855 732.423 364.151L804.003 405.457C807.177 407.281 809.002 410.141 809.002 413.271C809.002 416.773 806.741 420.089 802.78 422.39L733.667 462.266C730.245 464.256 726.013 465.251 721.969 465.251H721.989ZM716.534 455.945C719.687 457.769 725.806 457.437 729.623 455.24L798.735 415.364C800.477 414.369 800.892 413.457 800.892 413.291C800.871 413.25 800.643 412.897 799.959 412.524L728.378 371.218C725.225 369.394 719.106 369.726 715.31 371.923L646.198 411.799C644.456 412.794 644.041 413.706 644.041 413.872C644.062 413.913 644.29 414.245 644.974 414.638L716.555 455.945H716.534Z" fill="#F4F4F4"/>
<path d="M804.937 387.985V363.301H749.556L730.411 352.233C726.014 349.705 718.339 350.016 713.278 352.938L695.419 363.239L639.976 363.197V388.586C639.851 390.307 640.805 391.965 642.921 393.167L714.502 434.473C718.899 437.002 726.574 436.691 731.635 433.768L800.747 393.892C803.672 392.213 805.082 390.016 804.916 387.985H804.937Z" fill="#396CAA"/>
<path d="M722.446 350.534C719.231 350.617 715.891 351.425 713.257 352.938L695.398 363.239L639.955 363.197V388.586C639.83 390.307 640.784 391.965 642.9 393.167L714.481 434.473C716.596 435.696 719.459 436.235 722.446 436.173V350.534Z" fill="url(#paint18_radial_46_170)"/>
<path d="M646.24 363.218H639.976V388.607C639.851 390.327 640.805 391.985 642.921 393.187L646.26 395.115V363.218H646.24Z" fill="#D4ECFF"/>
<path d="M715.601 435.012C719.397 436.628 724.873 436.546 729.312 434.846V406.017H715.601V434.991V435.012Z" fill="#5793CE"/>
<path d="M714.501 409.188L642.921 367.881C638.523 365.353 639.083 360.917 644.144 357.995L713.257 318.119C718.339 315.197 726.013 314.865 730.39 317.414L801.971 358.721C806.368 361.249 805.808 365.684 800.747 368.607L731.634 408.483C726.553 411.405 718.878 411.737 714.501 409.188Z" fill="url(#paint19_linear_46_170)"/>
<path d="M800.768 363.736L731.655 403.612C726.574 406.535 718.899 406.866 714.523 404.317L642.942 363.011C641.967 362.451 641.241 361.788 640.743 361.062C639.229 363.487 639.913 366.12 642.942 367.861L714.523 409.167C718.92 411.695 726.594 411.385 731.655 408.462L800.768 368.586C804.709 366.306 805.912 363.135 804.19 360.648C803.506 361.746 802.365 362.824 800.768 363.736Z" fill="#F4F4F4"/>
<path d="M778.594 394.493C778.594 396.338 777.308 398.576 775.711 399.488C774.114 400.4 772.828 399.654 772.828 397.83C772.828 396.006 774.114 393.747 775.711 392.835C777.308 391.923 778.594 392.669 778.594 394.493Z" fill="#D4ECFF"/>
<path d="M787.907 389.125C787.907 390.97 786.621 393.208 785.024 394.12C783.427 395.032 782.141 394.286 782.141 392.462C782.141 390.638 783.427 388.379 785.024 387.467C786.621 386.555 787.907 387.301 787.907 389.125Z" fill="#D4ECFF"/>
<path d="M797.2 383.757C797.2 385.602 795.914 387.84 794.317 388.752C792.72 389.664 791.434 388.918 791.434 387.094C791.434 385.27 792.72 383.011 794.317 382.099C795.914 381.187 797.2 381.933 797.2 383.757Z" fill="#D4ECFF"/>
<path d="M718.733 383.571L685.234 364.254C683.181 363.073 683.43 361 685.815 359.632L718.152 340.979C720.517 339.611 724.126 339.466 726.179 340.648L759.678 359.964C761.731 361.145 761.482 363.218 759.097 364.586L726.76 383.239C724.395 384.607 720.786 384.752 718.733 383.571Z" fill="#5793CE"/>
<path d="M721.948 367.404L717.322 364.731C717.032 364.565 717.073 364.275 717.405 364.088L721.885 361.498C722.217 361.311 722.715 361.29 722.985 361.456L727.61 364.13C727.901 364.296 727.859 364.586 727.527 364.772L723.047 367.363C722.715 367.55 722.217 367.57 721.948 367.404Z" fill="#D4ECFF"/>
<path d="M685.234 364.254L685.338 364.316C685.504 364.213 685.628 364.088 685.815 363.985L718.152 345.332C720.517 343.964 724.126 343.819 726.179 345L759.574 364.275C761.461 362.928 761.565 361.083 759.677 359.985L726.179 340.668C724.126 339.487 720.537 339.632 718.152 341L685.815 359.653C683.45 361.021 683.181 363.094 685.234 364.275V364.254Z" fill="#396CAA"/>
<path opacity="0.2" d="M189.852 482.059L118.271 440.753C113.874 438.224 114.434 433.789 119.495 430.867L188.608 390.99C193.69 388.068 201.364 387.736 205.741 390.286L277.322 431.592C281.719 434.121 281.159 438.556 276.098 441.478L206.985 481.355C201.903 484.277 194.229 484.608 189.852 482.059Z" fill="#7DC3EA"/>
<path d="M197.319 465.251C193.814 465.251 190.454 464.505 187.799 462.971L116.218 421.664C113.044 419.841 111.219 416.98 111.219 413.851C111.219 410.348 113.48 407.032 117.442 404.732L186.554 364.855C192.963 361.166 202.069 360.855 207.753 364.151L279.333 405.457C282.507 407.281 284.332 410.141 284.332 413.271C284.332 416.773 282.071 420.089 278.11 422.39L208.997 462.266C205.575 464.256 201.343 465.251 197.299 465.251H197.319ZM191.864 455.945C195.017 457.769 201.115 457.437 204.932 455.24L274.044 415.364C275.787 414.369 276.201 413.457 276.201 413.291C276.181 413.25 275.952 412.897 275.268 412.524L203.687 371.218C200.534 369.394 194.415 369.726 190.62 371.923L121.507 411.799C119.765 412.794 119.35 413.706 119.35 413.872C119.371 413.913 119.599 414.245 120.283 414.638L191.864 455.945Z" fill="#F4F4F4"/>
<path d="M280.288 387.985V363.301H224.906L205.761 352.233C201.364 349.705 193.689 350.016 188.628 352.938L170.769 363.239L115.326 363.197V388.586C115.201 390.307 116.156 391.965 118.271 393.167L189.852 434.473C194.249 437.002 201.924 436.691 206.985 433.768L276.098 393.892C279.022 392.213 280.433 390.016 280.267 387.985H280.288Z" fill="#396CAA"/>
<path d="M197.796 350.534C194.581 350.617 191.242 351.425 188.608 352.938L170.749 363.239L115.305 363.197V388.586C115.181 390.307 116.135 391.965 118.251 393.167L189.831 434.473C191.947 435.696 194.81 436.235 197.796 436.173V350.534Z" fill="url(#paint20_radial_46_170)"/>
<path d="M121.59 363.218H115.326V388.607C115.201 390.327 116.156 391.985 118.271 393.187L121.611 395.115V363.218H121.59Z" fill="#D4ECFF"/>
<path d="M190.951 435.012C194.747 436.628 200.223 436.546 204.662 434.846V406.017H190.951V434.991V435.012Z" fill="#5793CE"/>
<path d="M189.852 409.188L118.271 367.881C113.874 365.353 114.434 360.917 119.495 357.995L188.608 318.119C193.69 315.197 201.364 314.865 205.741 317.414L277.322 358.721C281.719 361.249 281.159 365.684 276.098 368.607L206.985 408.483C201.903 411.405 194.229 411.737 189.852 409.188Z" fill="url(#paint21_linear_46_170)"/>
<path d="M276.098 363.736L206.985 403.612C201.903 406.535 194.229 406.866 189.852 404.317L118.271 363.011C117.296 362.451 116.57 361.788 116.073 361.062C114.558 363.487 115.243 366.12 118.271 367.861L189.852 409.167C194.249 411.695 201.924 411.385 206.985 408.462L276.098 368.586C280.039 366.306 281.242 363.135 279.52 360.648C278.836 361.746 277.695 362.824 276.098 363.736Z" fill="#F4F4F4"/>
<path d="M253.945 394.493C253.945 396.338 252.659 398.576 251.062 399.488C249.465 400.4 248.179 399.654 248.179 397.83C248.179 396.006 249.465 393.747 251.062 392.835C252.659 391.923 253.945 392.669 253.945 394.493Z" fill="#D4ECFF"/>
<path d="M263.258 389.125C263.258 390.97 261.972 393.208 260.375 394.12C258.778 395.032 257.492 394.286 257.492 392.462C257.492 390.638 258.778 388.379 260.375 387.467C261.972 386.555 263.258 387.301 263.258 389.125Z" fill="#D4ECFF"/>
<path d="M272.551 383.757C272.551 385.602 271.265 387.84 269.668 388.752C268.07 389.664 266.784 388.918 266.784 387.094C266.784 385.27 268.07 383.011 269.668 382.099C271.265 381.187 272.551 381.933 272.551 383.757Z" fill="#D4ECFF"/>
<path d="M194.084 383.571L160.585 364.254C158.532 363.073 158.781 361 161.166 359.632L193.503 340.979C195.867 339.611 199.477 339.466 201.53 340.648L235.028 359.964C237.082 361.145 236.833 363.218 234.448 364.586L202.111 383.239C199.746 384.607 196.137 384.752 194.084 383.571Z" fill="#5793CE"/>
<path d="M197.278 367.404L192.652 364.731C192.362 364.565 192.404 364.275 192.735 364.088L197.216 361.498C197.548 361.311 198.045 361.29 198.336 361.456L202.961 364.13C203.252 364.296 203.21 364.586 202.878 364.772L198.398 367.363C198.066 367.55 197.568 367.57 197.278 367.404Z" fill="#D4ECFF"/>
<path d="M160.585 364.254L160.689 364.316C160.855 364.213 160.979 364.088 161.166 363.985L193.503 345.332C195.868 343.964 199.477 343.819 201.53 345L234.925 364.275C236.812 362.928 236.916 361.083 235.029 359.985L201.53 340.668C199.477 339.487 195.888 339.632 193.503 341L161.166 359.653C158.801 361.021 158.532 363.094 160.585 364.275V364.254Z" fill="#396CAA"/>
<defs>
<radialGradient id="paint0_radial_46_170" cx="0" cy="0" r="1" gradientUnits="userSpaceOnUse" gradientTransform="translate(193.357 540.692) scale(69.8385 69.7835)">
<stop stop-color="#274F89"/>
<stop offset="1" stop-color="#173D7A"/>
</radialGradient>
<linearGradient id="paint1_linear_46_170" x1="150.94" y1="515.365" x2="274.521" y2="515.365" gradientUnits="userSpaceOnUse">
<stop stop-color="#D4ECFF"/>
<stop offset="0.24" stop-color="#D0E9FD"/>
<stop offset="0.46" stop-color="#C5E2F9"/>
<stop offset="0.67" stop-color="#B2D5F1"/>
<stop offset="0.88" stop-color="#98C4E7"/>
<stop offset="1" stop-color="#86B8E0"/>
</linearGradient>
<radialGradient id="paint2_radial_46_170" cx="0" cy="0" r="1" gradientUnits="userSpaceOnUse" gradientTransform="translate(92.9659 468.484) scale(126.236 126.137)">
<stop stop-color="#699DD1"/>
<stop offset="0.27" stop-color="#6296CB"/>
<stop offset="0.64" stop-color="#5084BD"/>
<stop offset="1" stop-color="#396CAA"/>
</radialGradient>
<radialGradient id="paint3_radial_46_170" cx="0" cy="0" r="1" gradientUnits="userSpaceOnUse" gradientTransform="translate(718.028 249.517) scale(69.8386 69.7835)">
<stop stop-color="#274F89"/>
<stop offset="1" stop-color="#173D7A"/>
</radialGradient>
<linearGradient id="paint4_linear_46_170" x1="675.59" y1="224.19" x2="799.171" y2="224.19" gradientUnits="userSpaceOnUse">
<stop stop-color="#D4ECFF"/>
<stop offset="0.24" stop-color="#D0E9FD"/>
<stop offset="0.46" stop-color="#C5E2F9"/>
<stop offset="0.67" stop-color="#B2D5F1"/>
<stop offset="0.88" stop-color="#98C4E7"/>
<stop offset="1" stop-color="#86B8E0"/>
</linearGradient>
<radialGradient id="paint5_radial_46_170" cx="0" cy="0" r="1" gradientUnits="userSpaceOnUse" gradientTransform="translate(617.616 177.288) scale(126.236 126.137)">
<stop stop-color="#699DD1"/>
<stop offset="0.27" stop-color="#6296CB"/>
<stop offset="0.64" stop-color="#5084BD"/>
<stop offset="1" stop-color="#396CAA"/>
</radialGradient>
<radialGradient id="paint6_radial_46_170" cx="0" cy="0" r="1" gradientUnits="userSpaceOnUse" gradientTransform="translate(718.028 1.03614) scale(69.8386 69.7835)">
<stop stop-color="#274F89"/>
<stop offset="1" stop-color="#173D7A"/>
</radialGradient>
<linearGradient id="paint7_linear_46_170" x1="675.59" y1="2.41507e-05" x2="799.171" y2="2.41507e-05" gradientUnits="userSpaceOnUse">
<stop stop-color="#D4ECFF"/>
<stop offset="0.24" stop-color="#D0E9FD"/>
<stop offset="0.46" stop-color="#C5E2F9"/>
<stop offset="0.67" stop-color="#B2D5F1"/>
<stop offset="0.88" stop-color="#98C4E7"/>
<stop offset="1" stop-color="#86B8E0"/>
</linearGradient>
<radialGradient id="paint8_radial_46_170" cx="0" cy="0" r="1" gradientUnits="userSpaceOnUse" gradientTransform="translate(617.616 1.03614) scale(1.0371 1.03629)">
<stop stop-color="#699DD1"/>
<stop offset="0.27" stop-color="#6296CB"/>
<stop offset="0.64" stop-color="#5084BD"/>
<stop offset="1" stop-color="#396CAA"/>
</radialGradient>
<radialGradient id="paint9_radial_46_170" cx="0" cy="0" r="1" gradientUnits="userSpaceOnUse" gradientTransform="translate(1.037 249.517) scale(1.0371 1.03629)">
<stop stop-color="#274F89"/>
<stop offset="1" stop-color="#173D7A"/>
</radialGradient>
<linearGradient id="paint10_linear_46_170" x1="-2.79084e-05" y1="224.19" x2="2.07418" y2="224.19" gradientUnits="userSpaceOnUse">
<stop stop-color="#D4ECFF"/>
<stop offset="0.24" stop-color="#D0E9FD"/>
<stop offset="0.46" stop-color="#C5E2F9"/>
<stop offset="0.67" stop-color="#B2D5F1"/>
<stop offset="0.88" stop-color="#98C4E7"/>
<stop offset="1" stop-color="#86B8E0"/>
</linearGradient>
<radialGradient id="paint11_radial_46_170" cx="0" cy="0" r="1" gradientUnits="userSpaceOnUse" gradientTransform="translate(1.03704 177.288) scale(126.236 126.137)">
<stop stop-color="#699DD1"/>
<stop offset="0.27" stop-color="#6296CB"/>
<stop offset="0.64" stop-color="#5084BD"/>
<stop offset="1" stop-color="#396CAA"/>
</radialGradient>
<radialGradient id="paint12_radial_46_170" cx="0" cy="0" r="1" gradientUnits="userSpaceOnUse" gradientTransform="translate(410.154 240.418) scale(251.29 251.092)">
<stop stop-color="#396CAA"/>
<stop offset="1" stop-color="#274F89"/>
</radialGradient>
<linearGradient id="paint13_linear_46_170" x1="331.126" y1="62.3015" x2="565.328" y2="205.1" gradientUnits="userSpaceOnUse">
<stop stop-color="#D4ECFF"/>
<stop offset="0.24" stop-color="#D0E9FD"/>
<stop offset="0.46" stop-color="#C5E2F9"/>
<stop offset="0.67" stop-color="#B2D5F1"/>
<stop offset="0.88" stop-color="#98C4E7"/>
<stop offset="1" stop-color="#86B8E0"/>
</linearGradient>
<linearGradient id="paint14_linear_46_170" x1="-1003.15" y1="-496.961" x2="-868.316" y2="-455.097" gradientUnits="userSpaceOnUse">
<stop stop-color="#3919BB"/>
<stop offset="1" stop-color="#6507FA"/>
</linearGradient>
<linearGradient id="paint15_linear_46_170" x1="-1003.15" y1="-496.961" x2="-868.316" y2="-455.097" gradientUnits="userSpaceOnUse">
<stop stop-color="#3919BB"/>
<stop offset="1" stop-color="#6507FA"/>
</linearGradient>
<radialGradient id="paint16_radial_46_170" cx="0" cy="0" r="1" gradientUnits="userSpaceOnUse" gradientTransform="translate(382.172 538.247) scale(90.4769 90.4055)">
<stop stop-color="#699DD1"/>
<stop offset="0.27" stop-color="#6296CB"/>
<stop offset="0.64" stop-color="#5084BD"/>
<stop offset="1" stop-color="#396CAA"/>
</radialGradient>
<linearGradient id="paint17_linear_46_170" x1="399.243" y1="509.251" x2="540.915" y2="593.786" gradientUnits="userSpaceOnUse">
<stop stop-color="#D4ECFF"/>
<stop offset="0.2" stop-color="#D0E9FD"/>
<stop offset="0.39" stop-color="#C5E2F9"/>
<stop offset="0.57" stop-color="#B2D5F1"/>
<stop offset="0.74" stop-color="#98C4E7"/>
<stop offset="0.84" stop-color="#86B8E0"/>
</linearGradient>
<radialGradient id="paint18_radial_46_170" cx="0" cy="0" r="1" gradientUnits="userSpaceOnUse" gradientTransform="translate(644.497 356.026) scale(90.4768 90.4055)">
<stop stop-color="#699DD1"/>
<stop offset="0.27" stop-color="#6296CB"/>
<stop offset="0.64" stop-color="#5084BD"/>
<stop offset="1" stop-color="#396CAA"/>
</radialGradient>
<linearGradient id="paint19_linear_46_170" x1="661.588" y1="327.031" x2="803.26" y2="411.566" gradientUnits="userSpaceOnUse">
<stop stop-color="#D4ECFF"/>
<stop offset="0.2" stop-color="#D0E9FD"/>
<stop offset="0.39" stop-color="#C5E2F9"/>
<stop offset="0.57" stop-color="#B2D5F1"/>
<stop offset="0.74" stop-color="#98C4E7"/>
<stop offset="0.84" stop-color="#86B8E0"/>
</linearGradient>
<radialGradient id="paint20_radial_46_170" cx="0" cy="0" r="1" gradientUnits="userSpaceOnUse" gradientTransform="translate(119.848 356.026) scale(90.4769 90.4055)">
<stop stop-color="#699DD1"/>
<stop offset="0.27" stop-color="#6296CB"/>
<stop offset="0.64" stop-color="#5084BD"/>
<stop offset="1" stop-color="#396CAA"/>
</radialGradient>
<linearGradient id="paint21_linear_46_170" x1="136.939" y1="327.031" x2="278.611" y2="411.566" gradientUnits="userSpaceOnUse">
<stop stop-color="#D4ECFF"/>
<stop offset="0.2" stop-color="#D0E9FD"/>
<stop offset="0.39" stop-color="#C5E2F9"/>
<stop offset="0.57" stop-color="#B2D5F1"/>
<stop offset="0.74" stop-color="#98C4E7"/>
<stop offset="0.84" stop-color="#86B8E0"/>
</linearGradient>
</defs>
</svg>
