<?xml version="1.0" standalone="no"?>
<!DOCTYPE svg PUBLIC "-//W3C//DTD SVG 1.1//EN" "http://www.w3.org/Graphics/SVG/1.1/DTD/svg11.dtd" >
<svg xmlns="http://www.w3.org/2000/svg">
<metadata>
This is a custom SVG webfont generated by Font Squirrel.
Designer    : Alec Julien
Foundry     : Alec Julien
</metadata>
<defs>
<font id="webfontD7S5Wv86" horiz-adv-x="953" >
<font-face units-per-em="1000" ascent="750" descent="-250" />
<missing-glyph horiz-adv-x="453" />
<glyph unicode="Th" horiz-adv-x="1363" d="M30 541v159h923v-256q87 65 169 65q94 0 155 -78t61 -189v-242h-272v232q0 72 -54 72q-27 0 -43 -20.5t-16 -52.5v-231h-274v541h-165v-541h-274v541h-210z" />
<glyph unicode="Ti" horiz-adv-x="975" d="M945 500v-500h-274v500h274zM30 541v159h694v-159h-210v-541h-274v541h-210z" />
<glyph unicode=" "  horiz-adv-x="453" />
<glyph unicode="&#x09;" horiz-adv-x="453" />
<glyph unicode="&#xa0;" horiz-adv-x="453" />
<glyph unicode="!" horiz-adv-x="344" d="M309 700v-429h-274v429h274zM30 0v171h284v-171h-284z" />
<glyph unicode="&#x22;" horiz-adv-x="476" d="M208 700l-20 -253h-138l-20 253h178zM446 700l-20 -253h-138l-20 253h178z" />
<glyph unicode="#" horiz-adv-x="632" d="M564 197h-98l-37 -197h-129l37 197h-115l-37 -197h-129l37 197h-63v105h83l18 94h-63v105h83l39 199h129l-39 -199h115l39 199h129l-39 -199h78v-105h-98l-18 -94h78v-105zM260 396l-18 -94h115l18 94h-115z" />
<glyph unicode="$" horiz-adv-x="642" d="M468 413q149 -43 149 -200v-5q-2 -63 -43 -106t-99.5 -61.5t-134.5 -22.5v-82h-77v82q-32 2 -48 4q-105 11 -168 38v153q95 -39 221 -39q109 0 109 37q0 44 -184 89q-80 19 -124 60t-44 126q0 167 238 181v83h77v-81q122 -2 205 -39v-134l-10 3q-122 36 -190 36 q-80 0 -80 -49q0 -8 11 -15t33 -14t45 -13l56 -15q34 -9 58 -16z" />
<glyph unicode="%" horiz-adv-x="855" d="M670 700l-370 -700h-121l370 700h121zM30 537q0 71 50 121.5t121 50.5t121 -50.5t50 -121.5q0 -70 -50.5 -120t-120.5 -50t-120.5 50t-50.5 120zM136 537q0 -26 19 -45t46 -19q26 0 44.5 19t18.5 45t-18.5 44.5t-44.5 18.5q-27 0 -46 -18.5t-19 -44.5zM483 161 q0 71 50 121.5t121 50.5t121 -50.5t50 -121.5q0 -70 -50.5 -120t-120.5 -50t-120.5 50t-50.5 120zM589 161q0 -26 19 -45t46 -19q26 0 44.5 19t18.5 45t-18.5 44.5t-44.5 18.5q-27 0 -46 -18.5t-19 -44.5z" />
<glyph unicode="&#x26;" horiz-adv-x="988" d="M677 0l-85 59q-65 -67 -239 -67q-35 0 -72 4t-85 19t-84 39t-61.5 68t-25.5 102q0 41 31.5 84.5t91.5 57.5q-98 56 -98 143q0 51 23.5 89.5t57 58.5t78.5 32.5t78 15.5t66 3q301 0 301 -205q0 -43 -51.5 -88t-106.5 -60l74 -55q18 21 33 42h253q-68 -88 -132 -156 l249 -186h-296zM353 563q-28 0 -55 -14.5t-36 -37.5q38 -54 98 -79q30 3 58 18t28 40q0 73 -93 73zM354 146q56 0 78 23l-151 105q-22 -20 -22 -58q0 -35 28 -52.5t67 -17.5z" />
<glyph unicode="'" horiz-adv-x="238" d="M208 700l-20 -253h-138l-20 253h178z" />
<glyph unicode="(" horiz-adv-x="370" d="M131 750h208q-102 -170 -102 -428q0 -263 103 -442h-209q-101 176 -101 438q0 260 101 432z" />
<glyph unicode=")" horiz-adv-x="370" d="M31 750h208q101 -172 101 -432q0 -262 -101 -438h-209q103 179 103 442q0 258 -102 428z" />
<glyph unicode="*" horiz-adv-x="430" d="M185 373v97l-66 -83l-89 89l127 80l-127 81l89 89l66 -89v113h60v-113l65 89l89 -89l-129 -81l130 -80l-89 -89l-66 83v-97h-60z" />
<glyph unicode="+" horiz-adv-x="545" d="M30 217v160h162v163h160v-163h163v-160h-163v-162h-160v162h-162z" />
<glyph unicode="," horiz-adv-x="278" d="M263 82l-104 -253h-144l50 253h198z" />
<glyph unicode="-" horiz-adv-x="479" d="M30 217v160h419v-160h-419z" />
<glyph unicode="." horiz-adv-x="278" d="M30 0v192h218v-192h-218z" />
<glyph unicode="/" horiz-adv-x="407" d="M392 700l-218 -700h-159l218 700h159z" />
<glyph unicode="0" horiz-adv-x="746" d="M721 349q0 -162 -95 -259.5t-254 -97.5t-253 99t-94 258q0 163 93 262t254 99q165 0 257 -97t92 -264zM372 532q-35 0 -58 -27.5t-31 -65.5t-8 -87q0 -78 23 -130t74 -52q53 0 76 50.5t23 127.5q0 79 -23.5 131.5t-75.5 52.5z" />
<glyph unicode="1" horiz-adv-x="509" d="M15 583l162 117h302v-700h-274v527l-104 -69z" />
<glyph unicode="2" horiz-adv-x="621" d="M591 0h-561v211q34 17 73.5 40.5t91.5 59t86 74.5t34 70q0 47 -36.5 69t-93.5 22q-85 0 -150 -36v139q112 60 239 60q126 0 210.5 -65t84.5 -191q0 -76 -76.5 -158t-188.5 -132h287v-163z" />
<glyph unicode="3" horiz-adv-x="617" d="M30 32v149q77 -36 182 -36q132 0 132 74t-115 74q-19 0 -50.5 -2.5t-35.5 -2.5v149q44 -7 76 -7q119 0 119 70q0 35 -35 52.5t-90 17.5q-96 0 -171 -39v139q114 38 241 38q61 0 113 -11t96 -34t69 -64.5t25 -98.5q0 -44 -21.5 -81.5t-48.5 -54.5q30 -15 53 -57.5 t23 -87.5q0 -64 -24 -110t-66.5 -71t-92.5 -36t-111 -11q-129 0 -268 41z" />
<glyph unicode="4" horiz-adv-x="740" d="M348 0v171h-318v131l318 398h274v-393h88v-136h-88v-171h-274zM234 307h114v164z" />
<glyph unicode="5" horiz-adv-x="594" d="M39 700h504v-163h-253v-96q144 -18 203.5 -61.5t70.5 -128.5q0 -258 -340 -258q-59 0 -112.5 12.5t-81.5 28.5v139q52 -29 125 -29q65 0 110 26t45 79q0 89 -146 89q-50 0 -125 -11v373z" />
<glyph unicode="6" horiz-adv-x="722" d="M281 419q84 36 177 36q90 0 155 -38.5t79 -121.5q5 -32 5 -54q0 -82 -47 -140t-115 -83.5t-147 -25.5q-173 0 -268 98.5t-95 258.5q0 86 31.5 156t83.5 114t116 67.5t132 23.5q47 0 117 -14t111 -30v-140q-90 22 -144 22q-136 0 -191 -129zM474 257q-23 65 -77 65 q-45 0 -118 -50q12 -53 34.5 -79.5t61.5 -26.5q21 0 43 7q24 7 42 23.5t18 39.5q0 12 -4 21z" />
<glyph unicode="7" horiz-adv-x="624" d="M20 541v159h584v-159l-205 -541h-266l212 541h-325z" />
<glyph unicode="8" horiz-adv-x="706" d="M25 224q0 47 39 94t114 53q-68 3 -98 48.5t-30 89.5q0 51 23.5 89.5t57 58.5t78.5 32.5t78 15.5t66 3q301 0 301 -204q0 -38 -32 -81.5t-87 -54.5q58 -1 102 -51t44 -93q0 -58 -23.5 -102t-58 -68t-81.5 -39t-85.5 -19t-79.5 -4q-35 0 -72 4t-85 19t-84 39t-61.5 68 t-25.5 102zM262 490q0 -25 22 -41.5t70 -16.5t70 11.5t22 46.5q0 73 -93 73q-38 0 -64.5 -18.5t-26.5 -54.5zM449 216q0 34 -24 57.5t-69 23.5q-46 0 -71.5 -21t-25.5 -60q0 -35 28 -52.5t67 -17.5q95 0 95 70z" />
<glyph unicode="9" horiz-adv-x="708" d="M432 273q-78 -33 -167 -33q-93 0 -160 40.5t-77 126.5q-3 24 -3 47q0 55 18.5 99.5t49 73.5t72.5 48t86 27t92 8q165 0 252.5 -90.5t87.5 -241.5q0 -102 -45.5 -189.5t-132.5 -142t-196 -54.5q-47 0 -116.5 14t-110.5 30l8 140q97 -26 155 -26q129 0 187 123zM243 463 q0 -32 21 -54.5t55 -22.5q39 0 120 32q-4 52 -29 84.5t-69 32.5q-35 0 -66.5 -19t-31.5 -53z" />
<glyph unicode=":" horiz-adv-x="278" d="M30 0v192h218v-192h-218zM30 308v192h218v-192h-218z" />
<glyph unicode=";" horiz-adv-x="313" d="M65 109v192h218v-192h-218zM278 32l-104 -253h-144l50 253h198z" />
<glyph unicode="&#x3c;" horiz-adv-x="506" d="M476 393l-273 -93l273 -92v-178l-446 181v178l446 181v-177z" />
<glyph unicode="=" horiz-adv-x="492" d="M30 321v160h432v-160h-432zM30 86v160h432v-160h-432z" />
<glyph unicode="&#x3e;" horiz-adv-x="506" d="M303 300l-273 93v177l446 -181v-178l-446 -181v178z" />
<glyph unicode="?" horiz-adv-x="574" d="M138 1v180h217v-180h-217zM138 241v113l42 18l38 17q12 5 29.5 14t25 15.5t16 16.5t11.5 21.5t3 26.5q0 74 -73 74q-38 0 -80 -21l-135 73q94 98 258 98q122 0 199 -54t77 -170q0 -44 -12 -77t-29.5 -52.5t-46 -34.5t-51 -21t-55.5 -13v-44h-217z" />
<glyph unicode="@" horiz-adv-x="797" d="M559 446l-31 -127q16 -59 53 -59q17 0 40 13q55 30 55 114q0 45 -17.5 90t-46.5 73q-66 65 -172 65q-109 0 -199 -66q-39 -28 -68.5 -86t-29.5 -120q0 -69 39 -123q41 -59 108.5 -90t143.5 -31q89 0 164 39l113 -75q-128 -76 -283 -76q-207 0 -329 136q-74 81 -74 214 q0 83 33.5 160t95.5 127q53 42 129.5 65.5t155.5 23.5q136 0 220 -64q51 -39 82 -107t31 -140q0 -71 -32.5 -128.5t-99.5 -86.5q-34 -15 -68 -15q-41 0 -72.5 22t-43.5 61q-46 -31 -101 -31q-57 0 -92.5 28t-35.5 83q0 17 5 42q12 53 49 91t81.5 55t89.5 17q48 0 79 -19.5 t31 -54.5q0 -10 -3 -20zM444 336q1 22 5.5 42.5t11 40t8.5 27.5q-14 2 -20 2q-39 0 -72 -26t-42 -68q-2 -10 -2 -12q0 -29 36 -29q37 0 75 23z" />
<glyph unicode="A" d="M672 700l266 -700h-274l-51 133h-274l-50 -133h-274l266 700h391zM553 292l-77 201l-76 -201h153z" />
<glyph unicode="B" horiz-adv-x="807" d="M30 0v700h385q321 0 321 -201q0 -90 -75 -128q51 -12 83.5 -62t32.5 -115q0 -111 -82.5 -152.5t-250.5 -41.5h-414zM441 280h-137v-131h29q11 0 42 0.5t56 0.5q28 0 53.5 17.5t25.5 44.5q0 33 -18.5 50.5t-50.5 17.5zM370 561h-66v-141h49q120 0 120 67q0 18 -5.5 31 t-12 20t-20 12t-20.5 6t-24.5 3t-20.5 2z" />
<glyph unicode="C" horiz-adv-x="729" d="M699 193v-159q-40 -19 -126 -30.5t-151 -11.5q-110 0 -197 38.5t-141 121t-54 197.5q0 113 53 196.5t141 124t198 40.5q59 0 143 -9t120 -23v-145q-67 13 -192 13q-83 0 -135.5 -50t-52.5 -147q0 -94 46.5 -140t126.5 -46q42 0 112.5 8.5t108.5 21.5z" />
<glyph unicode="D" horiz-adv-x="841" d="M30 0v700h389q111 0 198 -38t140.5 -119t53.5 -194q0 -87 -31 -155t-85 -109.5t-124 -63t-152 -21.5h-389zM348 546h-44v-383h71q161 0 161 186q0 197 -188 197z" />
<glyph unicode="E" horiz-adv-x="683" d="M30 0v700h623v-159h-349v-104h288v-159h-288v-119h349v-159h-623z" />
<glyph unicode="F" horiz-adv-x="641" d="M30 0v700h581v-159h-307v-141h246v-159h-246v-241h-274z" />
<glyph unicode="G" horiz-adv-x="762" d="M732 364v-330q-40 -19 -140.5 -30.5t-169.5 -11.5q-110 0 -197 38.5t-141 121t-54 197.5q0 113 53 196.5t141 124t198 40.5q51 0 147.5 -14.5t134.5 -29.5v-145q-32 6 -109.5 15.5t-101.5 9.5q-188 0 -188 -197q0 -93 50.5 -139t138.5 -47v201h238z" />
<glyph unicode="H" horiz-adv-x="819" d="M515 0v278h-211v-278h-274v700h274v-263h211v263h274v-700h-274z" />
<glyph unicode="I" horiz-adv-x="334" d="M30 0v700h274v-700h-274z" />
<glyph unicode="J" horiz-adv-x="497" d="M31 -2l-1 156q16 0 38.5 0.5t30.5 0.5q41 0 67.5 36t26.5 100v409h274v-436q0 -58 -13.5 -102.5t-41 -73t-60.5 -47.5t-81 -28t-92 -12.5t-104 -3.5q-28 0 -44 1z" />
<glyph unicode="K" horiz-adv-x="847" d="M536 0l-214 277h-18v-277h-274v700h274v-223l204 223h274l-282 -303l332 -397h-296z" />
<glyph unicode="L" horiz-adv-x="645" d="M30 0v700h274v-514h311v-186h-585z" />
<glyph unicode="M" horiz-adv-x="1069" d="M765 0v304l-121 -304h-217l-123 309v-309h-274v700h324l181 -457l182 457h322v-700h-274z" />
<glyph unicode="N" horiz-adv-x="869" d="M521 0l-217 360v-360h-274v700h314l221 -367v367h274v-700h-318z" />
<glyph unicode="O" horiz-adv-x="846" d="M816 349q0 -170 -113 -263.5t-281 -93.5q-110 0 -197 38.5t-141 121t-54 197.5q0 113 53 196.5t141 124t198 40.5q173 0 283.5 -95.5t110.5 -265.5zM305 349q0 -44 8.5 -81t36 -67.5t72.5 -30.5q120 0 120 179q0 29 -5 57t-17 58.5t-37 49t-61 18.5q-46 0 -74 -34 t-35.5 -71t-7.5 -78z" />
<glyph unicode="P" horiz-adv-x="736" d="M30 0v700h385q152 0 221.5 -52.5t69.5 -184.5t-78 -189t-239 -57h-85v-217h-274zM370 562h-66v-203h55q29 3 56.5 25.5t27.5 66.5q0 61 -19 84t-54 27z" />
<glyph unicode="Q" horiz-adv-x="855" d="M574 -67l-63 67q-46 -8 -89 -8q-110 0 -197 38.5t-141 121t-54 197.5q0 113 53 196.5t141 124t198 40.5q173 0 283.5 -95.5t110.5 -265.5q0 -169 -115 -265l147 -151h-274zM305 349q0 -44 8.5 -81t36 -67.5t72.5 -30.5q120 0 120 179q0 29 -5 57t-17 58.5t-37 49 t-61 18.5q-46 0 -74 -34t-35.5 -71t-7.5 -78z" />
<glyph unicode="R" horiz-adv-x="776" d="M489 0l-117 236h-68v-236h-274v700h385q157 0 232 -49t75 -178q0 -141 -104 -195l145 -278h-274zM370 562l-66 1v-187h55q14 2 28 5.5t32 12.5t29 26.5t11 40.5q0 32 -7.5 52.5t-23.5 30t-27 12.5t-31 6z" />
<glyph unicode="S" horiz-adv-x="693" d="M510 425q157 -47 157 -213v-12q-2 -76 -56 -125t-128.5 -67t-168.5 -18q-42 0 -94 5q-111 10 -184 42l5 178q114 -48 242 -48q121 0 121 37q0 48 -200 96q-86 21 -134 66q-44 42 -44 128v11q2 58 28 98.5t72.5 62.5t101 31t124.5 9q160 0 250 -43l-4 -156q-69 42 -158 42 q-70 0 -110 -8.5t-41 -35.5q0 -14 27 -25t96.5 -28.5t97.5 -26.5z" />
<glyph unicode="T" horiz-adv-x="754" d="M30 541v159h694v-159h-210v-541h-274v541h-210z" />
<glyph unicode="U" horiz-adv-x="805" d="M501 349v351h274v-351q0 -172 -104 -264.5t-270 -92.5q-167 0 -269 91.5t-102 265.5v351h274v-351q0 -25 0.5 -40t3 -39t9 -39t16.5 -30.5t27.5 -23t40.5 -7.5q29 0 48.5 11t29.5 25.5t15 42.5t6 46.5t1 53.5z" />
<glyph unicode="V" horiz-adv-x="913" d="M898 700l-246 -700h-391l-246 700h274l167 -477l168 477h274z" />
<glyph unicode="W" horiz-adv-x="1246" d="M748 0l-127 408l-127 -408h-303l-176 700h274l97 -388l121 388h228l122 -394l100 394h274l-177 -700h-306z" />
<glyph unicode="X" horiz-adv-x="782" d="M767 700l-239 -350l239 -350h-274l-100 174l-104 -174h-274l239 350l-239 350h274l102 -165l102 165h274z" />
<glyph unicode="Y" horiz-adv-x="786" d="M256 0v286l-241 414h254l125 -236l123 236h254l-241 -414v-286h-274z" />
<glyph unicode="Z" horiz-adv-x="732" d="M30 541v159h659v-126l-336 -415h349v-159h-672v125l338 416h-338z" />
<glyph unicode="[" horiz-adv-x="352" d="M30 -100v850h292v-88h-107v-674h107v-88h-292z" />
<glyph unicode="\" horiz-adv-x="409" d="M233 0l-218 700h159l218 -700h-159z" />
<glyph unicode="]" horiz-adv-x="352" d="M322 750v-850h-292v88h107v674h-107v88h292z" />
<glyph unicode="^" horiz-adv-x="600" d="M417 389l-117 201l-117 -201h-153l181 311h178l181 -311h-153z" />
<glyph unicode="_" horiz-adv-x="724" d="M30 -127v88h664v-88h-664z" />
<glyph unicode="`" horiz-adv-x="356" d="M191 494l-161 206h202l94 -206h-135z" />
<glyph unicode="a" horiz-adv-x="650" d="M620 0h-274q0 2 1 4q-8 -2 -14 -4.5t-8 -3.5t-8 -2t-16 -1q-121 0 -198.5 63t-77.5 194q0 260 263 260q16 0 23 -1t16.5 -4t19.5 -5h273v-500zM371 149q5 53 5 96q0 57 -8 124q-51 -5 -67 -35t-16 -84q0 -45 19 -73.5t55 -28.5q8 0 12 1z" />
<glyph unicode="b" horiz-adv-x="698" d="M304 750v-251q53 11 106 11q263 0 263 -260q0 -131 -77.5 -194t-198.5 -63q-42 0 -93 12v-5h-274v750h274zM398 250q0 95 -103 115q-9 -51 -9 -103q0 -64 12 -128h4q52 0 74 26t22 90z" />
<glyph unicode="c" horiz-adv-x="557" d="M532 151v-149q-74 -10 -115 -10q-50 0 -88.5 2.5t-87.5 11t-84 26t-67 45t-48.5 71.5t-16.5 102t20 103.5t52.5 74t78 47t92 26t97.5 7.5q88 0 165 -20v-139q-36 14 -77 14q-63 0 -108 -33.5t-45 -79.5q0 -105 161 -105q13 0 71 6z" />
<glyph unicode="d" horiz-adv-x="698" d="M288 510q51 0 106 -11v251h274v-750h-274v5q-51 -12 -93 -12q-121 0 -198.5 63t-77.5 194q0 260 263 260zM300 250q0 -65 22.5 -90.5t77.5 -25.5q12 64 12 128q0 52 -9 103q-103 -20 -103 -115z" />
<glyph unicode="e" horiz-adv-x="631" d="M578 153v-125q-140 -36 -260 -36q-32 0 -68 7t-77 25.5t-73 46t-53.5 74.5t-21.5 105q0 62 19.5 109t50.5 75t74 46t84 24t87 6q266 0 266 -243v-81h-328q0 -29 32 -44.5t70 -15.5q51 0 115 10t83 17zM330 359q-16 0 -25 -2.5t-18 -17.5t-9 -44h102q-6 64 -50 64z" />
<glyph unicode="f" horiz-adv-x="536" d="M25 341v159h75q1 88 44 147.5t104.5 83.5t137.5 24q43 0 125 -21v-153q-23 9 -47 9q-37 0 -63 -22.5t-27 -67.5h112v-159h-112v-341h-274v341h-75z" />
<glyph unicode="g" horiz-adv-x="698" d="M92 -230v158q107 -32 190 -32q40 0 76 11.5t36 33.5v59q-58 -10 -106 -10q-263 0 -263 260q0 131 77.5 194t198.5 63q61 0 93 -19v12h274v-550q-4 -61 -36 -104.5t-84.5 -65.5t-107.5 -31t-119 -9q-42 0 -94 5q-70 6 -135 25zM300 250q0 -95 103 -115q9 51 9 103 q0 64 -12 128q-55 0 -77.5 -25.5t-22.5 -90.5z" />
<glyph unicode="h" horiz-adv-x="719" d="M417 0v232q0 72 -54 72q-27 0 -43 -20.5t-16 -52.5v-231h-274v750h274v-306q87 65 169 65q94 0 155 -78t61 -189v-242h-272z" />
<glyph unicode="i" horiz-adv-x="344" d="M309 500v-500h-274v500h274zM30 579v171h284v-171h-284z" />
<glyph unicode="j" horiz-adv-x="455" d="M15 -258v154h19q37 0 74.5 15.5t37.5 37.5v551h274v-550q-1 -59 -36 -105q-79 -105 -311 -105q-20 0 -58 2zM141 579v171h284v-171h-284z" />
<glyph unicode="k" horiz-adv-x="763" d="M304 750v-434l151 184h274l-248 -228l267 -272h-292l-152 220v-220h-274v750h274z" />
<glyph unicode="l" horiz-adv-x="334" d="M304 750v-750h-274v750h274z" />
<glyph unicode="m" horiz-adv-x="1118" d="M709 455q87 53 167 53q94 0 153 -71.5t59 -194.5v-242h-272v232q0 72 -57 72q-59 0 -59 -72v-232h-272v232q0 72 -61 72q-28 0 -45.5 -20.5t-17.5 -52.5v-231h-274v500h274v-56q93 64 178 64q102 0 167 -90z" />
<glyph unicode="n" horiz-adv-x="755" d="M453 0v232q0 34 -18 53t-48 19t-56.5 -21.5t-26.5 -51.5v-231h-274v500h274v-56q96 65 189 65q101 0 166.5 -72.5t65.5 -194.5v-242h-272z" />
<glyph unicode="o" horiz-adv-x="728" d="M364 -8q-34 0 -74 6.5t-88.5 24.5t-86.5 45t-64 74.5t-26 107.5q0 66 27.5 116.5t65.5 76.5t89 42.5t87 20.5t71 4q34 0 68.5 -4.5t74 -14.5t73 -30t62 -47.5t44.5 -69.5t16 -94q0 -60 -24 -107t-60.5 -74.5t-84 -45.5t-89 -24.5t-81.5 -6.5zM364 164q34 0 49 19.5 t15 66.5t-13.5 70t-50.5 23q-64 0 -64 -93q0 -86 64 -86z" />
<glyph unicode="p" horiz-adv-x="698" d="M410 -10q-49 0 -106 10v-250h-274v750h274v-6q49 13 93 13q121 0 198.5 -63t77.5 -194q0 -260 -263 -260zM300 366q-15 -64 -15 -127q0 -47 10 -104q103 20 103 115q0 64 -23 90t-75 26z" />
<glyph unicode="q" horiz-adv-x="698" d="M394 -250v250q-58 -10 -106 -10q-263 0 -263 260q0 131 77.5 194t198.5 63q44 0 93 -13v6h274v-750h-274zM300 250q0 -95 103 -115q9 51 9 103q0 64 -12 128q-55 0 -77.5 -25.5t-22.5 -90.5z" />
<glyph unicode="r" horiz-adv-x="519" d="M494 499v-154h-18q-124 0 -172 -53v-292h-274v500h274v-25q63 26 133 26q19 0 57 -2z" />
<glyph unicode="s" horiz-adv-x="531" d="M271 166q-12 14 -54 30l-81 30q-39 14 -71 49t-32 84v12q5 66 76 103t171 37q104 0 189 -38l-45 -142q-70 25 -121 25q-26 0 -26 -7q1 -11 25 -20.5t57.5 -20.5t67 -28t56.5 -50.5t23 -80.5q-6 -78 -76.5 -115.5t-172.5 -37.5q-144 0 -232 54l33 148q151 -44 199 -44 q3 0 6 0.5t7 2t4 3.5t-3 6z" />
<glyph unicode="t" horiz-adv-x="545" d="M25 341v159h88v155h274v-155h99v-159h-99v-147q0 -24 25.5 -38.5t59.5 -14.5q27 0 48 9v-138q-77 -15 -148 -15q-53 0 -97 8.5t-81.5 27t-59 52t-21.5 78.5v178h-88z" />
<glyph unicode="u" horiz-adv-x="735" d="M302 500v-232q0 -33 19 -49.5t51 -16.5q28 0 43.5 17.5t15.5 49.5v231h274v-500h-274v34q-82 -43 -162 -43q-105 0 -172 72.5t-67 194.5v242h272z" />
<glyph unicode="v" horiz-adv-x="730" d="M497 0h-270l-212 500h254l94 -297l93 297h254z" />
<glyph unicode="w" horiz-adv-x="1060" d="M467 0h-270l-182 500h254l64 -297l98 297h196l99 -297l63 297h254l-183 -500h-270l-62 262z" />
<glyph unicode="x" horiz-adv-x="730" d="M713 500l-206 -247l206 -253h-274l-72 120l-74 -120h-274l222 253l-222 247h274l74 -128l72 128h274z" />
<glyph unicode="y" horiz-adv-x="679" d="M389 500h260v-531q-3 -90 -69 -148q-91 -81 -268 -81q-42 0 -94 5q-70 6 -135 25v158q107 -32 190 -32q33 0 74.5 24t41.5 46v36q-63 -12 -117 -12q-118 0 -179.5 60t-61.5 200q0 4 -0.5 125t-0.5 125h253v-250q0 -85 50 -85q31 0 43.5 22.5t12.5 80.5v232z" />
<glyph unicode="z" horiz-adv-x="633" d="M30 341v159h560v-126l-211 -215h224v-159h-573v125l212 216h-212z" />
<glyph unicode="{" horiz-adv-x="339" d="M309 834v-105q-52 0 -52 -58v-27l1 -66q1 -66 1 -142q0 -65 -21 -89t-64 -28q41 -2 61 -22.5t20 -75.5v-244q0 -64 52 -64v-107h-99q-42 0 -79 41.5t-37 116.5l11 201q0 46 -23.5 90.5t-40.5 44.5q-9 9 -9 18q0 8 9 17q17 0 40.5 45t23.5 91l-11 205q0 75 37 116.5 t79 41.5h101z" />
<glyph unicode="|" horiz-adv-x="219" d="M189 700v-822h-159v822h159z" />
<glyph unicode="}" horiz-adv-x="339" d="M30 729v105h101q42 0 79 -41.5t37 -116.5l-11 -205q0 -46 23.5 -91t40.5 -45q9 -9 9 -17q0 -9 -9 -18q-17 0 -40.5 -44.5t-23.5 -90.5l11 -201q0 -75 -37 -116.5t-79 -41.5h-99v107q51 0 51 53q0 3 -0.5 9t-1 20t-1 37t-1 68t-0.5 104q0 65 21.5 88.5t64.5 26.5 q-41 4 -61 25t-20 75v242q0 68 -54 68z" />
<glyph unicode="~" horiz-adv-x="582" d="M552 462v-221q-7 -4 -30.5 -21t-36 -25t-33.5 -19.5t-39.5 -16.5t-37.5 -5q-40 0 -74 26l-28 22l-31 25q-11 9 -29 17.5t-36 10.5q-19 0 -48.5 -20t-98.5 -82v197q55 61 138 97q16 6 30 6q17 0 35.5 -9t28 -16.5t30 -26.5t24.5 -23q27 -26 62 -26q20 0 40.5 7.5t41.5 23 t35 27t33 30t24 22.5z" />
<glyph unicode="&#xa1;" horiz-adv-x="344" d="M309 230v-429h-274v429h274zM30 330v171h284v-171h-284z" />
<glyph unicode="&#xa2;" horiz-adv-x="559" d="M532 151l2 -149q-74 -10 -117 -10q-29 0 -43 1v-69h-77v73q-272 27 -272 253q0 62 22.5 109.5t61.5 76.5t85.5 45.5t102.5 22.5v70h77v-66q82 -1 156 -20v-139q-36 14 -77 14q-63 0 -108 -33.5t-45 -79.5q0 -105 161 -105q13 0 71 6z" />
<glyph unicode="&#xa3;" horiz-adv-x="670" d="M30 431h80v69q1 88 44 147.5t104.5 83.5t137.5 24q43 0 125 -21v-153q-23 9 -47 9q-38 0 -64 -23t-26 -67v-69h158v-132h-158v-140h256v-159h-530v299h-80v132z" />
<glyph unicode="&#xa4;" horiz-adv-x="719" d="M689 142l-80 -80l-82 82q-72 -55 -165 -55q-94 0 -168 57l-84 -84l-80 80l91 91q-34 60 -34 131q0 70 32 129l-89 89l80 80l82 -82q76 60 170 60q91 0 168 -57l79 79l80 -80l-86 -86q35 -62 35 -132q0 -72 -36 -135zM236 364q0 -52 37 -89t89 -37q53 0 90.5 37t37.5 89 q0 53 -37.5 90.5t-90.5 37.5q-52 0 -89 -37.5t-37 -90.5z" />
<glyph unicode="&#xa5;" horiz-adv-x="786" d="M179 184v81h77v21l-241 414h254l125 -236l123 236h254l-241 -414v-21h81v-81h-81v-51h81v-81h-81v-52h-274v52h-77v81h77v51h-77z" />
<glyph unicode="&#xa6;" horiz-adv-x="219" d="M30 239h159v-361h-159v361zM189 345h-159v355h159v-355z" />
<glyph unicode="&#xa7;" horiz-adv-x="529" d="M192 203q-34 16 -53 26.5t-46.5 30t-41 44.5t-13.5 55v11q4 59 58 96q-41 36 -41 102q5 66 69 103t157 37q96 0 181 -38l-42 -131q-100 32 -130 32q-19 0 -19 -12t24 -22.5t65 -25.5t68 -32q71 -53 71 -121v-12q-4 -61 -48 -100q31 -36 31 -86v-12q-6 -78 -71 -115.5 t-160 -37.5q-133 0 -221 54l30 135q118 -35 174 -35q39 0 39 16q-2 8 -15 14t-35 13t-31 11zM300 371q-6 6 -26 6q-30 0 -30 -15q0 -11 14 -20q44 5 44 22q0 5 -2 7z" />
<glyph unicode="&#xa8;" horiz-adv-x="492" d="M30 602v147h166v-147h-166zM295 602v147h167v-147h-167z" />
<glyph unicode="&#xa9;" horiz-adv-x="772" d="M25 350q0 149 106 255t255 106t255 -106t106 -255t-106 -255t-255 -106t-255 106t-106 255zM142 350q0 -101 71.5 -172.5t172.5 -71.5t172.5 71.5t71.5 172.5t-71.5 172.5t-172.5 71.5t-172.5 -71.5t-71.5 -172.5zM487 285l50 -71q-55 -32 -127 -32q-81 0 -139 44 t-58 126q0 79 56 125.5t133 46.5q78 0 132 -47l-56 -51q-35 19 -66 19q-41 0 -67.5 -28.5t-26.5 -66.5t29.5 -59.5t71.5 -21.5q36 0 68 16z" />
<glyph unicode="&#xaa;" horiz-adv-x="531" d="M501 300h-219v4q-6 -2 -10.5 -4t-6.5 -3t-6.5 -1.5t-12.5 -0.5q-97 0 -159 50t-62 154q0 209 210 209q13 0 19 -0.5t13 -3t15 -4.5h219v-400zM302 420q4 32 4 73q0 34 -6 102q-40 -3 -53.5 -27.5t-13.5 -68.5q0 -35 15 -57.5t43 -22.5q7 0 11 1z" />
<glyph unicode="&#xab;" horiz-adv-x="645" d="M344 28h-194l-125 234l125 227h194l-113 -227zM620 28h-194l-125 234l125 227h194l-113 -227z" />
<glyph unicode="&#xac;" horiz-adv-x="567" d="M30 276v160h507v-309h-160v149h-347z" />
<glyph unicode="&#xad;" horiz-adv-x="479" d="M30 217v160h419v-160h-419z" />
<glyph unicode="&#xae;" horiz-adv-x="772" d="M25 350q0 149 106 255t255 106t255 -106t106 -255t-106 -255t-255 -106t-255 106t-106 255zM142 350q0 -101 71.5 -172.5t172.5 -71.5t172.5 71.5t71.5 172.5t-71.5 172.5t-172.5 71.5t-172.5 -71.5t-71.5 -172.5zM431 169l-32 110h-50v-110h-88v357h89q86 0 134 -27 t48 -100q0 -68 -51 -104l45 -126h-95zM349 439v-78q19 -3 37 -3q55 0 55 33q0 27 -12.5 38t-56.5 11q-3 0 -11 -0.5t-12 -0.5z" />
<glyph unicode="&#xaf;" horiz-adv-x="510" d="M30 583v117h450v-117h-450z" />
<glyph unicode="&#xb0;" horiz-adv-x="392" d="M25 538q0 71 50 121.5t121 50.5t121 -50.5t50 -121.5q0 -70 -50.5 -120t-120.5 -50t-120.5 50t-50.5 120zM131 538q0 -26 19 -45t46 -19q26 0 44.5 19t18.5 45t-18.5 44.5t-44.5 18.5q-27 0 -46 -18.5t-19 -44.5z" />
<glyph unicode="&#xb1;" horiz-adv-x="567" d="M38 353v160h162v163h160v-163h163v-160h-163v-162h-160v162h-162zM30 0v160h507v-160h-507z" />
<glyph unicode="&#xb2;" horiz-adv-x="420" d="M390 300h-360v132l8 4q154 75 154 125q0 38 -48 38q-51 0 -100 -29v101q64 37 149 37q78 0 131.5 -36t53.5 -110q0 -43 -41.5 -83t-108.5 -70h162v-109z" />
<glyph unicode="&#xb3;" horiz-adv-x="421" d="M30 312v99q50 -22 114 -22q72 0 72 34q0 35 -81 35h-38v102q22 -4 43 -4q73 0 73 34q0 31 -75 31q-59 0 -101 -22v91q69 23 152 23q54 0 96.5 -11t72 -39.5t29.5 -72.5q0 -26 -12.5 -48.5t-28.5 -32.5q18 -8 31.5 -33.5t13.5 -52.5q0 -73 -54 -104.5t-138 -31.5 q-81 0 -169 25z" />
<glyph unicode="&#xb4;" horiz-adv-x="360" d="M330 700l-165 -206h-135l98 206h202z" />
<glyph unicode="&#xb5;" horiz-adv-x="735" d="M302 500v-232q0 -33 19 -49.5t51 -16.5q28 0 43.5 17.5t15.5 49.5v231h274v-500h-274v34q-37 -30 -78 -30q-29 0 -51 14v-268h-272v750h272z" />
<glyph unicode="&#x3bc;" horiz-adv-x="735" d="M302 500v-232q0 -33 19 -49.5t51 -16.5q28 0 43.5 17.5t15.5 49.5v231h274v-500h-274v34q-37 -30 -78 -30q-29 0 -51 14v-268h-272v750h272z" />
<glyph unicode="&#xb6;" horiz-adv-x="629" d="M599 700v-700h-165v571q-7 1 -27 1q-10 0 -25 -3v-569h-165v226q-99 21 -145.5 84t-46.5 153q0 200 192 237h382z" />
<glyph unicode="&#xb7;" horiz-adv-x="278" d="M30 200v192h218v-192h-218z" />
<glyph unicode="&#xb8;" horiz-adv-x="320" d="M100 -64v64h129v-64q61 -68 61 -118q0 -44 -44.5 -66.5t-107.5 -22.5q-62 0 -108 19v82q42 -14 72 -14q46 0 46 33q0 35 -48 87z" />
<glyph unicode="&#xb9;" horiz-adv-x="330" d="M20 634l93 67h187v-402h-171v272l-49 -40z" />
<glyph unicode="&#xba;" horiz-adv-x="498" d="M249 289q-23 0 -49 5t-58 20t-57.5 37t-42.5 60.5t-17 86.5q0 54 18 94.5t43 62t58.5 34.5t57.5 16.5t47 3.5q28 0 55.5 -5t58.5 -19t55 -36.5t39.5 -61.5t15.5 -89q0 -49 -16 -87t-40 -60.5t-55.5 -37t-59 -19.5t-53.5 -5zM249 429q22 0 32 15.5t10 53.5q0 39 -9 57 t-33 18q-43 0 -43 -75q0 -69 43 -69z" />
<glyph unicode="&#xbb;" horiz-adv-x="645" d="M495 28h-194l113 234l-113 227h194l125 -227zM219 28h-194l113 234l-113 227h194l125 -227z" />
<glyph unicode="&#xbc;" horiz-adv-x="932" d="M739 700l-479 -700h-112l479 700h112zM18 634l93 67h189v-402h-173v272l-49 -40zM673 0v86h-202v87l180 227h200v-224h51v-90h-51v-86h-178zM619 176h54v74z" />
<glyph unicode="&#xbd;" horiz-adv-x="941" d="M740 700l-479 -700h-112l479 700h112zM19 634l93 67h189v-402h-173v272l-49 -40zM911 0h-360v132l8 4q154 75 154 125q0 38 -48 38q-51 0 -100 -29v101q64 37 149 37q78 0 131.5 -36t53.5 -110q0 -43 -41.5 -83t-108.5 -70h162v-109z" />
<glyph unicode="&#xbe;" horiz-adv-x="983" d="M30 312v99q50 -22 114 -22q72 0 72 34q0 35 -81 35h-38v102q22 -4 43 -4q73 0 73 34q0 31 -75 31q-59 0 -101 -22v91q69 23 152 23q54 0 96.5 -11t72 -39.5t29.5 -72.5q0 -26 -12.5 -48.5t-28.5 -32.5q18 -8 31.5 -33.5t13.5 -52.5q0 -73 -54 -104.5t-138 -31.5 q-81 0 -169 25zM790 700l-479 -700h-112l479 700h112zM724 0v86h-202v87l180 227h200v-224h51v-90h-51v-86h-178zM670 176h54v74z" />
<glyph unicode="&#xbf;" horiz-adv-x="594" d="M471 500v-180h-217v180h217zM471 260v-113l-43 -19l-38 -16q-11 -5 -28.5 -14t-25 -15.5t-16 -16.5t-11.5 -21.5t-3 -26.5q0 -74 73 -74q38 0 80 21l135 -73q-94 -98 -258 -98q-122 0 -199 54t-77 170q0 44 12 77t29.5 52.5t46 34.5t51 21t55.5 13v44h217z" />
<glyph unicode="&#xc0;" d="M672 700l266 -700h-274l-51 133h-274l-50 -133h-274l266 700h391zM553 292l-77 201l-76 -201h153zM397 753l-161 206h202l94 -206h-135z" />
<glyph unicode="&#xc1;" d="M672 700l266 -700h-274l-51 133h-274l-50 -133h-274l266 700h391zM553 292l-77 201l-76 -201h153zM741 961l-165 -206h-135l98 206h202z" />
<glyph unicode="&#xc2;" d="M672 700l266 -700h-274l-51 133h-274l-50 -133h-274l266 700h391zM553 292l-77 201l-76 -201h153zM539 763l-62 72l-62 -72h-133l123 144h144l123 -144h-133z" />
<glyph unicode="&#xc3;" d="M672 700l266 -700h-274l-51 133h-274l-50 -133h-274l266 700h391zM553 292l-77 201l-76 -201h153zM689 950v-146l-21 -12l-22 -14l-23 -11.5t-26 -11t-25 -6.5t-27 -3q-33 0 -61 17l-28 19q-23 16 -38.5 23t-34.5 8q-27 0 -120 -68v131q28 25 67.5 46.5t70.5 21.5 q14 0 28.5 -5.5t23 -11t24.5 -17.5l20 -15q22 -18 51 -18q19 0 43 9.5t37 18t36.5 26.5t24.5 19z" />
<glyph unicode="&#xc4;" d="M672 700l266 -700h-274l-51 133h-274l-50 -133h-274l266 700h391zM553 292l-77 201l-76 -201h153zM262 767v147h166v-147h-166zM527 767v147h167v-147h-167z" />
<glyph unicode="&#xc5;" d="M672 700l266 -700h-274l-51 133h-274l-50 -133h-274l266 700h391zM553 292l-77 201l-76 -201h153zM324 883q0 64 45 109t108 45q64 0 109 -45t45 -109q0 -63 -45 -108t-109 -45q-63 0 -108 45t-45 108zM419 883q0 -24 17 -41t41 -17q23 0 40 17t17 41q0 23 -17 40t-40 17 q-24 0 -41 -17t-17 -40z" />
<glyph unicode="&#xc6;" horiz-adv-x="1142" d="M489 0v133h-150l-50 -133h-274l266 700h831v-159h-349v-104h288v-159h-288v-119h349v-159h-623zM400 292h89v234z" />
<glyph unicode="&#xc7;" horiz-adv-x="729" d="M372 -33v27q-151 13 -246.5 105t-95.5 250q0 113 53 196.5t141 124t198 40.5q59 0 143 -9t120 -23v-145q-67 13 -192 13q-83 0 -135.5 -50t-52.5 -147q0 -94 46.5 -140t126.5 -46q42 0 112.5 8.5t108.5 21.5v-159q-60 -28 -198 -38v-29q61 -68 61 -118q0 -44 -44.5 -66.5 t-107.5 -22.5q-62 0 -108 19v82q42 -14 72 -14q46 0 46 33q0 34 -48 87z" />
<glyph unicode="&#xc8;" horiz-adv-x="683" d="M30 0v700h623v-159h-349v-104h288v-159h-288v-119h349v-159h-623zM298 749l-161 206h202l94 -206h-135z" />
<glyph unicode="&#xc9;" horiz-adv-x="683" d="M30 0v700h623v-159h-349v-104h288v-159h-288v-119h349v-159h-623zM561 955l-165 -206h-135l98 206h202z" />
<glyph unicode="&#xca;" horiz-adv-x="683" d="M30 0v700h623v-159h-349v-104h288v-159h-288v-119h349v-159h-623zM419 749l-74 74l-73 -74h-158l146 147h171l146 -147h-158z" />
<glyph unicode="&#xcb;" horiz-adv-x="683" d="M30 0v700h623v-159h-349v-104h288v-159h-288v-119h349v-159h-623zM130 770v147h166v-147h-166zM395 770v147h167v-147h-167z" />
<glyph unicode="&#xcc;" horiz-adv-x="409" d="M105 0v700h274v-700h-274zM176 751l-161 206h202l94 -206h-135z" />
<glyph unicode="&#xcd;" horiz-adv-x="413" d="M30 0v700h274v-700h-274zM398 956l-165 -206h-135l98 206h202z" />
<glyph unicode="&#xce;" horiz-adv-x="493" d="M104 0v700h274v-700h-274zM320 753l-74 74l-73 -74h-158l146 147h171l146 -147h-158z" />
<glyph unicode="&#xcf;" horiz-adv-x="462" d="M89 0v700h274v-700h-274zM15 766v147h166v-147h-166zM280 766v147h167v-147h-167z" />
<glyph unicode="&#xd0;" horiz-adv-x="899" d="M15 276v160h78v264h389q111 0 198 -38t140.5 -119t53.5 -194q0 -87 -31 -155t-85 -109.5t-124 -63t-152 -21.5h-389v276h-78zM411 546h-44v-110h67v-160h-67v-113h71q161 0 161 186q0 197 -188 197z" />
<glyph unicode="&#xd1;" horiz-adv-x="869" d="M521 0l-217 360v-360h-274v700h314l221 -367v367h274v-700h-318zM629 946v-146l-21 -12l-22 -14l-23 -11.5t-26 -11t-25 -6.5t-27 -3q-33 0 -61 17l-28 19q-23 16 -38.5 23t-34.5 8q-27 0 -120 -68v131q28 25 67.5 46.5t70.5 21.5q14 0 28.5 -5.5t23 -11t24.5 -17.5 l20 -15q22 -18 51 -18q19 0 43 9.5t37 18t36.5 26.5t24.5 19z" />
<glyph unicode="&#xd2;" horiz-adv-x="836" d="M811 349q0 -170 -113 -263.5t-281 -93.5q-110 0 -197 38.5t-141 121t-54 197.5q0 113 53 196.5t141 124t198 40.5q173 0 283.5 -95.5t110.5 -265.5zM300 349q0 -44 8.5 -81t36 -67.5t72.5 -30.5q120 0 120 179q0 29 -5 57t-17 58.5t-37 49t-61 18.5q-46 0 -74 -34 t-35.5 -71t-7.5 -78zM359 755l-161 206h202l94 -206h-135z" />
<glyph unicode="&#xd3;" horiz-adv-x="836" d="M811 349q0 -170 -113 -263.5t-281 -93.5q-110 0 -197 38.5t-141 121t-54 197.5q0 113 53 196.5t141 124t198 40.5q173 0 283.5 -95.5t110.5 -265.5zM300 349q0 -44 8.5 -81t36 -67.5t72.5 -30.5q120 0 120 179q0 29 -5 57t-17 58.5t-37 49t-61 18.5q-46 0 -74 -34 t-35.5 -71t-7.5 -78zM682 963l-165 -206h-135l98 206h202z" />
<glyph unicode="&#xd4;" horiz-adv-x="836" d="M811 349q0 -170 -113 -263.5t-281 -93.5q-110 0 -197 38.5t-141 121t-54 197.5q0 113 53 196.5t141 124t198 40.5q173 0 283.5 -95.5t110.5 -265.5zM300 349q0 -44 8.5 -81t36 -67.5t72.5 -30.5q120 0 120 179q0 29 -5 57t-17 58.5t-37 49t-61 18.5q-46 0 -74 -34 t-35.5 -71t-7.5 -78zM494 753l-74 74l-73 -74h-158l146 147h171l146 -147h-158z" />
<glyph unicode="&#xd5;" horiz-adv-x="836" d="M811 349q0 -170 -113 -263.5t-281 -93.5q-110 0 -197 38.5t-141 121t-54 197.5q0 113 53 196.5t141 124t198 40.5q173 0 283.5 -95.5t110.5 -265.5zM300 349q0 -44 8.5 -81t36 -67.5t72.5 -30.5q120 0 120 179q0 29 -5 57t-17 58.5t-37 49t-61 18.5q-46 0 -74 -34 t-35.5 -71t-7.5 -78zM633 952v-146l-21 -12l-22 -14l-23 -11.5t-26 -11t-25 -6.5t-27 -3q-33 0 -61 17l-28 19q-23 16 -38.5 23t-34.5 8q-27 0 -120 -68v131q28 25 67.5 46.5t70.5 21.5q14 0 28.5 -5.5t23 -11t24.5 -17.5l20 -15q22 -18 51 -18q19 0 43 9.5t37 18t36.5 26.5 t24.5 19z" />
<glyph unicode="&#xd6;" horiz-adv-x="836" d="M811 349q0 -170 -113 -263.5t-281 -93.5q-110 0 -197 38.5t-141 121t-54 197.5q0 113 53 196.5t141 124t198 40.5q173 0 283.5 -95.5t110.5 -265.5zM300 349q0 -44 8.5 -81t36 -67.5t72.5 -30.5q120 0 120 179q0 29 -5 57t-17 58.5t-37 49t-61 18.5q-46 0 -74 -34 t-35.5 -71t-7.5 -78zM204 759v147h166v-147h-166zM469 759v147h167v-147h-167z" />
<glyph unicode="&#xd7;" horiz-adv-x="596" d="M447 567l119 -120l-148 -148l148 -148l-120 -120l-148 148l-148 -148l-120 120l148 148l-148 148l119 120l149 -149z" />
<glyph unicode="&#xd8;" horiz-adv-x="836" d="M811 349q0 -170 -113 -263.5t-281 -93.5q-50 0 -89 7l-27 -68h-85l35 88q-104 37 -165 121t-61 209q0 113 53 196.5t141 124t198 40.5q49 0 104 -10l26 64h85l-35 -87q100 -39 157 -123.5t57 -204.5zM300 349q0 -86 30 -132l122 309q-15 6 -35 6q-46 0 -74 -34t-35.5 -71 t-7.5 -78zM537 349q0 69 -23 118l-118 -296q7 -1 21 -1q120 0 120 179z" />
<glyph unicode="&#xd9;" horiz-adv-x="805" d="M501 349v351h274v-351q0 -172 -104 -264.5t-270 -92.5q-167 0 -269 91.5t-102 265.5v351h274v-351q0 -25 0.5 -40t3 -39t9 -39t16.5 -30.5t27.5 -23t40.5 -7.5q29 0 48.5 11t29.5 25.5t15 42.5t6 46.5t1 53.5zM338 748l-161 206h202l94 -206h-135z" />
<glyph unicode="&#xda;" horiz-adv-x="805" d="M501 349v351h274v-351q0 -172 -104 -264.5t-270 -92.5q-167 0 -269 91.5t-102 265.5v351h274v-351q0 -25 0.5 -40t3 -39t9 -39t16.5 -30.5t27.5 -23t40.5 -7.5q29 0 48.5 11t29.5 25.5t15 42.5t6 46.5t1 53.5zM637 956l-165 -206h-135l98 206h202z" />
<glyph unicode="&#xdb;" horiz-adv-x="805" d="M501 349v351h274v-351q0 -172 -104 -264.5t-270 -92.5q-167 0 -269 91.5t-102 265.5v351h274v-351q0 -25 0.5 -40t3 -39t9 -39t16.5 -30.5t27.5 -23t40.5 -7.5q29 0 48.5 11t29.5 25.5t15 42.5t6 46.5t1 53.5zM478 753l-74 74l-73 -74h-158l146 147h171l146 -147h-158z " />
<glyph unicode="&#xdc;" horiz-adv-x="805" d="M501 349v351h274v-351q0 -172 -104 -264.5t-270 -92.5q-167 0 -269 91.5t-102 265.5v351h274v-351q0 -25 0.5 -40t3 -39t9 -39t16.5 -30.5t27.5 -23t40.5 -7.5q29 0 48.5 11t29.5 25.5t15 42.5t6 46.5t1 53.5zM189 753v147h166v-147h-166zM454 753v147h167v-147h-167z " />
<glyph unicode="&#xdd;" horiz-adv-x="786" d="M256 0v286l-241 414h254l125 -236l123 236h254l-241 -414v-286h-274zM636 945l-165 -206h-135l98 206h202z" />
<glyph unicode="&#xde;" horiz-adv-x="709" d="M30 0v700h274v-109h89q152 0 221.5 -52.5t69.5 -184.5t-78 -189t-239 -57h-63v-108h-274zM348 452l-44 3v-207q11 1 18.5 2.5t14.5 1.5q29 3 56.5 24.5t27.5 65.5q0 61 -19 83t-54 27z" />
<glyph unicode="&#xdf;" horiz-adv-x="725" d="M355 332l1 82l22 11q18 9 26.5 15t21 17t18 26.5t5.5 34.5q0 33 -7.5 53.5t-23 29t-27.5 11t-31 2.5q-29 0 -42.5 -41.5t-13.5 -103.5v-469h-274v364q0 25 1 47t7 63.5t16 75.5t30.5 73t49 65t73 44t99.5 18h97q119 0 194.5 -57.5t75.5 -170.5q0 -64 -58 -117 q85 -38 85 -154q0 -71 -23 -123t-63 -80.5t-89 -42t-107 -13.5q-21 0 -63 4v144q109 11 109 105q0 21 -5.5 35.5t-20 23t-23.5 12.5t-31 9t-29 7z" />
<glyph unicode="&#xe0;" horiz-adv-x="650" d="M620 0h-274q0 2 1 4q-8 -2 -14 -4.5t-8 -3.5t-8 -2t-16 -1q-121 0 -198.5 63t-77.5 194q0 260 263 260q16 0 23 -1t16.5 -4t19.5 -5h273v-500zM371 149q5 53 5 96q0 57 -8 124q-51 -5 -67 -35t-16 -84q0 -45 19 -73.5t55 -28.5q8 0 12 1zM273 552l-173 165h217l101 -165 h-145z" />
<glyph unicode="&#xe1;" horiz-adv-x="650" d="M620 0h-274q0 2 1 4q-8 -2 -14 -4.5t-8 -3.5t-8 -2t-16 -1q-121 0 -198.5 63t-77.5 194q0 260 263 260q16 0 23 -1t16.5 -4t19.5 -5h273v-500zM371 149q5 53 5 96q0 57 -8 124q-51 -5 -67 -35t-16 -84q0 -45 19 -73.5t55 -28.5q8 0 12 1zM602 722l-177 -174h-145l105 174 h217z" />
<glyph unicode="&#xe2;" horiz-adv-x="650" d="M620 0h-274q0 2 1 4q-8 -2 -14 -4.5t-8 -3.5t-8 -2t-16 -1q-121 0 -198.5 63t-77.5 194q0 260 263 260q16 0 23 -1t16.5 -4t19.5 -5h273v-500zM371 149q5 53 5 96q0 57 -8 124q-51 -5 -67 -35t-16 -84q0 -45 19 -73.5t55 -28.5q8 0 12 1zM428 557l-74 74l-73 -74h-158 l146 147h171l146 -147h-158z" />
<glyph unicode="&#xe3;" horiz-adv-x="650" d="M620 0h-274q0 2 1 4q-8 -2 -14 -4.5t-8 -3.5t-8 -2t-16 -1q-121 0 -198.5 63t-77.5 194q0 260 263 260q16 0 23 -1t16.5 -4t19.5 -5h273v-500zM371 149q5 53 5 96q0 57 -8 124q-51 -5 -67 -35t-16 -84q0 -45 19 -73.5t55 -28.5q8 0 12 1zM558 750v-146l-20 -12l-24 -14 q-7 -4 -22 -11.5t-26 -11t-25 -6.5t-27 -3q-33 0 -61 17l-29 19q-22 16 -37.5 23t-34.5 8q-15 0 -39.5 -13.5t-80.5 -54.5v131q28 25 67.5 46.5t70.5 21.5q14 0 28.5 -5.5t23 -11t24.5 -17.5l20 -15q22 -18 51 -18q19 0 43 9.5t37 18t36.5 26.5t24.5 19z" />
<glyph unicode="&#xe4;" horiz-adv-x="650" d="M620 0h-274q0 2 1 4q-8 -2 -14 -4.5t-8 -3.5t-8 -2t-16 -1q-121 0 -198.5 63t-77.5 194q0 260 263 260q16 0 23 -1t16.5 -4t19.5 -5h273v-500zM371 149q5 53 5 96q0 57 -8 124q-51 -5 -67 -35t-16 -84q0 -45 19 -73.5t55 -28.5q8 0 12 1zM141 557v147h166v-147h-166z M406 557v147h167v-147h-167z" />
<glyph unicode="&#xe5;" horiz-adv-x="650" d="M620 0h-274q0 2 1 4q-8 -2 -14 -4.5t-8 -3.5t-8 -2t-16 -1q-121 0 -198.5 63t-77.5 194q0 260 263 260q16 0 23 -1t16.5 -4t19.5 -5h273v-500zM371 149q5 53 5 96q0 57 -8 124q-51 -5 -67 -35t-16 -84q0 -45 19 -73.5t55 -28.5q8 0 12 1zM203 686q0 64 45 109t108 45 q64 0 109 -45t45 -109q0 -63 -45 -108t-109 -45q-63 0 -108 45t-45 108zM298 686q0 -24 17 -41t41 -17q23 0 40 17t17 41q0 23 -17 40t-40 17q-24 0 -41 -17t-17 -40z" />
<glyph unicode="&#xe6;" horiz-adv-x="1007" d="M620 0h-274q0 2 1 4q-8 -2 -14 -4.5t-8 -3.5t-8 -2t-16 -1q-121 0 -198.5 63t-77.5 194q0 260 263 260q16 0 23 -1t16.5 -4t19.5 -5h263q50 10 106 10q266 0 266 -243v-81h-328q0 -29 32 -44.5t70 -15.5q51 0 115 10t83 17v-125q-140 -36 -260 -36q-31 0 -74 8zM371 149 q5 53 5 96q0 57 -8 124q-51 -5 -67 -35t-16 -84q0 -45 19 -73.5t55 -28.5q8 0 12 1zM706 359q-16 0 -25 -2.5t-18 -17.5t-9 -44h102q-6 64 -50 64z" />
<glyph unicode="&#xe7;" horiz-adv-x="559" d="M269 -22v23q-52 8 -93 23t-76.5 43t-55 74.5t-19.5 108.5q0 58 20 103.5t52.5 74t78 47t92 26t97.5 7.5q88 0 165 -20v-139q-36 14 -77 14q-63 0 -108 -33.5t-45 -79.5q0 -105 161 -105q11 0 73 6v-149q-74 -10 -117 -10h-25v-14q58 -57 58 -99q0 -38 -42 -57t-102 -19 t-103 16v70q37 -12 68 -12q44 0 44 28q0 30 -46 73z" />
<glyph unicode="&#xe8;" horiz-adv-x="631" d="M578 153v-125q-140 -36 -260 -36q-32 0 -68 7t-77 25.5t-73 46t-53.5 74.5t-21.5 105q0 62 19.5 109t50.5 75t74 46t84 24t87 6q266 0 266 -243v-81h-328q0 -29 32 -44.5t70 -15.5q51 0 115 10t83 17zM330 359q-16 0 -25 -2.5t-18 -17.5t-9 -44h102q-6 64 -50 64z M254 550l-173 165h217l101 -165h-145z" />
<glyph unicode="&#xe9;" horiz-adv-x="631" d="M578 153v-125q-140 -36 -260 -36q-32 0 -68 7t-77 25.5t-73 46t-53.5 74.5t-21.5 105q0 62 19.5 109t50.5 75t74 46t84 24t87 6q266 0 266 -243v-81h-328q0 -29 32 -44.5t70 -15.5q51 0 115 10t83 17zM330 359q-16 0 -25 -2.5t-18 -17.5t-9 -44h102q-6 64 -50 64z M575 722l-177 -174h-145l105 174h217z" />
<glyph unicode="&#xea;" horiz-adv-x="631" d="M578 153v-125q-140 -36 -260 -36q-32 0 -68 7t-77 25.5t-73 46t-53.5 74.5t-21.5 105q0 62 19.5 109t50.5 75t74 46t84 24t87 6q266 0 266 -243v-81h-328q0 -29 32 -44.5t70 -15.5q51 0 115 10t83 17zM330 359q-16 0 -25 -2.5t-18 -17.5t-9 -44h102q-6 64 -50 64z M398 553l-74 74l-73 -74h-158l146 147h171l146 -147h-158z" />
<glyph unicode="&#xeb;" horiz-adv-x="631" d="M578 153v-125q-140 -36 -260 -36q-32 0 -68 7t-77 25.5t-73 46t-53.5 74.5t-21.5 105q0 62 19.5 109t50.5 75t74 46t84 24t87 6q266 0 266 -243v-81h-328q0 -29 32 -44.5t70 -15.5q51 0 115 10t83 17zM330 359q-16 0 -25 -2.5t-18 -17.5t-9 -44h102q-6 64 -50 64z M114 556v147h166v-147h-166zM379 556v147h167v-147h-167z" />
<glyph unicode="&#xec;" horiz-adv-x="418" d="M388 500v-500h-274v500h274zM188 585l-173 165h217l101 -165h-145z" />
<glyph unicode="&#xed;" horiz-adv-x="426" d="M304 500v-500h-274v500h274zM411 722l-177 -174h-145l105 174h217z" />
<glyph unicode="&#xee;" horiz-adv-x="493" d="M383 500v-500h-274v500h274zM320 553l-74 74l-73 -74h-158l146 147h171l146 -147h-158z" />
<glyph unicode="&#xef;" horiz-adv-x="462" d="M368 500v-500h-274v500h274zM15 602v147h166v-147h-166zM280 602v147h167v-147h-167z" />
<glyph unicode="&#xf0;" horiz-adv-x="755" d="M292 495l-56 56l80 70q-51 13 -112 13h-23l30 118q36 6 93 6q84 0 139 -12l12 -3l81 71l56 -56l-57 -50q86 -51 140.5 -143t54.5 -202q0 -46 -10 -89q-29 -136 -131.5 -210.5t-248.5 -74.5q-27 0 -54 3q-102 9 -181.5 77t-79.5 162q0 57 33 114q69 121 216 121 q118 0 211 -69v16q0 112 -90 173zM260 272q-9 -15 -9 -29q0 -33 48 -57q27 -15 53 -15q56 0 102 74q-63 69 -126 69q-43 0 -68 -42z" />
<glyph unicode="&#xf1;" horiz-adv-x="755" d="M453 0v232q0 34 -18 53t-48 19t-56.5 -21.5t-26.5 -51.5v-231h-274v500h274v-56q96 65 189 65q101 0 166.5 -72.5t65.5 -194.5v-242h-272zM590 754v-146l-20 -12l-24 -14q-7 -4 -22 -11.5t-26 -11t-25 -6.5t-27 -3q-33 0 -61 17l-29 19q-22 16 -37.5 23t-34.5 8 q-15 0 -39.5 -13.5t-80.5 -54.5v131q28 25 67.5 46.5t70.5 21.5q14 0 28.5 -5.5t23 -11t24.5 -17.5l20 -15q22 -18 51 -18q19 0 43 9.5t37 18t36.5 26.5t24.5 19z" />
<glyph unicode="&#xf2;" horiz-adv-x="728" d="M364 -8q-34 0 -74 6.5t-88.5 24.5t-86.5 45t-64 74.5t-26 107.5q0 66 27.5 116.5t65.5 76.5t89 42.5t87 20.5t71 4q34 0 68.5 -4.5t74 -14.5t73 -30t62 -47.5t44.5 -69.5t16 -94q0 -60 -24 -107t-60.5 -74.5t-84 -45.5t-89 -24.5t-81.5 -6.5zM364 164q34 0 49 19.5 t15 66.5t-13.5 70t-50.5 23q-64 0 -64 -93q0 -86 64 -86zM280 548l-173 165h217l101 -165h-145z" />
<glyph unicode="&#xf3;" horiz-adv-x="728" d="M364 -8q-34 0 -74 6.5t-88.5 24.5t-86.5 45t-64 74.5t-26 107.5q0 66 27.5 116.5t65.5 76.5t89 42.5t87 20.5t71 4q34 0 68.5 -4.5t74 -14.5t73 -30t62 -47.5t44.5 -69.5t16 -94q0 -60 -24 -107t-60.5 -74.5t-84 -45.5t-89 -24.5t-81.5 -6.5zM364 164q34 0 49 19.5 t15 66.5t-13.5 70t-50.5 23q-64 0 -64 -93q0 -86 64 -86zM617 722l-177 -174h-145l105 174h217z" />
<glyph unicode="&#xf4;" horiz-adv-x="728" d="M364 -8q-34 0 -74 6.5t-88.5 24.5t-86.5 45t-64 74.5t-26 107.5q0 66 27.5 116.5t65.5 76.5t89 42.5t87 20.5t71 4q34 0 68.5 -4.5t74 -14.5t73 -30t62 -47.5t44.5 -69.5t16 -94q0 -60 -24 -107t-60.5 -74.5t-84 -45.5t-89 -24.5t-81.5 -6.5zM364 164q34 0 49 19.5 t15 66.5t-13.5 70t-50.5 23q-64 0 -64 -93q0 -86 64 -86zM445 553l-74 74l-73 -74h-158l146 147h171l146 -147h-158z" />
<glyph unicode="&#xf5;" horiz-adv-x="728" d="M364 -8q-34 0 -74 6.5t-88.5 24.5t-86.5 45t-64 74.5t-26 107.5q0 66 27.5 116.5t65.5 76.5t89 42.5t87 20.5t71 4q34 0 68.5 -4.5t74 -14.5t73 -30t62 -47.5t44.5 -69.5t16 -94q0 -60 -24 -107t-60.5 -74.5t-84 -45.5t-89 -24.5t-81.5 -6.5zM364 164q34 0 49 19.5 t15 66.5t-13.5 70t-50.5 23q-64 0 -64 -93q0 -86 64 -86zM586 746v-146l-20 -12l-24 -14q-7 -4 -22 -11.5t-26 -11t-25 -6.5t-27 -3q-33 0 -61 17l-29 19q-22 16 -37.5 23t-34.5 8q-15 0 -39.5 -13.5t-80.5 -54.5v131q28 25 67.5 46.5t70.5 21.5q14 0 28.5 -5.5t23 -11 t24.5 -17.5l20 -15q22 -18 51 -18q19 0 43 9.5t37 18t36.5 26.5t24.5 19z" />
<glyph unicode="&#xf6;" horiz-adv-x="728" d="M364 -8q-34 0 -74 6.5t-88.5 24.5t-86.5 45t-64 74.5t-26 107.5q0 66 27.5 116.5t65.5 76.5t89 42.5t87 20.5t71 4q34 0 68.5 -4.5t74 -14.5t73 -30t62 -47.5t44.5 -69.5t16 -94q0 -60 -24 -107t-60.5 -74.5t-84 -45.5t-89 -24.5t-81.5 -6.5zM364 164q34 0 49 19.5 t15 66.5t-13.5 70t-50.5 23q-64 0 -64 -93q0 -86 64 -86zM156 554v147h166v-147h-166zM421 554v147h167v-147h-167z" />
<glyph unicode="&#xf7;" horiz-adv-x="567" d="M192 416v156h177v-156h-177zM30 219v160h507v-160h-507zM192 24v156h177v-156h-177z" />
<glyph unicode="&#xf8;" horiz-adv-x="728" d="M364 -8q-34 0 -73 7l-26 -68h-59l31 79q-90 26 -151 84t-61 156q0 66 27.5 116.5t65.5 76.5t89 42.5t87 20.5t71 4q36 0 68 -4l26 64h59l-30 -75q93 -23 154 -81.5t61 -163.5q0 -60 -24 -107t-60.5 -74.5t-84 -45.5t-89 -24.5t-81.5 -6.5zM357 164q39 0 55 19t16 67 q0 43 -11 65zM300 250q0 -37 10 -57l59 150q-38 0 -53.5 -23.5t-15.5 -69.5z" />
<glyph unicode="&#xf9;" horiz-adv-x="735" d="M302 500v-232q0 -33 19 -49.5t51 -16.5q28 0 43.5 17.5t15.5 49.5v231h274v-500h-274v34q-82 -43 -162 -43q-105 0 -172 72.5t-67 194.5v242h272zM295 550l-173 165h217l101 -165h-145z" />
<glyph unicode="&#xfa;" horiz-adv-x="735" d="M302 500v-232q0 -33 19 -49.5t51 -16.5q28 0 43.5 17.5t15.5 49.5v231h274v-500h-274v34q-82 -43 -162 -43q-105 0 -172 72.5t-67 194.5v242h272zM612 722l-177 -174h-145l105 174h217z" />
<glyph unicode="&#xfb;" horiz-adv-x="735" d="M302 500v-232q0 -33 19 -49.5t51 -16.5q28 0 43.5 17.5t15.5 49.5v231h274v-500h-274v34q-82 -43 -162 -43q-105 0 -172 72.5t-67 194.5v242h272zM443 553l-74 74l-73 -74h-158l146 147h171l146 -147h-158z" />
<glyph unicode="&#xfc;" horiz-adv-x="735" d="M302 500v-232q0 -33 19 -49.5t51 -16.5q28 0 43.5 17.5t15.5 49.5v231h274v-500h-274v34q-82 -43 -162 -43q-105 0 -172 72.5t-67 194.5v242h272zM153 554v147h166v-147h-166zM418 554v147h167v-147h-167z" />
<glyph unicode="&#xfd;" horiz-adv-x="679" d="M389 500h260v-531q-3 -90 -69 -148q-91 -81 -268 -81q-42 0 -94 5q-70 6 -135 25v158q107 -32 190 -32q33 0 74.5 24t41.5 46v36q-63 -12 -117 -12q-118 0 -179.5 60t-61.5 200q0 4 -0.5 125t-0.5 125h253v-250q0 -85 50 -85q31 0 43.5 22.5t12.5 80.5v232zM584 722 l-177 -174h-145l105 174h217z" />
<glyph unicode="&#xfe;" horiz-adv-x="698" d="M410 -10q-49 0 -106 10v-250h-274v1000h274v-256q49 13 93 13q121 0 198.5 -63t77.5 -194q0 -260 -263 -260zM300 366q-15 -64 -15 -127q0 -47 10 -104q103 20 103 115q0 64 -23 90t-75 26z" />
<glyph unicode="&#xff;" horiz-adv-x="679" d="M389 500h260v-531q-3 -90 -69 -148q-91 -81 -268 -81q-42 0 -94 5q-70 6 -135 25v158q107 -32 190 -32q33 0 74.5 24t41.5 46v36q-63 -12 -117 -12q-118 0 -179.5 60t-61.5 200q0 4 -0.5 125t-0.5 125h253v-250q0 -85 50 -85q31 0 43.5 22.5t12.5 80.5v232zM125 565v147 h166v-147h-166zM390 565v147h167v-147h-167z" />
<glyph unicode="&#x152;" horiz-adv-x="1127" d="M1097 0h-616q-28 -8 -64 -8q-110 0 -197 38.5t-141 121t-54 197.5q0 113 53 196.5t141 124t198 40.5q40 0 62 -10h618v-159h-349v-104h288v-159h-288v-119h349v-159zM417 170q33 0 57 13v333q-24 16 -57 16q-46 0 -74 -34t-35.5 -71t-7.5 -78q0 -44 8.5 -81t36 -67.5 t72.5 -30.5z" />
<glyph unicode="&#x153;" horiz-adv-x="1052" d="M364 -8q-34 0 -74 6.5t-88.5 24.5t-86.5 45t-64 74.5t-26 107.5q0 66 27.5 116.5t65.5 76.5t89 42.5t87 20.5t71 4q113 0 200 -42q77 42 196 42q266 0 266 -243v-81h-328q0 -29 32 -44.5t70 -15.5q51 0 115 10t83 17v-125q-140 -36 -260 -36q-93 0 -171 45 q-89 -45 -204 -45zM364 164q34 0 49 19.5t15 66.5t-13.5 70t-50.5 23q-64 0 -64 -93q0 -86 64 -86zM751 359q-11 0 -18 -1.5t-15.5 -6.5t-13 -18t-5.5 -34v-4h102q-6 64 -50 64z" />
<glyph unicode="&#x178;" horiz-adv-x="786" d="M256 0v286l-241 414h254l125 -236l123 236h254l-241 -414v-286h-274zM179 767v147h166v-147h-166zM444 767v147h167v-147h-167z" />
<glyph unicode="&#x2c6;" horiz-adv-x="523" d="M335 553l-74 74l-73 -74h-158l146 147h171l146 -147h-158z" />
<glyph unicode="&#x2dc;" horiz-adv-x="486" d="M456 765v-146l-20 -12l-24 -13q-7 -5 -22 -12.5t-26 -11t-25 -6.5t-27 -3q-33 0 -61 17l-29 20q-22 15 -37.5 22t-34.5 8q-15 0 -39.5 -13.5t-80.5 -54.5v131q28 25 67.5 46.5t70.5 21.5q14 0 28.5 -5.5t23 -11t24.5 -17.5l20 -15q22 -18 51 -18q19 0 43 9.5t37 18 t36.5 26.5t24.5 19z" />
<glyph unicode="&#x2000;" horiz-adv-x="518" />
<glyph unicode="&#x2001;" horiz-adv-x="1037" />
<glyph unicode="&#x2002;" horiz-adv-x="518" />
<glyph unicode="&#x2003;" horiz-adv-x="1037" />
<glyph unicode="&#x2004;" horiz-adv-x="345" />
<glyph unicode="&#x2005;" horiz-adv-x="259" />
<glyph unicode="&#x2006;" horiz-adv-x="172" />
<glyph unicode="&#x2007;" horiz-adv-x="172" />
<glyph unicode="&#x2008;" horiz-adv-x="129" />
<glyph unicode="&#x2009;" horiz-adv-x="207" />
<glyph unicode="&#x200a;" horiz-adv-x="57" />
<glyph unicode="&#x2010;" horiz-adv-x="479" d="M30 217v160h419v-160h-419z" />
<glyph unicode="&#x2011;" horiz-adv-x="479" d="M30 217v160h419v-160h-419z" />
<glyph unicode="&#x2013;" horiz-adv-x="655" d="M30 217v160h595v-160h-595z" />
<glyph unicode="&#x2014;" horiz-adv-x="836" d="M30 217v160h776v-160h-776z" />
<glyph unicode="&#x2018;" horiz-adv-x="298" d="M25 447l104 253h144l-50 -253h-198z" />
<glyph unicode="&#x2019;" horiz-adv-x="298" d="M273 700l-104 -253h-144l50 253h198z" />
<glyph unicode="&#x201a;" horiz-adv-x="298" d="M273 116l-104 -253h-144l50 253h198z" />
<glyph unicode="&#x201c;" horiz-adv-x="568" d="M25 447l163 253h144l-109 -253h-198zM295 447l104 253h144l-50 -253h-198z" />
<glyph unicode="&#x201d;" horiz-adv-x="568" d="M543 700l-163 -253h-144l109 253h198zM273 700l-104 -253h-144l50 253h198z" />
<glyph unicode="&#x201e;" horiz-adv-x="558" d="M543 116l-163 -253h-144l109 253h198zM273 116l-104 -253h-144l50 253h198z" />
<glyph unicode="&#x2022;" horiz-adv-x="413" d="M30 298q0 74 51.5 125.5t124.5 51.5q74 0 125.5 -51.5t51.5 -125.5q0 -73 -51.5 -124.5t-125.5 -51.5t-125 51t-51 125z" />
<glyph unicode="&#x2026;" horiz-adv-x="970" d="M30 0v192h218v-192h-218zM376 0v192h218v-192h-218zM722 0v192h218v-192h-218z" />
<glyph unicode="&#x202f;" horiz-adv-x="207" />
<glyph unicode="&#x2039;" horiz-adv-x="369" d="M344 28h-194l-125 234l125 227h194l-113 -227z" />
<glyph unicode="&#x203a;" horiz-adv-x="379" d="M224 28h-194l113 234l-113 227h194l125 -227z" />
<glyph unicode="&#x205f;" horiz-adv-x="259" />
<glyph unicode="&#x20ac;" horiz-adv-x="691" d="M30 371v83h87q33 122 136 189t243 67q75 0 165 -12v-156q-80 4 -94 4q-129 0 -170 -92h187v-83h-205v-22q0 -21 1 -30h204v-83h-183q38 -73 139 -73q48 0 121 9v-166q-92 -14 -165 -14q-138 0 -240.5 62.5t-136.5 181.5h-89v83h75q-1 10 -1 30q0 15 1 22h-75z" />
<glyph unicode="&#x2122;" horiz-adv-x="1063" d="M856 300v185l-35 -185h-167l-36 185v-185h-166v400h196l90 -237l90 237h205v-400h-177zM30 571v129h383v-129h-110v-271h-158v271h-115z" />
<glyph horiz-adv-x="500" />
</font>
</defs>
</svg>
