<?xml version="1.0" standalone="no"?>
<!DOCTYPE svg PUBLIC "-//W3C//DTD SVG 1.1//EN" "http://www.w3.org/Graphics/SVG/1.1/DTD/svg11.dtd" >
<svg xmlns="http://www.w3.org/2000/svg">
<defs>
<font id="Lane-Upper" horiz-adv-x="521" >
  <font-face 
    font-family="Lane - Upper"
    font-weight="400"
    font-stretch="normal"
    units-per-em="1000"
    panose-1="2 0 5 6 2 0 0 2 0 4"
    ascent="800"
    descent="-200"
    x-height="519"
    cap-height="719"
    bbox="-178 -235 1000 963"
    underline-thickness="21"
    underline-position="-93"
    unicode-range="U+0020-U+00FF"
  />
<missing-glyph horiz-adv-x="364" 
d="M33 0v666h265v-666h-265zM66 33h199v600h-199v-600z" />
    <glyph glyph-name=".notdef" horiz-adv-x="364" 
d="M33 0v666h265v-666h-265zM66 33h199v600h-199v-600z" />
    <glyph glyph-name=".null" horiz-adv-x="0" 
 />
    <glyph glyph-name="nonmarkingreturn" horiz-adv-x="333" 
 />
    <glyph glyph-name="space" unicode=" " horiz-adv-x="260" 
 />
    <glyph glyph-name="exclam" unicode="!" horiz-adv-x="307" 
d="M143 179h24l9 539h-42zM133 47q0 -47 21 -47q22 0 22 47t-22 47q-21 0 -21 -47z" />
    <glyph glyph-name="quotedbl" unicode="&#x22;" horiz-adv-x="259" 
d="M175 700v-221h34v221h-34zM50 700v-221h34v221h-34z" />
    <glyph glyph-name="numbersign" unicode="#" horiz-adv-x="534" 
d="M240 570l-40 -109l-86 -1l-11 -36l85 1l-52 -142h-75l-11 -36h74l-40 -111h46l41 111h135l-40 -111h47l39 111h84l10 36h-82l50 142l70 -1l12 36l-68 1l39 109h-46l-40 -109h-134l40 109h-47zM234 425h133l-49 -142h-133z" />
    <glyph glyph-name="dollar" unicode="$" horiz-adv-x="573" 
d="M297 292v-278h-6q-18 0 -36 3v300l-36 10v-303q-46 14 -77 45q-58 55 -64 150h-33q8 -110 74 -173q41 -39 100 -53v-98h36v92q9 -1 18 -1.5t17 -0.5h7v-90h36v92q80 11 131 54q65 56 65 150q0 90 -76 139q-23 14 -62 29t-96 29q-5 2 -8.5 2.5t-5.5 1.5q-109 28 -142 58
q-44 41 -44 97q0 74 49 117q29 26 75 37v-245l36 -10v260q5 1 11 1h11h20v-276l36 -10v280q51 -10 88 -44q54 -49 56 -133h32q-5 99 -66 154q-45 42 -110 52v109h-36v-105q-5 1 -9 1h-9h-12t-12 -1v105h-36v-110q-56 -10 -97 -45q-59 -53 -59 -137q0 -73 51 -119
q32 -30 157 -65l13 -4q111 -32 144 -52q67 -42 67 -125q0 -75 -57 -121q-43 -35 -105 -44v266z" />
    <glyph glyph-name="percent" unicode="%" horiz-adv-x="727" 
d="M406 175q0 -65 35 -115q40 -57 103 -57t104 56q35 50 35 116q0 65 -36 116q-41 57 -103 57t-103 -56q-35 -52 -35 -117zM45 547q0 -67 36 -116q41 -56 103 -56q64 0 103 56q35 49 35 116q0 65 -36 116q-41 56 -102 56q-62 0 -103 -56q-36 -50 -36 -116zM76 547
q0 53 27 94q30 47 81 47q48 0 80 -47q27 -41 27 -94q0 -54 -27 -94q-32 -48 -80 -48q-51 0 -81 48q-27 40 -27 94zM437 175q0 54 26 95q31 46 81 46q49 0 81 -47q26 -41 26 -94q0 -52 -26 -93q-32 -48 -81 -48t-81 47q-26 41 -26 94zM516 752l-347 -752h35l346 752h-34z" />
    <glyph glyph-name="ampersand" unicode="&#x26;" horiz-adv-x="609" 
d="M528 324q0 -106 -36 -173q-35 -63 -94 -101q-62 -40 -131 -40q-80 0 -129 52q-50 53 -50 132q0 66 57 125q43 46 139 87q145 61 145 178q0 63 -37.5 99t-100.5 36q-66 0 -105 -38t-39 -104q0 -39 33 -84q37 -54 79 -54q5 0 13 2q-213 -79 -217 -248q-2 -95 63 -155
q61 -57 158 -57q123 0 216 115l79 -96h41l-101 125q47 80 48 199h-31zM304 469q-10 -2 -15 -2q-47 0 -80 46q-28 38 -28 78q0 45 31 73q30 27 75 27q49 0 80 -29t31 -78q0 -44 -36 -81q-31 -33 -58 -34z" />
    <glyph glyph-name="quotesingle" unicode="'" horiz-adv-x="134" 
d="M50 700v-221h34v221h-34z" />
    <glyph glyph-name="parenleft" unicode="(" horiz-adv-x="288" 
d="M285 -219q-155 230 -155 481q0 249 145 454h-35q-143 -212 -143 -458q0 -248 154 -477h34z" />
    <glyph glyph-name="parenright" unicode=")" horiz-adv-x="288" 
d="M6 -219h34q155 232 155 477q0 246 -143 458h-35q145 -205 145 -454q0 -250 -156 -481z" />
    <glyph glyph-name="asterisk" unicode="*" horiz-adv-x="500" 
d="M173 559q-57 -33 -57 -49q0 -8 10 -8q18 0 65 27q16 8 27 16t19 15q-5 -22 -5 -55q0 -76 18 -76t18 76q0 33 -5 55q8 -7 19 -15t27 -16q46 -27 65 -27q10 0 10 8q0 16 -57 49q-32 18 -51 24q19 6 51 24q57 33 57 49q0 8 -10 8q-19 0 -65 -27q-16 -8 -27 -16t-19 -15
q5 22 5 55q0 76 -18 76t-18 -76q0 -33 5 -55q-8 7 -19 15t-27 16q-47 27 -65 27q-10 0 -10 -8q0 -16 57 -49q31 -18 51 -24q-20 -6 -51 -24zM247 583l2 2h2l2 -2l-2 -2h-2z" />
    <glyph glyph-name="plus" unicode="+" horiz-adv-x="833" 
d="M402 596v-283h-278v-30h278v-283h30v283h277v30h-277v283h-30z" />
    <glyph glyph-name="comma" unicode="," horiz-adv-x="260" 
d="M85 51q0 -18 13 -33t31 -15v-122h35v221h-35v-3q-18 0 -31 -14.5t-13 -33.5z" />
    <glyph glyph-name="uni00AD" unicode="-" horiz-adv-x="343" 
d="M38 244h266v28h-266v-28z" />
    <glyph glyph-name="uni00AD" unicode="&#xad;" horiz-adv-x="343" 
d="M38 244h266v28h-266v-28z" />
    <glyph glyph-name="period" unicode="." horiz-adv-x="260" 
d="M108 41v-9q0 -7 1 -10q2 -11 4 -15q0 -2 1 -3q1 -4 6 -7q2 -2 4 -2q2 -1 6 -1t5 1q4 1 8 5l2 2q1 2 1.5 3.5t1.5 3.5q2 6 2 10q1 2 1 7q0 2 0.5 3t0.5 3v9q0 6 -0.5 11.5t-1.5 10.5q0 3 -2 9l-3 6q-1 2 -4 5q-2 2 -4.5 2.5t-4.5 1.5h-2q-4 0 -6 -1q-5 -2 -7 -5
q-4 -4 -5 -9q-1 -2 -1 -3l-1 -2q0 -3 -1 -4v-4q-1 -5 -1 -18z" />
    <glyph glyph-name="slash" unicode="/" horiz-adv-x="292" 
d="M299 738l-315 -821h34l315 821h-34z" />
    <glyph glyph-name="zero" unicode="0" 
d="M39 340q0 -141 41 -234q56 -125 180 -125q126 0 181 124q41 93 41 235q0 141 -41 234q-56 125 -181 125q-124 0 -180 -125q-41 -93 -41 -234zM73 340q0 127 32 211q46 118 156 118q109 0 156 -119q31 -80 31 -210q0 -131 -31 -211q-47 -119 -156 -119t-156 119
q-32 84 -32 211zM201 213l137 228l-24 15l-137 -228z" />
    <glyph glyph-name="one" unicode="1" 
d="M158 497l116 133l1 -630h33v679h-33l-1 1l-116 -138v-45z" />
    <glyph glyph-name="two" unicode="2" 
d="M391 396l-359 -396h432v30h-358l318 353h-1q45 52 45 128q0 88 -54 138q-52 49 -141 49q-96 0 -149.5 -53.5t-53.5 -149.5v-9h35v11q0 79 44.5 124.5t123.5 45.5q73 0 116 -43t43 -116q0 -65 -41 -112z" />
    <glyph glyph-name="three" unicode="3" 
d="M253 14q-149 0 -172 146l-30 -14q30 -163 203 -163q98 0 160 56q62 57 62 155q0 68 -36 122q-38 60 -101 73q116 11 116 153q0 78 -56 119q-48 36 -131 36q-152 0 -191 -123l29 -14q32 107 155 107q159 0 159 -126q0 -144 -186 -136l-23 1l5 -32q8 1 15 1h16
q87 0 140 -48q54 -50 54 -137q0 -81 -54 -129q-53 -47 -134 -47z" />
    <glyph glyph-name="four" unicode="4" 
d="M366 0h32v181h77v30h-77v468l-35 -1l-326 -475l10 -22h319v-181zM367 210h-286l286 413v-413z" />
    <glyph glyph-name="five" unicode="5" 
d="M48 175q9 -91 61 -142q55 -53 144 -53q51 0 91.5 15.5t69 45t44 71t15.5 92.5q0 98 -56 159q-57 62 -155 62q-100 0 -158 -57v281h341v30h-374l1 -355h27q55 72 157 72q87 0 135 -50.5t48 -137.5q0 -91 -49 -143q-49 -55 -139 -55q-155 0 -171 165h-32z" />
    <glyph glyph-name="six" unicode="6" 
d="M466 529q-8 79 -54 123q-48 45 -127 45q-238 0 -238 -374q0 -342 226 -342q95 0 151 68q51 64 51 162q0 101 -50 163q-54 67 -153 67q-151 0 -190 -160q-1 8 -1 20v30q0 335 198 335q135 0 155 -137h32zM440 211q0 -87 -43 -140q-47 -59 -131 -59q-83 0 -126 61
q-40 53 -40 139t42 140q47 59 129 59q84 0 129 -60q40 -52 40 -140z" />
    <glyph glyph-name="seven" unicode="7" 
d="M440 680v-1h-382v-32l371 -1l-227 -646h34l239 680h-35z" />
    <glyph glyph-name="eight" unicode="8" 
d="M176 373q-132 -47 -132 -184q0 -95 59 -151t154 -56q101 0 159 55q61 55 61 156q0 136 -132 180q103 46 103 151q0 82 -53 129q-51 45 -135 45q-83 0 -134 -45q-54 -48 -54 -129q0 -107 104 -151zM79 194q0 79 52 122q47 40 129 40q80 0 130 -41q52 -43 52 -123
q0 -82 -50 -129.5t-132 -47.5t-131.5 48.5t-49.5 130.5zM108 527q0 66 43 105q41 37 109 37t109 -37q44 -39 44 -105t-44 -104q-41 -37 -109 -37q-69 0 -109 36q-43 37 -43 105z" />
    <glyph glyph-name="nine" unicode="9" 
d="M55 148q7 -80 54 -123q49 -44 127 -44q239 0 239 373q0 343 -227 343q-97 0 -151 -69q-50 -64 -50 -162q0 -101 50 -163q52 -67 152 -67q73 0 125 44q47 42 65 116q1 -9 1 -22v-28q0 -335 -198 -335q-135 0 -155 137h-32zM81 466q0 88 43 140q47 59 131 59q82 0 127 -61
q40 -53 40 -139q0 -87 -43 -139q-47 -60 -129 -60q-83 0 -128 60q-41 55 -41 140z" />
    <glyph glyph-name="colon" unicode=":" horiz-adv-x="284" 
d="M113 436q0 -47 22 -47t22 47t-22 47t-22 -47zM113 41q0 -47 22 -47t22 47q0 46 -22 46t-22 -46z" />
    <glyph glyph-name="uni037E" unicode=";" horiz-adv-x="284" 
d="M113 436q0 47 22 47t22 -47t-22 -47t-22 47zM85 51q0 19 13 33.5t31 14.5v3h35v-221h-35v122q-18 0 -31 15t-13 33z" />
    <glyph glyph-name="less" unicode="&#x3c;" horiz-adv-x="532" 
d="M462 492l-393 -184v-20l393 -188v34l-339 164l339 160v34z" />
    <glyph glyph-name="equal" unicode="=" horiz-adv-x="833" 
d="M124 237v-31h585v31h-585zM124 395v-31h585v31h-585z" />
    <glyph glyph-name="greater" unicode="&#x3e;" horiz-adv-x="532" 
d="M69 492v-34l340 -160l-340 -164v-34l393 188v20z" />
    <glyph glyph-name="question" unicode="?" horiz-adv-x="463" 
d="M36 576l32 -10q24 136 164 136q167 0 167 -145q0 -57 -51 -94l-96 -72q-51 -59 -51 -159q0 -25 3 -55h32q-2 16 -3.5 30.5t-1.5 28.5q0 88 53 139l70.5 53.5t26.5 20.5q52 40 52 112q0 83 -58 129q-53 44 -137 44q-100 0 -155 -60q-35 -40 -47 -98zM196 47q0 -47 21 -47
q22 0 22 47t-22 47q-21 0 -21 -47z" />
    <glyph glyph-name="at" unicode="@" horiz-adv-x="1000" 
d="M440 63q118 3 176 100l-13 -85h1q-1 -3 -1 -10q0 -35 44 -35q5 0 11.5 0.5t14.5 1.5q28 4 51.5 11t42.5 18q4 2 19.5 14.5l44.5 34.5q107 86 107 266q0 149 -126 245q-107 81 -268 81q-243 0 -386 -173q-96 -117 -96 -276q0 -189 146 -300q115 -88 301 -88q173 0 314 105
l-11 17q-140 -94 -308 -94q-174 0 -282 87q-116 95 -116 265q0 210 157 336q115 92 277 92q148 0 247 -72q111 -83 111 -224q0 -151 -74 -230q-21 -22 -34.5 -35t-19.5 -17q-32 -23 -87 -33q-7 -1 -12 -1.5t-9 -0.5q-17 0 -21 9q-1 2 -2 7.5t-2 15.5l67 428l-32 -1l-14 -88
q-30 96 -146 93q-98 -2 -159 -72q-54 -60 -71 -165l-3.5 -29t-1.5 -24q0 -49 26 -93q50 -83 137 -81zM330 151q-20 37 -20 88q0 11 1 24.5t3 27.5q14 87 60 142q53 64 134 65q82 2 114 -59q20 -37 20 -88q0 -13 -1 -26t-3 -26q-14 -88 -59 -141q-53 -64 -134 -65
q-82 -3 -115 58z" />
    <glyph glyph-name="A" unicode="A" horiz-adv-x="574" 
d="M-5 0h33l94 245h335l93 -245h33l-273 719h-38zM134 275l157 405l154 -405h-311z" />
    <glyph glyph-name="B" unicode="B" horiz-adv-x="618" 
d="M82 0h219q138 0 196 35q82 51 82 157q0 154 -160 185q123 43 123 164q0 102 -77 147q-52 31 -186 31h-197v-719zM116 30v331h179q111 0 168 -27q81 -38 81 -136q0 -114 -88 -150q-44 -18 -162 -18h-178zM116 387v302h165q106 0 154 -22q73 -33 73 -124q0 -156 -225 -156
h-167z" />
    <glyph glyph-name="C" unicode="C" horiz-adv-x="681" 
d="M618 173l-29 15q-17 -71 -69 -116q-67 -58 -175 -58q-134 0 -202 110q-57 91 -57 234q0 142 59 236q70 111 205 111q182 0 231 -148l31 16q-23 63 -75 103q-74 59 -181 59q-157 0 -236 -114q-69 -101 -69 -263t67 -259q78 -113 232 -113q120 0 194 65q55 49 74 122z" />
    <glyph glyph-name="D" unicode="D" horiz-adv-x="689" 
d="M82 0h165q155 0 231 35q159 75 159 324q0 245 -159 325q-72 35 -231 35h-165v-719zM116 30v658h139q44 0 77 -2t56 -6q74 -14 119 -54q95 -86 95 -267q0 -223 -133 -293q-69 -36 -214 -36h-139z" />
    <glyph glyph-name="E" unicode="E" horiz-adv-x="567" 
d="M82 0h449v32h-415v327h321v31h-321v297h405v32h-439v-719z" />
    <glyph glyph-name="F" unicode="F" horiz-adv-x="523" 
d="M82 0h34v359h307v31h-307v297h386v32h-420v-719z" />
    <glyph glyph-name="G" unicode="G" horiz-adv-x="709" 
d="M603 546l31 15q-27 88 -103 133q-70 41 -167 41q-157 0 -239 -114q-73 -100 -73 -262q0 -161 74 -262q82 -112 238 -112q71 0 134 26q157 67 157 296v18t-1 19h-269v-30h237v-31q0 -124 -67 -195q-69 -74 -191 -74q-139 0 -213 107q-64 91 -64 238t64 239q74 107 213 107
q191 0 239 -159z" />
    <glyph glyph-name="H" unicode="H" horiz-adv-x="686" 
d="M82 0h34v369h455v-369h33v719h-33v-320h-455v320h-34v-719z" />
    <glyph glyph-name="I" unicode="I" horiz-adv-x="207" 
d="M87 0h33v719h-33v-719z" />
    <glyph glyph-name="J" unicode="J" horiz-adv-x="473" 
d="M217 13q-99 0 -132 81l-15.5 -7.5t-15.5 -5.5q39 -97 160 -97q184 0 184 225v510h-33v-500q0 -100 -25 -144q-33 -62 -123 -62z" />
    <glyph glyph-name="K" unicode="K" horiz-adv-x="582" 
d="M82 0h34v270l136 138l309 -408h40l-327 431l284 288h-43l-399 -405v405h-34v-719z" />
    <glyph glyph-name="L" unicode="L" horiz-adv-x="509" 
d="M83 0h415v32h-381v687h-34v-719z" />
    <glyph glyph-name="M" unicode="M" horiz-adv-x="773" 
d="M82 0h30v677l269 -505h20l260 505v-677h30v719h-47l-252 -506l-262 506h-48v-719z" />
    <glyph glyph-name="N" unicode="N" horiz-adv-x="682" 
d="M82 0h33v661l452 -661h33v719h-33v-662l-451 662h-34v-719z" />
    <glyph glyph-name="O" unicode="O" horiz-adv-x="741" 
d="M52 359q0 -164 75 -264q84 -110 243 -110q162 0 244 109q75 99 75 265q0 164 -75 265q-83 111 -244 111t-243 -112q-75 -101 -75 -264zM87 359q0 149 65 241q75 105 218 105t218 -105q66 -92 66 -241q0 -150 -65 -241q-74 -104 -219 -104q-144 0 -218 104q-65 92 -65 241
z" />
    <glyph glyph-name="P" unicode="P" horiz-adv-x="575" 
d="M278 719h-196v-719h34v332h159q76 0 111 7q61 12 97 48q54 55 54 142q0 190 -259 190zM254 689q79 0 115 -6q133 -21 133 -151q0 -115 -82 -151q-42 -19 -167 -19h-137v327h138z" />
    <glyph glyph-name="Q" unicode="Q" horiz-adv-x="741" 
d="M696 -79q-114 9 -148 49q-15 16 -26 48q46 24 82 66q85 100 85 275q0 164 -75 265q-84 111 -244 111q-161 0 -243 -112q-75 -101 -75 -264q0 -164 75 -264q84 -110 243 -110q70 0 127 21q10 -33 29 -55q41 -48 164 -56zM489 37q-54 -23 -119 -23q-144 0 -218 104
q-65 92 -65 241t65 241q75 105 218 105t218 -105q66 -92 66 -241q0 -162 -76 -253q-29 -35 -65 -56q-19 79 -34 104q-24 38 -88 57q-48 14 -91 17l-2 -32q114 -7 149 -49q16 -18 27 -50q4 -14 15 -60z" />
    <glyph glyph-name="R" unicode="R" horiz-adv-x="622" 
d="M333 340q75 0 110 -18q45 -23 56 -89q1 -8 1.5 -25.5t0.5 -46.5v-161h39l-1 137q0 88 -1 93q-10 106 -101 124q130 40 130 177q0 110 -71 154q-56 34 -175 34h-239v-719h34v340h217zM116 370v318h205q31 0 54 -1.5t37 -3.5q121 -22 121 -155q0 -158 -195 -158h-222z" />
    <glyph glyph-name="S" unicode="S" horiz-adv-x="573" 
d="M45 219q7 -110 72 -171q64 -63 173 -63q103 0 168 50q71 56 71 156q0 90 -76 139q-42 27 -158 58q-5 2 -8.5 2.5t-5.5 1.5q-109 28 -142 58q-44 41 -44 97q0 78 53 120q49 40 129 40q86 0 141 -47q57 -49 59 -136h32q-5 101 -68 156q-61 55 -162 55q-93 0 -152 -47
q-64 -49 -64 -141q0 -73 51 -119q33 -30 157 -65q12 -3 13 -4q111 -30 144 -52q67 -42 67 -125q0 -80 -64 -126q-57 -42 -140 -42q-95 0 -151 56q-56 54 -62 149h-33z" />
    <glyph glyph-name="T" unicode="T" horiz-adv-x="509" 
d="M240 0h34v688h224v31h-482v-31h224v-688z" />
    <glyph glyph-name="U" unicode="U" horiz-adv-x="671" 
d="M77 719v-468q0 -127 67 -195q68 -71 192 -71q123 0 192 71q67 70 67 195v468h-33v-452q0 -118 -53 -183q-58 -70 -173 -70q-226 0 -226 253v452h-33z" />
    <glyph glyph-name="V" unicode="V" horiz-adv-x="525" 
d="M246 0h32l250 719h-35l-230 -670l-231 670h-34z" />
    <glyph glyph-name="W" unicode="W" horiz-adv-x="824" 
d="M200 0h34l178 501l178 -501h34l192 719h-34l-175 -659l-179 488h-32l-178 -488l-176 659h-34z" />
    <glyph glyph-name="X" unicode="X" horiz-adv-x="530" 
d="M1 0h37l225 339l228 -339h38l-244 369l230 350h-37l-213 -323l-214 323h-39l233 -351z" />
    <glyph glyph-name="Y" unicode="Y" horiz-adv-x="530" 
d="M248 0h33v316l247 403h-38l-224 -367l-227 367h-38l247 -401v-318z" />
    <glyph glyph-name="Z" unicode="Z" horiz-adv-x="529" 
d="M9 0h510v30h-474l462 655v34h-459v-31h423l-462 -655v-33z" />
    <glyph glyph-name="bracketleft" unicode="[" horiz-adv-x="302" 
d="M284 -205v30h-134v862h134v31h-169v-923h169z" />
    <glyph glyph-name="backslash" unicode="\" horiz-adv-x="292" 
d="M-36 738l308 -821h35l-308 821h-35z" />
    <glyph glyph-name="bracketright" unicode="]" horiz-adv-x="302" 
d="M22 -205h169v923h-169v-31h134v-862h-134v-30z" />
    <glyph glyph-name="asciicircum" unicode="^" horiz-adv-x="542" 
d="M248 711l-145 -245h53l115 196l116 -196h53l-145 245h-47z" />
    <glyph glyph-name="underscore" unicode="_" horiz-adv-x="500" 
d="M0 -205v-30h500v30h-500z" />
    <glyph glyph-name="grave" unicode="`" horiz-adv-x="500" 
d="M306 584l-102 160h-53l102 -160h53z" />
    <glyph glyph-name="a" unicode="a" horiz-adv-x="572" 
d="M467 214v-86h31v393h-31v-89q-50 98 -192 98q-102 0 -162 -51q-63 -54 -63 -155q0 -99 64 -154q60 -51 161 -51q142 0 192 95zM82 324q0 87 53 137q52 48 140 48q89 0 140 -48q52 -49 52 -137t-51 -136t-141 -48q-89 0 -140 48q-53 48 -53 136zM89 65v-31h394v31h-394z
" />
    <glyph glyph-name="b" unicode="b" horiz-adv-x="572" 
d="M69 0h32v110q60 -123 196 -123q115 0 175 80q54 72 54 191q0 118 -54 190q-61 82 -175 82q-142 0 -196 -129v317h-32v-718zM101 258q0 104 45 169q51 75 151 75q99 0 152 -75q45 -65 45 -169q0 -105 -45 -169q-53 -75 -152 -75t-151 75q-45 64 -45 169z" />
    <glyph glyph-name="c" unicode="c" horiz-adv-x="519" 
d="M466 125l-27 16q-15 -60 -60.5 -93.5t-106.5 -33.5q-99 0 -151 75q-45 64 -45 169q0 104 45 169q51 75 151 75q65 0 110 -36q35 -29 48 -67l27 18q-44 113 -185 113q-114 0 -174 -82q-54 -72 -54 -190q0 -115 53 -189q61 -82 172 -82q85 0 141 47q39 35 56 91z" />
    <glyph glyph-name="d" unicode="d" horiz-adv-x="572" 
d="M502 718h-31v-313q-48 125 -196 125q-114 0 -175 -82q-54 -72 -54 -190q0 -119 54 -191q60 -80 175 -80q145 0 196 128v-115h31v718zM471 258q0 -105 -45 -169q-51 -75 -151 -75t-152 75q-45 64 -45 169t46 169q51 75 151 75t151 -75q45 -65 45 -169z" />
    <glyph glyph-name="e" unicode="e" horiz-adv-x="545" 
d="M408 147q43 25 63 68l-27 11q-42 -87 -170 -87q-86 0 -135 45q-52 46 -52 132v6h405v14q0 97 -62 150q-56 49 -156 49q-102 0 -160 -55q-60 -56 -60 -157q0 -100 59 -155.5t161 -55.5q78 0 134 35zM88 345q10 163 192 163q79 0 128 -41q50 -44 50 -122h-370zM75 65v-31
h395v31h-395z" />
    <glyph glyph-name="f" unicode="f" horiz-adv-x="211" 
d="M48 592v-592h31v490h102v29h-102v74q0 54 9 74q15 30 62 30h87v27l-92 -1q-63 0 -82 -36q-15 -27 -15 -95z" />
    <glyph glyph-name="g" unicode="g" horiz-adv-x="572" 
d="M471 111v-53q0 -109 -23 -150q-49 -88 -179 -88q-70 0 -115 27q-52 31 -57 98h-30q2 -78 61 -118q53 -35 133 -35q146 0 208 90q33 48 33 146v491h-31v-116q-23 63 -76 95t-120 32q-115 0 -175 -81q-54 -72 -54 -191q0 -117 53 -191q60 -81 174 -81q144 0 198 125z
M471 258q0 -105 -45 -169q-51 -75 -151 -75t-152 75q-45 64 -45 169t46 169q51 75 151 75t151 -75q45 -65 45 -169z" />
    <glyph glyph-name="h" unicode="h" 
d="M69 0h32v278q0 30 1.5 52.5t3.5 37.5q24 133 171 133q80 0 115 -45q30 -39 30 -122v-334h32v344q0 186 -178 186q-126 0 -175 -96v284h-32v-718z" />
    <glyph glyph-name="i" unicode="i" horiz-adv-x="175" 
d="M72 132h31v387h-31v-387zM66 680q0 -48 21 -48q22 0 22 48q0 47 -22 47q-21 0 -21 -47zM41 65v-31h97v31h-97z" />
    <glyph glyph-name="j" unicode="j" horiz-adv-x="175" 
d="M73 519v-588q0 -62 -7 -77q-12 -30 -62 -30h-54v-30h61q61 0 80 34q13 23 13 92v599h-31zM64 680q0 -48 21 -48q22 0 22 48q0 47 -22 47q-21 0 -21 -47z" />
    <glyph glyph-name="k" unicode="k" horiz-adv-x="458" 
d="M69 0h32v185l127 123l205 -308h36l-219 330l189 189h-39l-299 -296v495h-32v-718z" />
    <glyph glyph-name="l" unicode="l" horiz-adv-x="175" 
d="M72 0h31v718h-31v-718z" />
    <glyph glyph-name="m" unicode="m" horiz-adv-x="817" 
d="M69 0h32v280q0 29 1.5 51.5t3.5 37.5q22 132 155 132q90 0 118 -67q15 -35 15 -122v-312h31v280q0 100 29 153q38 68 131 68q90 0 118 -67q15 -35 15 -122v-312h32v344q0 186 -164 186q-115 0 -169 -106q-28 106 -154 106q-111 0 -162 -96v85h-32v-519z" />
    <glyph glyph-name="n" unicode="n" 
d="M69 0h32v278q0 30 1.5 52.5t3.5 37.5q24 133 171 133q80 0 115 -45q30 -39 30 -122v-334h32v344q0 186 -178 186q-126 0 -175 -96v85h-32v-519z" />
    <glyph glyph-name="o" unicode="o" horiz-adv-x="545" 
d="M42 331q0 -101 67 -153q61 -48 163 -48t164 48q67 52 67 153q0 100 -67 152q-62 48 -164 48t-163 -48q-67 -52 -67 -152zM74 331q0 174 198 174q91 0 143 -41q56 -45 56 -133q0 -175 -199 -175q-90 0 -142 41q-56 45 -56 134zM75 65v-31h395v31h-395z" />
    <glyph glyph-name="p" unicode="p" horiz-adv-x="572" 
d="M69 -205h32v317q50 -125 196 -125q113 0 175 80q54 73 54 191q0 119 -54 191q-60 81 -175 81q-145 0 -196 -130v119h-32v-724zM101 258q0 104 45 169q51 75 151 75q99 0 152 -75q45 -65 45 -169q0 -105 -45 -169q-53 -75 -152 -75t-151 75q-45 64 -45 169z" />
    <glyph glyph-name="q" unicode="q" horiz-adv-x="572" 
d="M471 112v-317h31v724h-31v-119q-51 130 -196 130q-115 0 -175 -81q-54 -72 -54 -191q0 -118 54 -191q62 -80 175 -80q146 0 196 125zM78 258q0 105 46 169q51 75 151 75t151 -75q45 -65 45 -169q0 -105 -45 -169q-51 -75 -151 -75t-152 75q-45 64 -45 169z" />
    <glyph glyph-name="r" unicode="r" horiz-adv-x="263" 
d="M69 0h32v345q0 53 29 87q36 41 70 51q16 6 53 6l20 28q-132 1 -172 -84v86h-32v-519z" />
    <glyph glyph-name="s" unicode="s" horiz-adv-x="481" 
d="M81 154h-31q7 -82 62 -126q53 -41 136 -41q73 0 126 35q59 41 59 111q0 65 -53 100q-30 22 -114 43q-9 2 -10 3q-159 40 -159 118q0 52 47 81q39 24 94 24q132 0 148 -121h31q-8 71 -56 111q-47 38 -119 38q-70 0 -120 -32q-58 -37 -58 -105q0 -57 42 -90q37 -29 164 -62
q11 -2 17.5 -4t9.5 -3q103 -28 103 -100q0 -60 -49 -91q-41 -27 -104 -27q-141 0 -166 138z" />
    <glyph glyph-name="t" unicode="t" horiz-adv-x="187" 
d="M47 661v-661h32v491h104v28h-104v142h-32z" />
    <glyph glyph-name="u" unicode="u" 
d="M453 526h-32v-125q0 -30 -1.5 -52.5t-3.5 -37.5q-24 -132 -170 -132q-81 0 -116 44q-30 40 -30 123v180h-32v-191q0 -186 179 -186q124 0 174 96v-81h32v362zM63 65v-31h395v31h-395z" />
    <glyph glyph-name="v" unicode="v" horiz-adv-x="444" 
d="M201 0h36l200 519h-33l-185 -482l-178 482h-33z" />
    <glyph glyph-name="w" unicode="w" horiz-adv-x="669" 
d="M178 0h32l122 355l126 -355h32l166 519h-32l-150 -470l-127 363h-29l-124 -363l-148 470h-33z" />
    <glyph glyph-name="x" unicode="x" horiz-adv-x="410" 
d="M32 0l172 243l174 -243h37l-192 268l179 251h-37l-160 -225l-164 225h-38l182 -251l-189 -268h36z" />
    <glyph glyph-name="y" unicode="y" 
d="M444 -59q5 20 7 37t3 33v519h-32v-278q0 -31 -1.5 -53.5t-3.5 -36.5q-24 -133 -171 -133q-81 0 -115 45q-30 39 -30 122v334h-32v-344q0 -186 178 -186q125 0 175 96v-80q0 -36 -3 -54q-2 -15 -6.5 -27.5t-9.5 -22.5q-45 -87 -160 -87q-64 0 -105 29q-46 31 -49 94h-27
q1 -73 52 -113q46 -37 122 -37q65 0 112 22q77 38 96 121z" />
    <glyph glyph-name="z" unicode="z" horiz-adv-x="437" 
d="M17 0h403v31h-369l358 451v37h-372v-31h338l-358 -451v-37z" />
    <glyph glyph-name="braceleft" unicode="{" horiz-adv-x="500" 
d="M366 721h-16q-139 0 -139 -105q0 -43 24 -127q25 -81 25 -126q0 -94 -126 -86v-36l22 1q105 4 105 -77q0 -42 -26 -128t-26 -128q0 -113 157 -110v34q-118 -1 -118 88q0 41 26 125t26 126q0 71 -70 87q71 12 71 89q0 44 -24 128q-24 85 -24 129q0 83 93 83h10t10 -1v34z
" />
    <glyph glyph-name="bar" unicode="|" horiz-adv-x="500" 
d="M232 764v-999h36v999h-36z" />
    <glyph glyph-name="braceright" unicode="}" horiz-adv-x="500" 
d="M89 721v-34q5 1 10 1h10q93 0 93 -83q0 -44 -24 -129q-24 -84 -24 -128q0 -77 70 -89q-70 -16 -70 -87q0 -42 26 -126q27 -83 27 -125q0 -89 -118 -88v-34q156 -3 156 110q0 42 -26 128q-25 82 -25 128q0 82 104 77l22 -1v36q-125 -8 -125 86q0 43 24 126q24 84 24 127
q0 105 -138 105h-16z" />
    <glyph glyph-name="asciitilde" unicode="~" horiz-adv-x="602" 
d="M536 357q-80 -79 -135 -79q-31 0 -101 35q-68 36 -99 36q-64 0 -135 -74v-37q79 81 135 81q29 0 99 -35q72 -35 101 -35q62 0 135 73v35z" />
    <glyph glyph-name="quotesinglbase" horiz-adv-x="237" 
d="M125 105h1v2h35l-56 -220h-34l31 122q-34 0 -34 36q0 23 18 41.5t39 18.5z" />
    <glyph glyph-name="florin" horiz-adv-x="244" 
d="M129 593l-12 -74l102 2l-5 -29l-102 -2l-82 -490q-11 -64 -29 -88q-25 -36 -87 -38l-92 -2l4 26l87 2q48 2 67 31q13 21 20 69l100 597q11 65 29 89q25 36 87 38l93 2l-5 -27l-86 -1q-49 -1 -67 -31q-13 -18 -22 -74z" />
    <glyph glyph-name="quotedblbase" horiz-adv-x="381" 
d="M116 104h1v2l34 -1l-55 -220l-34 1l31 121h-1q-33 0 -33 37q0 22 17.5 41t39.5 19zM263 104l1 2l34 -1l-55 -220l-35 1l31 121q-33 0 -33 37q0 22 17.5 41t39.5 19z" />
    <glyph glyph-name="ellipsis" unicode="&#x85;" horiz-adv-x="1000" 
d="M478 41q0 13 1 18q0 2 0.5 4t0.5 4q1 3 3 7q0 1 0.5 2t0.5 2q1 0 1 1l2 2v1q1 0 1 1q2 1 3 2t3 1q1 1 4 1h2q4 0 5 -1q1 0 5 -2l3 -3q1 -1 1 -2l1 -1q4 -8 5 -15q0 -1 0.5 -2t0.5 -2q0 -2 0.5 -4.5t0.5 -4.5v-9q0 -10 -1 -18t-3 -14q-2 -5 -4 -7.5t-4 -4.5q-5 -3 -10 -3
h-2q-3 0 -4 1q-6 2 -10 9q-1 1 -1 3q-1 1 -1 2l-1 2q0 1 -1 3q0 3 -1 5q-1 5 -1 10v12zM812 41v15q0 1 0.5 1.5t0.5 1.5q0 2 0.5 4t0.5 4l1 2q0 1 1 3q0 1 1 2q5 11 11 12q1 1 4 1h2q4 0 5 -1q1 0 5 -2l3 -3l2 -2v-1l3 -6q0 -2 0.5 -2.5t0.5 -2.5q1 -2 1 -4t1 -4
q0 -4 0.5 -8.5t0.5 -9.5v-9q0 -3 -0.5 -5.5t-0.5 -4.5q-1 -5 -3 -13q-1 -3 -5 -9l-3 -3q-5 -3 -10 -3h-2q-6 2 -8 3q-5 3 -6 7q-1 1 -1 3q-2 4 -3 7v3v1q-1 0 -1 1q0 2 -0.5 3.5t-0.5 3.5v6v9zM145 41q0 29 9 40v1q1 0 1 1q6 4 12 4h2q6 -2 8 -3v-1h1q8 -7 10 -27
q0 -2 0.5 -3t0.5 -3v-9v-9q-1 -20 -7 -30q-6 -8 -15 -8q-11 0 -16 10q-2 4 -2 5q-2 6 -3 10q0 3 -0.5 6t-0.5 7v9z" />
    <glyph glyph-name="dagger" horiz-adv-x="500" 
d="M234 -104v630h-147v29h147v164h31v-164h148v-29h-148v-630h-31z" />
    <glyph glyph-name="daggerdbl" horiz-adv-x="500" 
d="M265 87h148v-29h-148v-162h-31v162h-147v29h147v439h-147v29h147v164h31v-164h148v-29h-148v-439z" />
    <glyph glyph-name="circumflex" horiz-adv-x="500" 
d="M126 584l100 160h48l99 -160l-36 -4l-87 136l-86 -132h-38z" />
    <glyph glyph-name="perthousand" horiz-adv-x="1028" 
d="M516 752h34l-346 -752h-35zM437 175q0 -53 26 -94q32 -47 81 -47t81 48q26 41 26 93q0 53 -26 94q-32 47 -81 47q-50 0 -81 -46q-26 -41 -26 -95zM754 175q0 -54 27 -94q30 -47 81 -47q50 0 80 48q27 40 27 93t-27 94q-30 47 -80 47q-51 0 -81 -46q-27 -41 -27 -95z
M76 547q0 -54 27 -94q30 -48 81 -48q48 0 80 48q27 40 27 94q0 53 -27 94q-32 47 -80 47q-51 0 -81 -47q-27 -41 -27 -94zM45 547q0 66 36 116q41 56 103 56q61 0 102 -56q36 -51 36 -116q0 -67 -35 -116q-39 -56 -103 -56q-62 0 -103 56q-36 49 -36 116zM723 175
q0 66 36 117q41 56 103 56q61 0 102 -57q36 -51 36 -116q0 -66 -35 -116q-39 -56 -103 -56q-63 0 -103 57q-36 49 -36 115zM406 175q0 65 35 117q41 56 103 56t103 -57q36 -51 36 -116q0 -66 -35 -116q-41 -56 -104 -56t-103 57q-35 50 -35 115z" />
    <glyph glyph-name="Scaron" horiz-adv-x="573" 
d="M174 945l37 -1l87 -131l87 136l36 -4l-99 -160h-48zM45 219h33q6 -95 62 -149q56 -56 151 -56q83 0 140 42q64 46 64 126q0 83 -67 125q-33 22 -144 52q-1 1 -13 4q-124 35 -157 65q-51 46 -51 119q0 92 64 141q59 47 152 47q101 0 162 -55q63 -55 68 -156h-32
q-2 87 -59 136q-55 47 -141 47q-80 0 -129 -40q-53 -42 -53 -120q0 -56 44 -97q33 -30 142 -58q2 -1 5.5 -1.5t8.5 -2.5q116 -31 158 -58q76 -49 76 -139q0 -100 -71 -156q-65 -50 -168 -50q-109 0 -173 63q-65 61 -72 171z" />
    <glyph glyph-name="guilsinglleft" horiz-adv-x="248" 
d="M203 121l-25 -19l-125 154l125 154l27 -19l-109 -135z" />
    <glyph glyph-name="OE" horiz-adv-x="957" 
d="M512 670v-279h141q-8 127 -65 209q-16 23 -35 40t-41 30zM654 359h-142v-310q45 27 76 69q66 91 66 241zM478 32v655q-48 18 -108 18q-143 0 -218 -105q-65 -92 -65 -241t65 -241q74 -104 218 -104q60 0 108 18zM478 719v1h439v-32h-372q39 -26 68 -65q69 -90 75 -232
h145v-32h-144q0 -164 -76 -264q-29 -38 -65 -62h379v-33h-446q-50 -15 -111 -15q-159 0 -243 110q-75 100 -75 264q0 162 75 264q83 112 243 112q60 0 108 -16z" />
    <glyph glyph-name="quoteleft" horiz-adv-x="237" 
d="M119 508l-1 -2h-35l56 222l34 -1l-30 -123q33 0 33 -36q0 -23 -17.5 -41.5t-39.5 -18.5z" />
    <glyph glyph-name="quoteright" horiz-adv-x="237" 
d="M141 725l1 3l34 -1l-55 -221h-35l31 123q-34 0 -34 37q0 22 18 40.5t40 18.5z" />
    <glyph glyph-name="quotedblleft" horiz-adv-x="354" 
d="M266 508h-1l-1 -2h-34l56 222l34 -1l-31 -123h1q32 0 32 -36q0 -23 -17 -41.5t-39 -18.5zM119 508l-1 -2h-35l56 222l34 -1l-30 -123q33 0 33 -36q0 -23 -17.5 -41.5t-39.5 -18.5z" />
    <glyph glyph-name="quotedblright" horiz-adv-x="354" 
d="M287 725h1v3l34 -1l-55 -221h-34l31 123h-1q-33 0 -33 37q0 22 17.5 40.5t39.5 18.5zM141 725l1 3l34 -1l-55 -221h-35l31 123q-34 0 -34 37q0 22 18 40.5t40 18.5z" />
    <glyph glyph-name="bullet" horiz-adv-x="590" 
d="M327 372q0 33 -33 33t-33 -33q0 -32 33 -32t33 32zM439 372q0 -62 -42 -104q-41 -41 -103 -41q-32 0 -58 11t-45.5 30t-30 45.5t-10.5 58.5q0 31 11 57.5t30 46t45.5 30t58.5 10.5q62 0 103 -41t41 -103z" />
    <glyph glyph-name="endash" horiz-adv-x="500" 
d="M0 248v21h500v-21h-500z" />
    <glyph glyph-name="emdash" horiz-adv-x="1000" 
d="M0 269h1000v-21h-1000v21z" />
    <glyph glyph-name="tilde" horiz-adv-x="500" 
d="M361 702l15 -21q-13 -23 -20 -36.5t-9 -15.5q-16 -21 -43 -22q-17 0 -60 35q-41 36 -48 35q-26 -2 -56 -59l-16 16q38 74 72 74q13 0 54 -36q41 -35 54 -35q25 0 40 27q4 10 8 19t9 19z" />
    <glyph glyph-name="trademark" horiz-adv-x="833" 
d="M139 709h200v-20h-85v-237h-28v237h-87v20zM404 709h43l88 -125l82 125h42v-257h-23v239l-97 -141l-7 -2l-104 143v-239h-24v257z" />
    <glyph glyph-name="scaron" horiz-adv-x="481" 
d="M137 740l38 -1l86 -131l88 136l35 -4l-99 -160h-48zM81 154q25 -138 166 -138q63 0 104 27q49 31 49 91q0 72 -103 100q-3 1 -9.5 3t-17.5 4q-127 33 -164 62q-42 33 -42 90q0 68 58 105q50 32 120 32q72 0 119 -38q48 -40 56 -111h-31q-16 121 -148 121q-55 0 -94 -24
q-47 -29 -47 -81q0 -78 159 -118q1 -1 10 -3q84 -21 114 -43q53 -35 53 -100q0 -70 -59 -111q-53 -35 -126 -35q-83 0 -136 41q-55 44 -62 126h31z" />
    <glyph glyph-name="guilsinglright" horiz-adv-x="248" 
d="M56 121l106 135l-109 135l27 19l125 -154l-125 -154z" />
    <glyph glyph-name="oe" horiz-adv-x="825" 
d="M395 285h73q-4 75 -37 131q-31 -52 -36 -131zM469 256h-75v-8q0 -88 37 -149q38 64 38 157zM500 285h264q0 90 -43 150q-48 67 -135 67q-85 0 -135 -59q45 -65 49 -158zM410 71q-50 73 -50 187q0 115 50 186q-51 58 -138 58q-100 0 -151 -75q-45 -66 -45 -169
q0 -105 45 -169q52 -75 151 -75q87 0 138 57zM715 31q-58 -44 -134 -44q-95 0 -152 60q-59 -60 -157 -60q-114 0 -174 80q-54 73 -54 191t54 190q60 82 174 82q99 0 157 -61q57 61 152 61q107 0 166 -75q51 -68 51 -180v-19h-297q0 -112 -51 -184q49 -58 131 -58
q127 0 170 118l26 -14q-20 -54 -62 -87z" />
    <glyph glyph-name="Ydieresis" horiz-adv-x="530" 
d="M248 0h33v316l247 403h-38l-224 -367l-227 367h-38l247 -401v-318zM321 868q0 -48 22 -48t22 48q0 46 -22 46t-22 -46zM167 866q0 -48 21 -48q22 0 22 48q0 47 -22 47q-21 0 -21 -47z" />
    <glyph glyph-name="uni00A0" unicode="&#xa0;" 
 />
    <glyph glyph-name="exclamdown" unicode="&#xa1;" horiz-adv-x="307" 
d="M163 416h-24l-9 -537h42zM129 553q0 -48 21 -48q22 0 22 48q0 47 -22 47q-21 0 -21 -47z" />
    <glyph glyph-name="cent" unicode="&#xa2;" 
d="M292 159v-144q-5 -1 -10 -1h-10h-12t-11 1v144h-36v-137q-50 15 -84 58q-53 65 -53 178q0 114 53 179q34 42 84 57v-128h36v135q5 1 11 1h12h10t10 -1v-135h36v128q31 -9 54 -28q45 -39 55 -99h32q-11 76 -63 120q-32 26 -78 37v108h-36v-103q-5 1 -10 1h-10h-12t-11 -1
v103h-36v-109q-65 -15 -108 -66q-61 -73 -61 -199q0 -125 61 -198q45 -54 108 -67v-85h36v79h20h12t11 1v-80h36v85q48 11 82 42q55 48 64 132h-30q-9 -68 -56 -111q-29 -24 -60 -34v137h-36z" />
    <glyph glyph-name="currency" unicode="&#xa4;" horiz-adv-x="606" 
d="M215 601l-30 33l-26 -28l30 -32q-30 -42 -30 -93q0 -49 29 -92l-26 -28l26 -28l27 29q40 -31 89 -31t89 31l24 -24l26 29l-24 22q29 41 29 92t-30 93l27 27l-27 27l-25 -27q-41 32 -89 32q-49 0 -89 -32zM319 497v97q37 -5 62.5 -32t29.5 -65h-92zM289 497h-92
q4 37 29.5 64.5t62.5 32.5v-97zM289 466v-96q-37 5 -62 32t-30 64h92zM319 466h92q-5 -37 -30.5 -64t-61.5 -32v96z" />
    <glyph glyph-name="yen" unicode="&#xa5;" horiz-adv-x="530" 
d="M62 340v-31h186v-142h-186v-31h186v-136h33v136h185v31h-185v142h185v31h-171l233 379h-38l-224 -367l-227 367h-38l233 -379h-172z" />
    <glyph glyph-name="brokenbar" unicode="&#xa6;" horiz-adv-x="500" 
d="M232 699v-370h36v370h-36zM232 199v-369h36v369h-36z" />
    <glyph glyph-name="section" unicode="&#xa7;" horiz-adv-x="500" 
d="M84 71q-1 -5 -1 -21q0 -72 44 -111q40 -36 115 -36q67 0 111 35q47 38 47 103q0 44 -28 81q-27 33 -72 47q5 -1 9 -1h9q50 0 88 35q38 36 38 86q0 93 -130 154l-77 36q-25 11 -43 22t-29 21q-32 30 -32 74q0 49 36 81q34 28 86 28q120 0 120 -135h31q0 165 -155 165
q-66 0 -106 -37q-44 -39 -44 -103q0 -79 77 -117q-123 -18 -123 -124q0 -88 103 -137l131 -64q81 -41 81 -108q0 -56 -38 -86q-35 -27 -93 -27q-126 0 -126 126v13h-29zM166 245q-80 39 -80 113q0 45 38 72q31 22 81 27l104 -45q105 -44 105 -128q0 -48 -49 -72
q-36 -17 -92 -19z" />
    <glyph glyph-name="dieresis" unicode="&#xa8;" horiz-adv-x="500" 
d="M306 663q0 -48 22 -48t22 48q0 46 -22 46t-22 -46zM152 661q0 -48 21 -48q22 0 22 48q0 47 -22 47q-21 0 -21 -47z" />
    <glyph glyph-name="copyright" unicode="&#xa9;" horiz-adv-x="833" 
d="M666 351q0 107 -72 178q-71 71 -178 71q-104 0 -177 -73q-72 -72 -72 -176q0 -105 72 -177t177 -72t177 72q73 72 73 177zM198 351q0 91 63 154q64 63 155 63q94 0 156 -62q63 -62 63 -155q0 -90 -65 -155q-64 -64 -154 -64q-40 0 -82 17q-63 27 -99.5 81t-36.5 121z
M418 172q108 0 135 101l-29 15q-20 -86 -108 -86q-62 0 -90 49q-24 40 -24 105t25 105q31 51 91 51q79 0 103 -74l29 16q-31 88 -130 88q-77 0 -116 -57q-34 -47 -34 -129q0 -80 33 -128q38 -56 115 -56z" />
    <glyph glyph-name="ordfeminine" unicode="&#xaa;" horiz-adv-x="380" 
d="M190 353q93 0 129 74v-65h26v355h-26v-69q-37 76 -129 76q-79 0 -119 -55q-36 -50 -36 -130q0 -81 36 -130q41 -56 119 -56zM190 378q-65 0 -99 49q-29 43 -29 112q0 67 29 111q35 50 99 50q65 0 100 -50q29 -44 29 -111q0 -69 -29 -112q-34 -49 -100 -49z" />
    <glyph glyph-name="guillemotleft" unicode="&#xab;" horiz-adv-x="354" 
d="M325 121l-107 135l109 135l-27 19l-125 -154l125 -154zM203 121l-107 135l109 135l-27 19l-125 -154l125 -154z" />
    <glyph glyph-name="logicalnot" unicode="&#xac;" horiz-adv-x="703" 
d="M124 417v-31h463v-131h29v162h-492z" />
    <glyph glyph-name="registered" unicode="&#xae;" horiz-adv-x="708" 
d="M666 351q0 107 -72 178q-71 71 -178 71q-104 0 -177 -73q-72 -72 -72 -176q0 -105 72 -177t177 -72t177 72q73 73 73 177zM198 351q0 93 62 155q64 62 156 62t156 -62q63 -62 63 -155q0 -48 -16 -84q-12 -30 -33 -55t-48 -42.5t-58 -27.5t-64 -10q-40 0 -82 17
q-61 27 -98.5 81.5t-37.5 120.5zM345 179v160h93q34 0 47 -7q23 -14 23 -70v-83h34v117q-4 41 -33 58q46 24 46 83q0 97 -123 97h-119v-355h32zM523 436q0 -67 -83 -67h-95v134h87q27 0 41 -3q50 -9 50 -64z" />
    <glyph glyph-name="uni02C9" unicode="&#xaf;" horiz-adv-x="500" 
d="M141 637v35h218v-35h-218z" />
    <glyph glyph-name="degree" unicode="&#xb0;" horiz-adv-x="329" 
d="M165 707q-58 0 -95 -37t-37 -95t36.5 -94.5t94.5 -36.5q28 0 52.5 10t42 27t27.5 41t10 53q0 28 -10 52.5t-27 42t-41.5 27.5t-52.5 10zM165 682q46 0 76 -30.5t30 -76.5t-30 -76.5t-76 -30.5t-76.5 29.5t-30.5 77.5t30.5 77.5t76.5 29.5z" />
    <glyph glyph-name="plusminus" unicode="&#xb1;" horiz-adv-x="614" 
d="M295 562v-174h-185v-31h185v-174h30v174h179v31h-179v174h-30zM110 65v-31h394v31h-394z" />
    <glyph glyph-name="uni00B2" unicode="&#xb2;" horiz-adv-x="344" 
d="M247 516l-217 -239h262v17h-217l192 214q26 32 26 77q0 54 -31.5 83.5t-85.5 29.5q-57 0 -89.5 -33t-32.5 -90v-5h21v7q0 48 26.5 75t74.5 27q45 0 70.5 -25.5t25.5 -70.5q0 -41 -25 -67z" />
    <glyph glyph-name="uni00B3" unicode="&#xb3;" horiz-adv-x="344" 
d="M169 278q-106 0 -122 90l-21 -9q21 -100 144 -100q65 0 109 32q49 34 49 98q0 21 -7.5 41t-20.5 36t-31 27t-39 15q83 6 83 94q0 95 -133 95q-108 0 -136 -75l21 -9q22 66 110 66q113 0 113 -78q0 -87 -132 -82h-16l4 -20q5 1 10 1h11q58 0 96 -27q42 -30 42 -87
q0 -53 -42 -81q-38 -27 -92 -27z" />
    <glyph glyph-name="acute" unicode="&#xb4;" horiz-adv-x="500" 
d="M194 584h54l101 160h-53z" />
    <glyph glyph-name="mu" unicode="&#xb5;" 
d="M486 -80h-34q-99 0 -99 82v9q-35 -11 -77 -11q-126 0 -175 96v-289h-32v723h32v-278q0 -31 1.5 -53.5t3.5 -36.5q24 -133 171 -133q62 0 97 27q2 2 4 3q44 38 44 137v334h32v-344q0 -56 -13 -86q-12 -29 -49 -70q-11 -13 -11 -32q0 -51 69 -51h36v-27z" />
    <glyph glyph-name="paragraph" unicode="&#xb6;" horiz-adv-x="500" 
d="M430 694v28h-108q-100 0 -166 -33q-88 -44 -86 -137q0 -101 84 -141q52 -25 160 -29v-503h30v815h56v-815h29v815h1z" />
    <glyph glyph-name="periodcentered" unicode="&#xb7;" horiz-adv-x="260" 
d="M130 307q33 0 33 32q0 33 -33 33t-33 -33q0 -32 33 -32z" />
    <glyph glyph-name="cedilla" unicode="&#xb8;" horiz-adv-x="500" 
d="M233 -216h34q99 0 99 83q0 75 -98 75h-12v58h-25v-82h28q79 0 79 -56q0 -51 -69 -51h-36v-27z" />
    <glyph glyph-name="uni00B9" unicode="&#xb9;" horiz-adv-x="344" 
d="M85 576l93 82l1 -388h26v418h-27l-93 -84v-28z" />
    <glyph glyph-name="ordmasculine" unicode="&#xba;" horiz-adv-x="409" 
d="M33 537q0 -85 42 -136q45 -55 129 -55t129 55q43 50 43 136q0 87 -43 136q-45 54 -129 54t-129 -54q-42 -50 -42 -136zM57 537q0 73 36 120q39 50 111 50q73 0 112 -50q36 -45 36 -120t-36 -120q-39 -51 -112 -51t-112 51q-35 46 -35 120z" />
    <glyph glyph-name="guillemotright" unicode="&#xbb;" horiz-adv-x="354" 
d="M56 121l24 -19l125 154l-125 154l-27 -19l109 -135zM178 121l24 -19l125 154l-125 154l-27 -19l109 -135z" />
    <glyph glyph-name="onequarter" unicode="&#xbc;" horiz-adv-x="823" 
d="M729 -3h24v109h59v18h-59v283h-26l-248 -288l8 -13h242v-109zM730 123h-217l217 251v-251zM160 -15h38l465 714h-38zM85 576l93 82l1 -388h26v418h-27l-93 -84v-28z" />
    <glyph glyph-name="onehalf" unicode="&#xbd;" horiz-adv-x="823" 
d="M160 -15h38l465 714h-38zM738 239l-216 -239h261v18h-216l192 213h-1q27 31 27 78q0 52 -32 82t-86 30q-57 0 -89.5 -32.5t-32.5 -89.5v-6h21v7q0 48 26.5 75t74.5 27q45 0 71 -25t26 -70q0 -39 -26 -68zM85 576l93 82l1 -388h26v418h-27l-93 -84v-28z" />
    <glyph glyph-name="threequarters" unicode="&#xbe;" horiz-adv-x="823" 
d="M729 0h24v110h59v18h-59v283h-26l-248 -288l8 -13h242v-110zM160 -15h38l465 714h-38zM730 127h-217l217 250v-250zM160 283q-107 0 -122 90l-22 -9q21 -100 144 -100q66 0 109 31q49 36 49 99q0 21 -7.5 41t-20 36t-30.5 27t-39 15q82 6 82 94q0 95 -133 95
q-108 0 -135 -75l20 -9q22 66 111 66q112 0 112 -78q0 -86 -132 -83l-16 1l4 -20q5 1 10 1h11q58 0 96 -27q42 -30 42 -87q0 -53 -42 -81q-38 -27 -91 -27z" />
    <glyph glyph-name="questiondown" unicode="&#xbf;" horiz-adv-x="463" 
d="M427 25l-31 10q-24 -135 -165 -135q-167 0 -167 144q0 57 52 94q92 69 95 72q51 58 51 159q0 26 -3 55h-31q2 -16 3 -30.5t1 -28.5q0 -88 -52 -139l-64.5 -48.5t-32.5 -25.5q-53 -41 -53 -112q0 -82 58 -128q53 -44 138 -44q98 0 154 60q37 40 47 97zM268 554
q0 47 -22 47t-22 -47t22 -47t22 47z" />
    <glyph glyph-name="Agrave" unicode="&#xc0;" horiz-adv-x="574" 
d="M-5 0h33l94 245h335l93 -245h33l-273 719h-38zM134 275l157 405l154 -405h-311zM354 789l-102 160h-53l102 -160h53z" />
    <glyph glyph-name="Aacute" unicode="&#xc1;" horiz-adv-x="574" 
d="M-5 0h33l94 245h335l93 -245h33l-273 719h-38zM134 275l157 405l154 -405h-311zM242 789h54l101 160h-53z" />
    <glyph glyph-name="Acircumflex" unicode="&#xc2;" horiz-adv-x="574" 
d="M-5 0h33l94 245h335l93 -245h33l-273 719h-38zM134 275l157 405l154 -405h-311zM174 789l100 160h48l99 -160l-36 -4l-87 136l-86 -132h-38z" />
    <glyph glyph-name="Atilde" unicode="&#xc3;" horiz-adv-x="574" 
d="M-5 0h33l94 245h335l93 -245h33l-273 719h-38zM134 275l157 405l154 -405h-311zM409 907l15 -21q-13 -23 -20 -36.5t-9 -15.5q-16 -21 -43 -22q-17 0 -60 35q-41 36 -48 35q-26 -2 -56 -59l-16 16q38 74 72 74q13 0 54 -36q41 -35 54 -35q25 0 40 27q4 10 8 19t9 19z" />
    <glyph glyph-name="Adieresis" unicode="&#xc4;" horiz-adv-x="574" 
d="M-5 0h33l94 245h335l93 -245h33l-273 719h-38zM134 275l157 405l154 -405h-311zM354 868q0 -48 22 -48t22 48q0 46 -22 46t-22 -46zM200 866q0 -48 21 -48q22 0 22 48q0 47 -22 47q-21 0 -21 -47z" />
    <glyph glyph-name="Aring" unicode="&#xc5;" horiz-adv-x="574" 
d="M-5 0h33l94 245h335l93 -245h33l-273 719h-38zM134 275l157 405l154 -405h-311zM181 853q0 -48 31 -78.5t79 -30.5t78.5 30.5t30.5 78.5t-30.5 79t-78.5 31t-79 -31t-31 -79zM209 854q0 35 23.5 58t58.5 23t58 -23t23 -58t-23 -58t-58 -23t-58.5 23t-23.5 58z" />
    <glyph glyph-name="AE" unicode="&#xc6;" horiz-adv-x="804" 
d="M436 241v-241h319v31h-287v328h242v30h-242v300h277v30h-365l-331 -719h36l111 241h240zM436 271h-226l192 418h34v-418z" />
    <glyph glyph-name="Ccedilla" unicode="&#xc7;" horiz-adv-x="681" 
d="M618 173l-29 15q-17 -71 -69 -116q-67 -58 -175 -58q-134 0 -202 110q-57 91 -57 234q0 142 59 236q70 111 205 111q182 0 231 -148l31 16q-23 63 -75 103q-74 59 -181 59q-157 0 -236 -114q-69 -101 -69 -263t67 -259q78 -113 232 -113q120 0 194 65q55 49 74 122z
M335 -216h34q99 0 99 83q0 75 -98 75h-12v58h-25v-82h28q79 0 79 -56q0 -51 -69 -51h-36v-27z" />
    <glyph glyph-name="Egrave" unicode="&#xc8;" horiz-adv-x="567" 
d="M82 0h449v32h-415v327h321v31h-321v297h405v32h-439v-719zM364 789l-102 160h-53l102 -160h53z" />
    <glyph glyph-name="Eacute" unicode="&#xc9;" horiz-adv-x="567" 
d="M82 0h449v32h-415v327h321v31h-321v297h405v32h-439v-719zM252 789h54l101 160h-53z" />
    <glyph glyph-name="Ecircumflex" unicode="&#xca;" horiz-adv-x="567" 
d="M82 0h449v32h-415v327h321v31h-321v297h405v32h-439v-719zM184 789l100 160h48l99 -160l-36 -4l-87 136l-86 -132h-38z" />
    <glyph glyph-name="Edieresis" unicode="&#xcb;" horiz-adv-x="567" 
d="M82 0h449v32h-415v327h321v31h-321v297h405v32h-439v-719zM364 868q0 -48 22 -48t22 48q0 46 -22 46t-22 -46zM210 866q0 -48 21 -48q22 0 22 48q0 47 -22 47q-21 0 -21 -47z" />
    <glyph glyph-name="Igrave" unicode="&#xcc;" horiz-adv-x="207" 
d="M87 0h33v719h-33v-719zM161 789l-102 160h-53l102 -160h53z" />
    <glyph glyph-name="Iacute" unicode="&#xcd;" horiz-adv-x="207" 
d="M87 0h33v719h-33v-719zM49 789h54l101 160h-53z" />
    <glyph glyph-name="Icircumflex" unicode="&#xce;" horiz-adv-x="207" 
d="M87 0h33v719h-33v-719zM-19 789l100 160h48l99 -160l-36 -4l-87 136l-86 -132h-38z" />
    <glyph glyph-name="Idieresis" unicode="&#xcf;" horiz-adv-x="207" 
d="M87 0h33v719h-33v-719zM161 868q0 -48 22 -48t22 48q0 46 -22 46t-22 -46zM7 866q0 -48 21 -48q22 0 22 48q0 47 -22 47q-21 0 -21 -47z" />
    <glyph glyph-name="Eth" unicode="&#xd0;" horiz-adv-x="689" 
d="M82 0h165q155 0 231 35q159 75 159 324q0 245 -159 325q-72 35 -231 35h-165v-320h-82v-27h82v-372zM116 30v342h243v27h-243v289h139q44 0 77 -2t56 -6q74 -14 119 -54q95 -86 95 -267q0 -223 -133 -293q-69 -36 -214 -36h-139z" />
    <glyph glyph-name="Ntilde" unicode="&#xd1;" horiz-adv-x="682" 
d="M82 0h33v661l452 -661h33v719h-33v-662l-451 662h-34v-719zM452 907l15 -21q-13 -23 -20 -36.5t-9 -15.5q-16 -21 -43 -22q-17 0 -60 35q-41 36 -48 35q-26 -2 -56 -59l-16 16q38 74 72 74q13 0 54 -36q41 -35 54 -35q25 0 40 27q4 10 8 19t9 19z" />
    <glyph glyph-name="Ograve" unicode="&#xd2;" horiz-adv-x="741" 
d="M52 359q0 -164 75 -264q84 -110 243 -110q162 0 244 109q75 99 75 265q0 164 -75 265q-83 111 -244 111t-243 -112q-75 -101 -75 -264zM87 359q0 149 65 241q75 105 218 105t218 -105q66 -92 66 -241q0 -150 -65 -241q-74 -104 -219 -104q-144 0 -218 104q-65 92 -65 241
zM427 789l-102 160h-53l102 -160h53z" />
    <glyph glyph-name="Oacute" unicode="&#xd3;" horiz-adv-x="741" 
d="M52 359q0 -164 75 -264q84 -110 243 -110q162 0 244 109q75 99 75 265q0 164 -75 265q-83 111 -244 111t-243 -112q-75 -101 -75 -264zM87 359q0 149 65 241q75 105 218 105t218 -105q66 -92 66 -241q0 -150 -65 -241q-74 -104 -219 -104q-144 0 -218 104q-65 92 -65 241
zM315 789h54l101 160h-53z" />
    <glyph glyph-name="Ocircumflex" unicode="&#xd4;" horiz-adv-x="741" 
d="M52 359q0 -164 75 -264q84 -110 243 -110q162 0 244 109q75 99 75 265q0 164 -75 265q-83 111 -244 111t-243 -112q-75 -101 -75 -264zM87 359q0 149 65 241q75 105 218 105t218 -105q66 -92 66 -241q0 -150 -65 -241q-74 -104 -219 -104q-144 0 -218 104q-65 92 -65 241
zM247 789l100 160h48l99 -160l-36 -4l-87 136l-86 -132h-38z" />
    <glyph glyph-name="Otilde" unicode="&#xd5;" horiz-adv-x="741" 
d="M52 359q0 -164 75 -264q84 -110 243 -110q162 0 244 109q75 99 75 265q0 164 -75 265q-83 111 -244 111t-243 -112q-75 -101 -75 -264zM87 359q0 149 65 241q75 105 218 105t218 -105q66 -92 66 -241q0 -150 -65 -241q-74 -104 -219 -104q-144 0 -218 104q-65 92 -65 241
zM482 907l15 -21q-13 -23 -20 -36.5t-9 -15.5q-16 -21 -43 -22q-17 0 -60 35q-41 36 -48 35q-26 -2 -56 -59l-16 16q38 74 72 74q13 0 54 -36q41 -35 54 -35q25 0 40 27q4 10 8 19t9 19z" />
    <glyph glyph-name="Odieresis" unicode="&#xd6;" horiz-adv-x="741" 
d="M52 359q0 -164 75 -264q84 -110 243 -110q162 0 244 109q75 99 75 265q0 164 -75 265q-83 111 -244 111t-243 -112q-75 -101 -75 -264zM87 359q0 149 65 241q75 105 218 105t218 -105q66 -92 66 -241q0 -150 -65 -241q-74 -104 -219 -104q-144 0 -218 104q-65 92 -65 241
zM427 868q0 -48 22 -48t22 48q0 46 -22 46t-22 -46zM273 866q0 -48 21 -48q22 0 22 48q0 47 -22 47q-21 0 -21 -47z" />
    <glyph glyph-name="multiply" unicode="&#xd7;" horiz-adv-x="684" 
d="M342 319l-160 193h-36l178 -214l-176 -211h36l158 189l157 -189h37l-176 211l178 214h-36z" />
    <glyph glyph-name="Oslash" unicode="&#xd8;" horiz-adv-x="741" 
d="M36 -9l23 -19l86 102q91 -90 221 -90q162 0 247 109q76 98 76 266q0 156 -74 263l89 104l-23 22l-87 -100q-80 86 -221 86q-163 0 -247 -109q-74 -98 -74 -266q0 -159 74 -262zM369 704q127 0 201 -84q84 -98 84 -261q0 -149 -66 -240q-74 -105 -217 -105
q-130 0 -222 110q-62 92 -62 235q0 150 64 241q74 104 218 104zM339 349q0 -23 21 -23t21 23q0 24 -21 24t-21 -24z" />
    <glyph glyph-name="Ugrave" unicode="&#xd9;" horiz-adv-x="671" 
d="M77 719v-468q0 -127 67 -195q68 -71 192 -71q123 0 192 71q67 70 67 195v468h-33v-452q0 -118 -53 -183q-58 -70 -173 -70q-226 0 -226 253v452h-33zM392 789l-102 160h-53l102 -160h53z" />
    <glyph glyph-name="Uacute" unicode="&#xda;" horiz-adv-x="671" 
d="M77 719v-468q0 -127 67 -195q68 -71 192 -71q123 0 192 71q67 70 67 195v468h-33v-452q0 -118 -53 -183q-58 -70 -173 -70q-226 0 -226 253v452h-33zM280 789h54l101 160h-53z" />
    <glyph glyph-name="Ucircumflex" unicode="&#xdb;" horiz-adv-x="671" 
d="M77 719v-468q0 -127 67 -195q68 -71 192 -71q123 0 192 71q67 70 67 195v468h-33v-452q0 -118 -53 -183q-58 -70 -173 -70q-226 0 -226 253v452h-33zM212 789l100 160h48l99 -160l-36 -4l-87 136l-86 -132h-38z" />
    <glyph glyph-name="Udieresis" unicode="&#xdc;" horiz-adv-x="671" 
d="M77 719v-468q0 -127 67 -195q68 -71 192 -71q123 0 192 71q67 70 67 195v468h-33v-452q0 -118 -53 -183q-58 -70 -173 -70q-226 0 -226 253v452h-33zM392 868q0 -48 22 -48t22 48q0 46 -22 46t-22 -46zM238 866q0 -48 21 -48q22 0 22 48q0 47 -22 47q-21 0 -21 -47z" />
    <glyph glyph-name="Yacute" unicode="&#xdd;" horiz-adv-x="530" 
d="M248 0h33v316l247 403h-38l-224 -367l-227 367h-38l247 -401v-318zM209 789h54l101 160h-53z" />
    <glyph glyph-name="Thorn" unicode="&#xde;" horiz-adv-x="527" 
d="M116 0v189h159q188 0 219 103q9 31 9 89q0 61 -7 88q-13 47 -51 70q-62 36 -167 36h-162v144h-34v-719h34zM116 546h138q115 0 162 -26q33 -20 43 -53q9 -26 9 -78q0 -59 -9 -87q-17 -58 -84 -74q-35 -9 -122 -9h-137v327z" />
    <glyph glyph-name="germandbls" unicode="&#xdf;" horiz-adv-x="488" 
d="M69 0h33v499v28t1 41q1 27 0 45q-2 44 45 68q37 19 88 19q143 0 143 -151q0 -134 -143 -134q-11 0 -32.5 0.5t-32.5 0.5v-28h61q90 0 141 -58q48 -56 48 -147q0 -89 -44 -147q-48 -63 -136 -63q-85 0 -83 -1h-1v-32l86 1q100 0 151 60q29 35 45 86q17 53 17 97
q0 76 -34 134q-38 68 -106 84q98 36 98 149q0 85 -47 131t-132 46q-110 0 -153 -70q-14 -22 -14 -62z" />
    <glyph glyph-name="agrave" unicode="&#xe0;" horiz-adv-x="572" 
d="M467 214v-86h31v393h-31v-89q-50 98 -192 98q-102 0 -162 -51q-63 -54 -63 -155q0 -99 64 -154q60 -51 161 -51q142 0 192 95zM82 324q0 87 53 137q52 48 140 48q89 0 140 -48q52 -49 52 -137t-51 -136t-141 -48q-89 0 -140 48q-53 48 -53 136zM89 65v-31h394v31h-394z
M301 584l-102 160h-53l102 -160h53z" />
    <glyph glyph-name="aacute" unicode="&#xe1;" horiz-adv-x="572" 
d="M467 214v-86h31v393h-31v-89q-50 98 -192 98q-102 0 -162 -51q-63 -54 -63 -155q0 -99 64 -154q60 -51 161 -51q142 0 192 95zM82 324q0 87 53 137q52 48 140 48q89 0 140 -48q52 -49 52 -137t-51 -136t-141 -48q-89 0 -140 48q-53 48 -53 136zM89 65v-31h394v31h-394z
M189 584h54l101 160h-53z" />
    <glyph glyph-name="acircumflex" unicode="&#xe2;" horiz-adv-x="572" 
d="M467 214v-86h31v393h-31v-89q-50 98 -192 98q-102 0 -162 -51q-63 -54 -63 -155q0 -99 64 -154q60 -51 161 -51q142 0 192 95zM82 324q0 87 53 137q52 48 140 48q89 0 140 -48q52 -49 52 -137t-51 -136t-141 -48q-89 0 -140 48q-53 48 -53 136zM89 65v-31h394v31h-394z
M145 584l100 160h48l99 -160l-36 -4l-87 136l-86 -132h-38z" />
    <glyph glyph-name="atilde" unicode="&#xe3;" horiz-adv-x="572" 
d="M467 214v-86h31v393h-31v-89q-50 98 -192 98q-102 0 -162 -51q-63 -54 -63 -155q0 -99 64 -154q60 -51 161 -51q142 0 192 95zM82 324q0 87 53 137q52 48 140 48q89 0 140 -48q52 -49 52 -137t-51 -136t-141 -48q-89 0 -140 48q-53 48 -53 136zM89 65v-31h394v31h-394z
M380 702l15 -21q-13 -23 -20 -36.5t-9 -15.5q-16 -21 -43 -22q-17 0 -60 35q-41 36 -48 35q-26 -2 -56 -59l-16 16q38 74 72 74q13 0 54 -36q41 -35 54 -35q25 0 40 27q4 10 8 19t9 19z" />
    <glyph glyph-name="adieresis" unicode="&#xe4;" horiz-adv-x="572" 
d="M467 214v-86h31v393h-31v-89q-50 98 -192 98q-102 0 -162 -51q-63 -54 -63 -155q0 -99 64 -154q60 -51 161 -51q142 0 192 95zM82 324q0 87 53 137q52 48 140 48q89 0 140 -48q52 -49 52 -137t-51 -136t-141 -48q-89 0 -140 48q-53 48 -53 136zM89 65v-31h394v31h-394z
M325 663q0 -48 22 -48t22 48q0 46 -22 46t-22 -46zM171 661q0 -48 21 -48q22 0 22 48q0 47 -22 47q-21 0 -21 -47z" />
    <glyph glyph-name="aring" unicode="&#xe5;" horiz-adv-x="572" 
d="M467 214v-86h31v393h-31v-89q-50 98 -192 98q-102 0 -162 -51q-63 -54 -63 -155q0 -99 64 -154q60 -51 161 -51q142 0 192 95zM82 324q0 87 53 137q52 48 140 48q89 0 140 -48q52 -49 52 -137t-51 -136t-141 -48q-89 0 -140 48q-53 48 -53 136zM170 665q0 -48 30.5 -78.5
t78.5 -30.5t78.5 30.5t30.5 78.5t-30.5 78.5t-78.5 30.5t-78.5 -30.5t-30.5 -78.5zM198 666q0 34 24 57.5t57 23.5q35 0 58 -23t23 -58t-23 -58.5t-58 -23.5q-34 0 -57.5 23.5t-23.5 58.5zM89 65v-31h394v31h-394z" />
    <glyph glyph-name="ae" unicode="&#xe6;" horiz-adv-x="944" 
d="M902 159h-31q-17 -64 -64 -101t-113 -37q-91 0 -142 74q-45 64 -45 160v8h405v19q0 112 -52 179q-57 76 -166 76q-111 0 -169 -84q-14 -21 -23 -41v107h-31v-119q-51 130 -196 130q-115 0 -175 -81q-54 -72 -54 -191q0 -118 54 -191q62 -80 175 -80q146 0 196 125v-112
h31v118q8 -21 23 -42q58 -82 169 -82q79 0 135 43.5t73 121.5zM78 258q0 105 46 169q51 75 151 75t151 -75q45 -65 45 -169q0 -105 -45 -169q-51 -75 -151 -75t-152 75q-45 64 -45 169zM508 292q6 94 51 151q51 66 141 66q87 0 135 -68q43 -58 43 -149h-370z" />
    <glyph glyph-name="ccedilla" unicode="&#xe7;" horiz-adv-x="519" 
d="M466 125l-27 16q-15 -60 -60.5 -93.5t-106.5 -33.5q-99 0 -151 75q-45 64 -45 169q0 104 45 169q51 75 151 75q65 0 110 -36q35 -29 48 -67l27 18q-44 113 -185 113q-114 0 -174 -82q-54 -72 -54 -190q0 -115 53 -189q61 -82 172 -82q85 0 141 47q39 35 56 91zM252 -216
h34q99 0 99 83q0 75 -98 75h-12v58h-25v-82h28q79 0 79 -56q0 -51 -69 -51h-36v-27z" />
    <glyph glyph-name="egrave" unicode="&#xe8;" horiz-adv-x="545" 
d="M408 147q43 25 63 68l-27 11q-42 -87 -170 -87q-86 0 -135 45q-52 46 -52 132v6h405v14q0 97 -62 150q-56 49 -156 49q-102 0 -160 -55q-60 -56 -60 -157q0 -100 59 -155.5t161 -55.5q78 0 134 35zM88 345q10 163 192 163q79 0 128 -41q50 -44 50 -122h-370zM75 65v-31
h395v31h-395zM322 584l-102 160h-53l102 -160h53z" />
    <glyph glyph-name="eacute" unicode="&#xe9;" horiz-adv-x="545" 
d="M408 147q43 25 63 68l-27 11q-42 -87 -170 -87q-86 0 -135 45q-52 46 -52 132v6h405v14q0 97 -62 150q-56 49 -156 49q-102 0 -160 -55q-60 -56 -60 -157q0 -100 59 -155.5t161 -55.5q78 0 134 35zM88 345q10 163 192 163q79 0 128 -41q50 -44 50 -122h-370zM75 65v-31
h395v31h-395zM210 584h54l101 160h-53z" />
    <glyph glyph-name="ecircumflex" unicode="&#xea;" horiz-adv-x="545" 
d="M408 147q43 25 63 68l-27 11q-42 -87 -170 -87q-86 0 -135 45q-52 46 -52 132v6h405v14q0 97 -62 150q-56 49 -156 49q-102 0 -160 -55q-60 -56 -60 -157q0 -100 59 -155.5t161 -55.5q78 0 134 35zM88 345q10 163 192 163q79 0 128 -41q50 -44 50 -122h-370zM75 65v-31
h395v31h-395zM142 584l100 160h48l99 -160l-36 -4l-87 136l-86 -132h-38z" />
    <glyph glyph-name="edieresis" unicode="&#xeb;" horiz-adv-x="545" 
d="M408 147q43 25 63 68l-27 11q-42 -87 -170 -87q-86 0 -135 45q-52 46 -52 132v6h405v14q0 97 -62 150q-56 49 -156 49q-102 0 -160 -55q-60 -56 -60 -157q0 -100 59 -155.5t161 -55.5q78 0 134 35zM88 345q10 163 192 163q79 0 128 -41q50 -44 50 -122h-370zM75 65v-31
h395v31h-395zM322 663q0 -48 22 -48t22 48q0 46 -22 46t-22 -46zM168 661q0 -48 21 -48q22 0 22 48q0 47 -22 47q-21 0 -21 -47z" />
    <glyph glyph-name="igrave" unicode="&#xec;" horiz-adv-x="175" 
d="M41 65h97v-31h-97v31zM72 132v387h31v-387h-31zM145 584l-102 160h-53l102 -160h53z" />
    <glyph glyph-name="iacute" unicode="&#xed;" horiz-adv-x="175" 
d="M41 65h97v-31h-97v31zM72 132v387h31v-387h-31zM33 584h54l101 160h-53z" />
    <glyph glyph-name="icircumflex" unicode="&#xee;" horiz-adv-x="175" 
d="M41 65h97v-31h-97v31zM72 132v387h31v-387h-31zM-35 584l100 160h48l99 -160l-36 -4l-87 136l-86 -132h-38z" />
    <glyph glyph-name="idieresis" unicode="&#xef;" horiz-adv-x="175" 
d="M41 65h97v-31h-97v31zM72 132v387h31v-387h-31zM145 663q0 -48 22 -48t22 48q0 46 -22 46t-22 -46zM-9 661q0 -48 21 -48q22 0 22 48q0 47 -22 47q-21 0 -21 -47z" />
    <glyph glyph-name="eth" unicode="&#xf0;" 
d="M442 710l-74 -54q-53 41 -131 41q-79 0 -126 -44.5t-55 -123.5h32q20 137 155 137q58 0 99 -29l-114 -83l16 -23l120 88q77 -80 77 -288v-30q0 -12 -1 -20q-39 160 -190 160q-99 0 -153 -67q-50 -62 -50 -163q0 -98 51 -162q56 -68 151 -68q226 0 226 342q0 223 -86 314
l70 51zM82 211q0 88 40 140q45 60 129 60q82 0 129 -59q42 -54 42 -140t-40 -139q-43 -61 -126 -61q-84 0 -131 59q-43 53 -43 140z" />
    <glyph glyph-name="ntilde" unicode="&#xf1;" 
d="M69 0h32v278q0 30 1.5 52.5t3.5 37.5q24 133 171 133q80 0 115 -45q30 -39 30 -122v-334h32v344q0 186 -178 186q-126 0 -175 -96v85h-32v-519zM372 702l15 -21q-13 -23 -20 -36.5t-9 -15.5q-16 -21 -43 -22q-17 0 -60 35q-41 36 -48 35q-26 -2 -56 -59l-16 16
q38 74 72 74q13 0 54 -36q41 -35 54 -35q25 0 40 27q4 10 8 19t9 19z" />
    <glyph glyph-name="ograve" unicode="&#xf2;" horiz-adv-x="545" 
d="M42 331q0 -101 67 -153q61 -48 163 -48t164 48q67 52 67 153q0 100 -67 152q-62 48 -164 48t-163 -48q-67 -52 -67 -152zM74 331q0 174 198 174q91 0 143 -41q56 -45 56 -133q0 -175 -199 -175q-90 0 -142 41q-56 45 -56 134zM75 65v-31h395v31h-395zM329 584l-102 160
h-53l102 -160h53z" />
    <glyph glyph-name="oacute" unicode="&#xf3;" horiz-adv-x="545" 
d="M42 331q0 -101 67 -153q61 -48 163 -48t164 48q67 52 67 153q0 100 -67 152q-62 48 -164 48t-163 -48q-67 -52 -67 -152zM74 331q0 174 198 174q91 0 143 -41q56 -45 56 -133q0 -175 -199 -175q-90 0 -142 41q-56 45 -56 134zM75 65v-31h395v31h-395zM217 584h54l101 160
h-53z" />
    <glyph glyph-name="ocircumflex" unicode="&#xf4;" horiz-adv-x="545" 
d="M42 331q0 -101 67 -153q61 -48 163 -48t164 48q67 52 67 153q0 100 -67 152q-62 48 -164 48t-163 -48q-67 -52 -67 -152zM74 331q0 174 198 174q91 0 143 -41q56 -45 56 -133q0 -175 -199 -175q-90 0 -142 41q-56 45 -56 134zM75 65v-31h395v31h-395zM149 584l100 160h48
l99 -160l-36 -4l-87 136l-86 -132h-38z" />
    <glyph glyph-name="otilde" unicode="&#xf5;" horiz-adv-x="545" 
d="M42 331q0 -101 67 -153q61 -48 163 -48t164 48q67 52 67 153q0 100 -67 152q-62 48 -164 48t-163 -48q-67 -52 -67 -152zM74 331q0 174 198 174q91 0 143 -41q56 -45 56 -133q0 -175 -199 -175q-90 0 -142 41q-56 45 -56 134zM75 65v-31h395v31h-395zM384 702l15 -21
q-13 -23 -20 -36.5t-9 -15.5q-16 -21 -43 -22q-17 0 -60 35q-41 36 -48 35q-26 -2 -56 -59l-16 16q38 74 72 74q13 0 54 -36q41 -35 54 -35q25 0 40 27q4 10 8 19t9 19z" />
    <glyph glyph-name="odieresis" unicode="&#xf6;" horiz-adv-x="545" 
d="M42 331q0 -101 67 -153q61 -48 163 -48t164 48q67 52 67 153q0 100 -67 152q-62 48 -164 48t-163 -48q-67 -52 -67 -152zM74 331q0 174 198 174q91 0 143 -41q56 -45 56 -133q0 -175 -199 -175q-90 0 -142 41q-56 45 -56 134zM75 65v-31h395v31h-395zM329 663
q0 -48 22 -48t22 48q0 46 -22 46t-22 -46zM175 661q0 -48 21 -48q22 0 22 48q0 47 -22 47q-21 0 -21 -47z" />
    <glyph glyph-name="divide" unicode="&#xf7;" horiz-adv-x="746" 
d="M110 313v-30h536v30h-536zM374 488q-31 0 -31 -45q0 -44 31 -44q29 0 29 44q0 45 -29 45zM374 196q-31 0 -31 -45q0 -44 31 -44q29 0 29 45q0 44 -29 44z" />
    <glyph glyph-name="oslash" unicode="&#xf8;" horiz-adv-x="545" 
d="M30 -1l20 -19l62 71q63 -64 161 -64q117 0 177 82q52 73 52 195q0 106 -50 177l63 73l-21 20l-60 -70q-63 66 -161 66q-114 0 -175 -82q-54 -74 -54 -191q0 -110 50 -183zM273 14q-103 0 -157 84q-40 61 -40 158q0 100 45 168q51 78 148 78q101 0 154 -74q46 -64 46 -170
q0 -105 -45 -169q-51 -75 -151 -75zM248 249q0 -24 21 -24t21 24q0 23 -21 23t-21 -23z" />
    <glyph glyph-name="ugrave" unicode="&#xf9;" 
d="M453 526h-32v-125q0 -30 -1.5 -52.5t-3.5 -37.5q-24 -132 -170 -132q-81 0 -116 44q-30 40 -30 123v180h-32v-191q0 -186 179 -186q124 0 174 96v-81h32v362zM63 65v-31h395v31h-395zM317 584l-102 160h-53l102 -160h53z" />
    <glyph glyph-name="uacute" unicode="&#xfa;" 
d="M453 526h-32v-125q0 -30 -1.5 -52.5t-3.5 -37.5q-24 -132 -170 -132q-81 0 -116 44q-30 40 -30 123v180h-32v-191q0 -186 179 -186q124 0 174 96v-81h32v362zM63 65v-31h395v31h-395zM205 584h54l101 160h-53z" />
    <glyph glyph-name="ucircumflex" unicode="&#xfb;" 
d="M453 526h-32v-125q0 -30 -1.5 -52.5t-3.5 -37.5q-24 -132 -170 -132q-81 0 -116 44q-30 40 -30 123v180h-32v-191q0 -186 179 -186q124 0 174 96v-81h32v362zM63 65v-31h395v31h-395zM137 584l100 160h48l99 -160l-36 -4l-87 136l-86 -132h-38z" />
    <glyph glyph-name="udieresis" unicode="&#xfc;" 
d="M453 526h-32v-125q0 -30 -1.5 -52.5t-3.5 -37.5q-24 -132 -170 -132q-81 0 -116 44q-30 40 -30 123v180h-32v-191q0 -186 179 -186q124 0 174 96v-81h32v362zM63 65v-31h395v31h-395zM317 663q0 -48 22 -48t22 48q0 46 -22 46t-22 -46zM163 661q0 -48 21 -48q22 0 22 48
q0 47 -22 47q-21 0 -21 -47z" />
    <glyph glyph-name="yacute" unicode="&#xfd;" 
d="M444 -59q5 20 7 37t3 33v519h-32v-278q0 -31 -1.5 -53.5t-3.5 -36.5q-24 -133 -171 -133q-81 0 -115 45q-30 39 -30 122v334h-32v-344q0 -186 178 -186q125 0 175 96v-80q0 -36 -3 -54q-2 -15 -6.5 -27.5t-9.5 -22.5q-45 -87 -160 -87q-64 0 -105 29q-46 31 -49 94h-27
q1 -73 52 -113q46 -37 122 -37q65 0 112 22q77 38 96 121zM164 584h54l101 160h-53z" />
    <glyph glyph-name="thorn" unicode="&#xfe;" horiz-adv-x="572" 
d="M101 112q51 -125 196 -125q115 0 175 80q54 72 54 191q0 118 -54 190q-61 82 -175 82q-145 0 -196 -130v298h-32v-884h32v298zM297 502q99 0 152 -75q45 -65 45 -169q0 -105 -45 -169q-53 -75 -152 -75t-151 75q-45 64 -45 169q0 104 45 169q51 75 151 75z" />
    <glyph glyph-name="ydieresis" unicode="&#xff;" 
d="M444 -59q5 20 7 37t3 33v519h-32v-278q0 -31 -1.5 -53.5t-3.5 -36.5q-24 -133 -171 -133q-81 0 -115 45q-30 39 -30 122v334h-32v-344q0 -186 178 -186q125 0 175 96v-80q0 -36 -3 -54q-2 -15 -6.5 -27.5t-9.5 -22.5q-45 -87 -160 -87q-64 0 -105 29q-46 31 -49 94h-27
q1 -73 52 -113q46 -37 122 -37q65 0 112 22q77 38 96 121zM276 663q0 -48 22 -48t22 48q0 46 -22 46t-22 -46zM122 661q0 -48 21 -48q22 0 22 48q0 47 -22 47q-21 0 -21 -47z" />
  </font>
</defs>
</svg>
